<svg width="37" height="38" viewBox="0 0 37 38" fill="none" xmlns="http://www.w3.org/2000/svg">
<path d="M18.2955 37.1327C28.3982 37.1327 36.5881 28.9428 36.5881 18.84C36.5881 8.73726 28.3982 0.547363 18.2955 0.547363C8.19274 0.547363 0.00283813 8.73726 0.00283813 18.84C0.00283813 28.9428 8.19274 37.1327 18.2955 37.1327Z" fill="#FFCC4D"/>
<path d="M18.2953 21.8889C14.6134 21.8889 12.1703 21.46 9.14894 20.8726C8.4589 20.7395 7.11642 20.8726 7.11642 22.9051C7.11642 26.9702 11.7861 32.0515 18.2953 32.0515C24.8034 32.0515 29.4741 26.9702 29.4741 22.9051C29.4741 20.8726 28.1316 20.7385 27.4416 20.8726C24.4203 21.46 21.9772 21.8889 18.2953 21.8889Z" fill="#664500"/>
<path d="M9.14902 22.9052C9.14902 22.9052 12.1978 23.9214 18.2953 23.9214C24.3929 23.9214 27.4417 22.9052 27.4417 22.9052C27.4417 22.9052 25.4091 26.9702 18.2953 26.9702C11.1815 26.9702 9.14902 22.9052 9.14902 22.9052Z" fill="white"/>
<path d="M12.1974 17.8238C13.6006 17.8238 14.7381 16.2313 14.7381 14.2669C14.7381 12.3024 13.6006 10.71 12.1974 10.71C10.7943 10.71 9.65677 12.3024 9.65677 14.2669C9.65677 16.2313 10.7943 17.8238 12.1974 17.8238Z" fill="#664500"/>
<path d="M24.3925 17.8238C25.7957 17.8238 26.9332 16.2313 26.9332 14.2669C26.9332 12.3024 25.7957 10.71 24.3925 10.71C22.9894 10.71 21.8519 12.3024 21.8519 14.2669C21.8519 16.2313 22.9894 17.8238 24.3925 17.8238Z" fill="#664500"/>
</svg>
