<svg width="37" height="38" viewBox="0 0 37 38" fill="none" xmlns="http://www.w3.org/2000/svg">
<path d="M18.2956 37.1327C28.3983 37.1327 36.5882 28.9428 36.5882 18.84C36.5882 8.73726 28.3983 0.547363 18.2956 0.547363C8.19283 0.547363 0.00292969 8.73726 0.00292969 18.84C0.00292969 28.9428 8.19283 37.1327 18.2956 37.1327Z" fill="#FFCC4D"/>
<path d="M18.2953 21.8889C14.6134 21.8889 12.1703 21.46 9.14897 20.8726C8.45893 20.7395 7.11646 20.8726 7.11646 22.9051C7.11646 26.9702 11.7862 32.0515 18.2953 32.0515C24.8034 32.0515 29.4741 26.9702 29.4741 22.9051C29.4741 20.8726 28.1317 20.7385 27.4416 20.8726C24.4203 21.46 21.9772 21.8889 18.2953 21.8889Z" fill="#664500"/>
<path d="M9.14917 22.9052C9.14917 22.9052 12.1979 23.9214 18.2955 23.9214C24.393 23.9214 27.4418 22.9052 27.4418 22.9052C27.4418 22.9052 25.4093 26.9702 18.2955 26.9702C11.1817 26.9702 9.14917 22.9052 9.14917 22.9052Z" fill="white"/>
<path d="M12.1974 17.8238C13.6005 17.8238 14.738 16.2313 14.738 14.2669C14.738 12.3024 13.6005 10.71 12.1974 10.71C10.7942 10.71 9.65674 12.3024 9.65674 14.2669C9.65674 16.2313 10.7942 17.8238 12.1974 17.8238Z" fill="#664500"/>
<path d="M24.3927 17.8238C25.7959 17.8238 26.9333 16.2313 26.9333 14.2669C26.9333 12.3024 25.7959 10.71 24.3927 10.71C22.9895 10.71 21.8521 12.3024 21.8521 14.2669C21.8521 16.2313 22.9895 17.8238 24.3927 17.8238Z" fill="#664500"/>
</svg>
