<svg width="76" height="76" viewBox="0 0 76 76" fill="none" xmlns="http://www.w3.org/2000/svg">
<circle cx="37.6791" cy="38.2846" r="37.5422" fill="#FFF8B9"/>
<path d="M40.0163 30.6938V22.3306H27.7175C26.8996 22.3306 26.2416 22.9886 26.2416 23.8065V52.3398C26.2416 53.1577 26.8996 53.8157 27.7175 53.8157H48.3796C49.1974 53.8157 49.8554 53.1577 49.8554 52.3398V32.1697H41.4922C40.6805 32.1697 40.0163 31.5055 40.0163 30.6938ZM43.952 45.2065C43.952 45.6123 43.6199 45.9444 43.214 45.9444H32.883C32.4771 45.9444 32.1451 45.6123 32.1451 45.2065V44.7145C32.1451 44.3086 32.4771 43.9766 32.883 43.9766H43.214C43.6199 43.9766 43.952 44.3086 43.952 44.7145V45.2065ZM43.952 41.2708C43.952 41.6767 43.6199 42.0088 43.214 42.0088H32.883C32.4771 42.0088 32.1451 41.6767 32.1451 41.2708V40.7789C32.1451 40.373 32.4771 40.0409 32.883 40.0409H43.214C43.6199 40.0409 43.952 40.373 43.952 40.7789V41.2708ZM43.952 36.8432V37.3352C43.952 37.7411 43.6199 38.0731 43.214 38.0731H32.883C32.4771 38.0731 32.1451 37.7411 32.1451 37.3352V36.8432C32.1451 36.4374 32.4771 36.1053 32.883 36.1053H43.214C43.6199 36.1053 43.952 36.4374 43.952 36.8432ZM49.8554 29.8267V30.2019H41.9842V22.3306H42.3593C42.7528 22.3306 43.1279 22.4843 43.4047 22.7611L49.425 28.7875C49.7017 29.0642 49.8554 29.4393 49.8554 29.8267Z" fill="#AEA551"/>
</svg>
