<svg width="76" height="76" viewBox="0 0 76 76" fill="none" xmlns="http://www.w3.org/2000/svg">
<circle cx="37.6422" cy="37.5616" r="37.5422" fill="#C3FFB9"/>
<path d="M51.8427 44.1955V23.2006C51.8427 22.3695 51.1741 21.7009 50.3431 21.7009H29.848C26.5363 21.7009 23.8494 24.3878 23.8494 27.6995V47.6947C23.8494 51.0064 26.5363 53.6933 29.848 53.6933H50.3431C51.1741 53.6933 51.8427 53.0247 51.8427 52.1936V51.1939C51.8427 50.7252 51.624 50.3003 51.2866 50.0254C51.0241 49.0631 51.0241 46.32 51.2866 45.3578C51.624 45.0891 51.8427 44.6642 51.8427 44.1955ZM31.8475 30.0739C31.8475 29.8677 32.0162 29.699 32.2224 29.699H45.4692C45.6754 29.699 45.8441 29.8677 45.8441 30.0739V31.3236C45.8441 31.5298 45.6754 31.6985 45.4692 31.6985H32.2224C32.0162 31.6985 31.8475 31.5298 31.8475 31.3236V30.0739ZM31.8475 34.073C31.8475 33.8668 32.0162 33.6981 32.2224 33.6981H45.4692C45.6754 33.6981 45.8441 33.8668 45.8441 34.073V35.3227C45.8441 35.5289 45.6754 35.6976 45.4692 35.6976H32.2224C32.0162 35.6976 31.8475 35.5289 31.8475 35.3227V34.073ZM47.6812 49.6942H29.848C28.742 49.6942 27.8484 48.8007 27.8484 47.6947C27.8484 46.595 28.7482 45.6952 29.848 45.6952H47.6812C47.5625 46.7637 47.5625 48.6257 47.6812 49.6942Z" fill="#52A944"/>
</svg>
