<svg width="16" height="16" viewBox="0 0 16 16" fill="none" xmlns="http://www.w3.org/2000/svg">
<path d="M6.59082 8.35058C6.86446 8.71641 7.21359 9.01911 7.6145 9.23815C8.01542 9.45719 8.45876 9.58745 8.91444 9.62008C9.37013 9.65272 9.8275 9.58697 10.2555 9.4273C10.6836 9.26763 11.0723 9.01777 11.3953 8.69467L13.3068 6.78309C13.8872 6.1822 14.2083 5.37742 14.2011 4.54207C14.1938 3.70672 13.8587 2.90764 13.268 2.31694C12.6773 1.72623 11.8782 1.39117 11.0429 1.38391C10.2075 1.37665 9.40276 1.69778 8.80188 2.27813L7.70591 3.36773" stroke="#7076A6" stroke-width="2" stroke-linecap="round" stroke-linejoin="round"/>
<path d="M9.13959 7.07623C8.86595 6.71039 8.51683 6.40769 8.11591 6.18865C7.71499 5.96961 7.27166 5.83936 6.81597 5.80672C6.36029 5.77409 5.90291 5.83984 5.47487 5.99951C5.04683 6.15918 4.65814 6.40904 4.33515 6.73214L2.42357 8.64372C1.84322 9.2446 1.5221 10.0494 1.52936 10.8847C1.53662 11.7201 1.87168 12.5192 2.46238 13.1099C3.05309 13.7006 3.85217 14.0356 4.68752 14.0429C5.52287 14.0502 6.32765 13.729 6.92853 13.1487L8.01813 12.0591" stroke="#7076A6" stroke-width="2" stroke-linecap="round" stroke-linejoin="round"/>
</svg>
