<svg width="23" height="22" viewBox="0 0 23 22" fill="none" xmlns="http://www.w3.org/2000/svg">
<path d="M9.4425 11.9376C9.87196 12.5117 10.4199 12.9868 11.0491 13.3305C11.6782 13.6743 12.374 13.8787 13.0892 13.9299C13.8043 13.9811 14.5221 13.878 15.1939 13.6274C15.8656 13.3768 16.4756 12.9847 16.9825 12.4776L19.9825 9.47759C20.8933 8.53458 21.3973 7.27157 21.3859 5.96058C21.3745 4.6496 20.8486 3.39554 19.9216 2.46849C18.9946 1.54145 17.7405 1.01561 16.4295 1.00422C15.1185 0.992825 13.8555 1.4968 12.9125 2.40759L11.1925 4.11759" stroke="#7076A6" stroke-width="2" stroke-linecap="round" stroke-linejoin="round"/>
<path d="M13.4425 9.9376C13.013 9.36347 12.4651 8.88842 11.8359 8.54466C11.2067 8.20091 10.511 7.99649 9.79581 7.94527C9.08067 7.89405 8.36287 7.99724 7.69111 8.24782C7.01936 8.49841 6.40935 8.89053 5.90246 9.3976L2.90246 12.3976C1.99167 13.3406 1.4877 14.6036 1.49909 15.9146C1.51048 17.2256 2.03633 18.4797 2.96337 19.4067C3.89041 20.3337 5.14447 20.8596 6.45545 20.871C7.76644 20.8824 9.02945 20.3784 9.97246 19.4676L11.6825 17.7576" stroke="#7076A6" stroke-width="2" stroke-linecap="round" stroke-linejoin="round"/>
</svg>
