<svg width="23" height="23" viewBox="0 0 23 23" fill="none" xmlns="http://www.w3.org/2000/svg">
<path d="M9.4425 12.3126C9.87196 12.8867 10.4199 13.3617 11.0491 13.7055C11.6782 14.0493 12.374 14.2537 13.0892 14.3049C13.8043 14.3561 14.5221 14.2529 15.1939 14.0023C15.8656 13.7518 16.4756 13.3596 16.9825 12.8526L19.9825 9.85256C20.8933 8.90955 21.3973 7.64653 21.3859 6.33555C21.3745 5.02457 20.8486 3.7705 19.9216 2.84346C18.9946 1.91642 17.7405 1.39058 16.4295 1.37919C15.1185 1.36779 13.8555 1.87177 12.9125 2.78256L11.1925 4.49256" stroke="#7076A6" stroke-width="2" stroke-linecap="round" stroke-linejoin="round"/>
<path d="M13.4425 10.3126C13.013 9.73844 12.4651 9.26339 11.8359 8.91963C11.2067 8.57588 10.511 8.37146 9.79581 8.32024C9.08067 8.26902 8.36287 8.37221 7.69111 8.62279C7.01936 8.87338 6.40935 9.2655 5.90246 9.77257L2.90246 12.7726C1.99167 13.7156 1.4877 14.9786 1.49909 16.2896C1.51048 17.6006 2.03633 18.8546 2.96337 19.7817C3.89041 20.7087 5.14447 21.2346 6.45545 21.2459C7.76644 21.2573 9.02945 20.7534 9.97246 19.8426L11.6825 18.1326" stroke="#7076A6" stroke-width="2" stroke-linecap="round" stroke-linejoin="round"/>
</svg>
