<svg width="54" height="53" viewBox="0 0 54 53" fill="none" xmlns="http://www.w3.org/2000/svg">
<circle cx="26.9966" cy="26.4268" r="26.2168" fill="#FFE3B9"/>
<path d="M34.0757 17.5494L23.1653 20.7713C22.9438 20.8409 22.7503 20.9793 22.6129 21.1664C22.4755 21.3535 22.4013 21.5795 22.4012 21.8116V30.7252C22.0439 30.6385 21.6777 30.5936 21.31 30.5916C19.5028 30.5916 18.0366 31.5688 18.0366 32.7738C18.0366 33.9789 19.5028 34.9561 21.31 34.9561C23.1172 34.9561 24.5835 33.9789 24.5835 32.7738V24.8058L33.3126 22.2484V28.5433C32.9553 28.4563 32.5891 28.4113 32.2214 28.4093C30.4142 28.4093 28.948 29.3865 28.948 30.5916C28.948 31.7966 30.4142 32.7738 32.2214 32.7738C34.0286 32.7738 35.4948 31.7969 35.4948 30.5916V18.589C35.4947 18.4177 35.4542 18.2489 35.3767 18.0961C35.2991 17.9434 35.1867 17.8111 35.0485 17.7098C34.9104 17.6086 34.7503 17.5413 34.5813 17.5134C34.4123 17.4856 34.2391 17.4979 34.0757 17.5494Z" fill="#E16347"/>
</svg>
