<svg width="1004" height="87" viewBox="0 0 1004 87" fill="none" xmlns="http://www.w3.org/2000/svg">
<rect x="0.832153" y="0.416687" width="1002.23" height="86.2083" rx="12" fill="white"/>
<rect x="1.33215" y="0.916687" width="1001.23" height="85.2083" rx="11.5" stroke="#30387D" stroke-opacity="0.24"/>
<circle cx="890.225" cy="43.5209" r="24.8441" fill="white"/>
<circle cx="890.225" cy="43.5209" r="24.3441" stroke="#30387D" stroke-opacity="0.32"/>
<path d="M895.311 34.4352C895.574 34.1725 895.886 33.9642 896.229 33.8221C896.572 33.6799 896.94 33.6068 897.311 33.6068C897.683 33.6068 898.051 33.6799 898.394 33.8221C898.737 33.9642 899.049 34.1725 899.311 34.4352C899.574 34.6978 899.782 35.0096 899.924 35.3528C900.067 35.6959 900.14 36.0637 900.14 36.4352C900.14 36.8066 900.067 37.1744 899.924 37.5176C899.782 37.8607 899.574 38.1725 899.311 38.4352L885.811 51.9352L880.311 53.4352L881.811 47.9352L895.311 34.4352Z" stroke="#30387D" stroke-opacity="0.69" stroke-width="2" stroke-linecap="round" stroke-linejoin="round"/>
<circle cx="954.698" cy="43.5209" r="24.8441" fill="white"/>
<circle cx="954.698" cy="43.5209" r="24.3441" stroke="#30387D" stroke-opacity="0.32"/>
<path d="M945.698 37.5209H947.698H963.698" stroke="#EB4335" stroke-width="2" stroke-linecap="round" stroke-linejoin="round"/>
<path d="M950.698 37.5209V35.5209C950.698 34.9905 950.908 34.4818 951.284 34.1067C951.659 33.7316 952.167 33.5209 952.698 33.5209H956.698C957.228 33.5209 957.737 33.7316 958.112 34.1067C958.487 34.4818 958.698 34.9905 958.698 35.5209V37.5209M961.698 37.5209V51.5209C961.698 52.0514 961.487 52.5601 961.112 52.9351C960.737 53.3102 960.228 53.5209 959.698 53.5209H949.698C949.167 53.5209 948.659 53.3102 948.284 52.9351C947.908 52.5601 947.698 52.0514 947.698 51.5209V37.5209H961.698Z" stroke="#EB4335" stroke-width="2" stroke-linecap="round" stroke-linejoin="round"/>
<path d="M952.698 42.5209V48.5209" stroke="#EB4335" stroke-width="2" stroke-linecap="round" stroke-linejoin="round"/>
<path d="M956.698 42.5209V48.5209" stroke="#EB4335" stroke-width="2" stroke-linecap="round" stroke-linejoin="round"/>
<circle cx="825.753" cy="43.5209" r="24.8441" fill="white"/>
<circle cx="825.753" cy="43.5209" r="24.3441" stroke="#30387D" stroke-opacity="0.32"/>
<path d="M833.753 40.5209H824.753C823.648 40.5209 822.753 41.4164 822.753 42.5209V51.5209C822.753 52.6255 823.648 53.5209 824.753 53.5209H833.753C834.857 53.5209 835.753 52.6255 835.753 51.5209V42.5209C835.753 41.4164 834.857 40.5209 833.753 40.5209Z" stroke="#7076A6" stroke-width="2" stroke-linecap="round" stroke-linejoin="round"/>
<path d="M818.753 46.5209H817.753C817.222 46.5209 816.714 46.3102 816.339 45.9351C815.964 45.5601 815.753 45.0514 815.753 44.5209V35.5209C815.753 34.9905 815.964 34.4818 816.339 34.1067C816.714 33.7316 817.222 33.5209 817.753 33.5209H826.753C827.283 33.5209 827.792 33.7316 828.167 34.1067C828.542 34.4818 828.753 34.9905 828.753 35.5209V36.5209" stroke="#7076A6" stroke-width="2" stroke-linecap="round" stroke-linejoin="round"/>
<circle cx="760.018" cy="43.5209" r="24.8441" fill="white"/>
<circle cx="760.018" cy="43.5209" r="24.3441" stroke="#30387D" stroke-opacity="0.32"/>
<path d="M766.018 39.5209C767.674 39.5209 769.018 38.1778 769.018 36.5209C769.018 34.8641 767.674 33.5209 766.018 33.5209C764.361 33.5209 763.018 34.8641 763.018 36.5209C763.018 38.1778 764.361 39.5209 766.018 39.5209Z" stroke="#7076A6" stroke-width="2" stroke-linecap="round" stroke-linejoin="round"/>
<path d="M754.018 46.5209C755.674 46.5209 757.018 45.1778 757.018 43.5209C757.018 41.8641 755.674 40.5209 754.018 40.5209C752.361 40.5209 751.018 41.8641 751.018 43.5209C751.018 45.1778 752.361 46.5209 754.018 46.5209Z" stroke="#7076A6" stroke-width="2" stroke-linecap="round" stroke-linejoin="round"/>
<path d="M766.018 53.5209C767.674 53.5209 769.018 52.1778 769.018 50.5209C769.018 48.8641 767.674 47.5209 766.018 47.5209C764.361 47.5209 763.018 48.8641 763.018 50.5209C763.018 52.1778 764.361 53.5209 766.018 53.5209Z" stroke="#7076A6" stroke-width="2" stroke-linecap="round" stroke-linejoin="round"/>
<path d="M756.608 45.0309L763.438 49.0109" stroke="#7076A6" stroke-width="2" stroke-linecap="round" stroke-linejoin="round"/>
<path d="M763.428 38.0309L756.608 42.0109" stroke="#7076A6" stroke-width="2" stroke-linecap="round" stroke-linejoin="round"/>
</svg>
