<svg width="23" height="23" viewBox="0 0 23 23" fill="none" xmlns="http://www.w3.org/2000/svg">
<path d="M9.4425 12.5209C9.87196 13.095 10.4199 13.5701 11.0491 13.9138C11.6782 14.2576 12.374 14.462 13.0892 14.5132C13.8043 14.5645 14.5221 14.4613 15.1939 14.2107C15.8656 13.9601 16.4756 13.568 16.9825 13.0609L19.9825 10.0609C20.8933 9.11789 21.3973 7.85488 21.3859 6.54389C21.3745 5.23291 20.8486 3.97885 19.9216 3.05181C18.9946 2.12477 17.7405 1.59892 16.4295 1.58753C15.1185 1.57614 13.8555 2.08011 12.9125 2.9909L11.1925 4.7009" stroke="#7076A6" stroke-width="2" stroke-linecap="round" stroke-linejoin="round"/>
<path d="M13.4425 10.5209C13.013 9.94679 12.4651 9.47173 11.8359 9.12798C11.2067 8.78422 10.511 8.5798 9.79581 8.52858C9.08067 8.47737 8.36287 8.58055 7.69111 8.83113C7.01936 9.08172 6.40935 9.47385 5.90246 9.98092L2.90246 12.9809C1.99167 13.9239 1.4877 15.1869 1.49909 16.4979C1.51048 17.8089 2.03633 19.063 2.96337 19.99C3.89041 20.917 5.14447 21.4429 6.45545 21.4543C7.76644 21.4657 9.02945 20.9617 9.97246 20.0509L11.6825 18.3409" stroke="#7076A6" stroke-width="2" stroke-linecap="round" stroke-linejoin="round"/>
</svg>
