<svg width="23" height="23" viewBox="0 0 23 23" fill="none" xmlns="http://www.w3.org/2000/svg">
<path d="M9.4425 12.7292C9.87196 13.3033 10.4199 13.7784 11.0491 14.1222C11.6782 14.4659 12.374 14.6703 13.0892 14.7215C13.8043 14.7728 14.5221 14.6696 15.1939 14.419C15.8656 14.1684 16.4756 13.7763 16.9825 13.2692L19.9825 10.2692C20.8933 9.3262 21.3973 8.06319 21.3859 6.75221C21.3745 5.44122 20.8486 4.18716 19.9216 3.26012C18.9946 2.33308 17.7405 1.80724 16.4295 1.79584C15.1185 1.78445 13.8555 2.28842 12.9125 3.19921L11.1925 4.90921" stroke="#7076A6" stroke-width="2" stroke-linecap="round" stroke-linejoin="round"/>
<path d="M13.4425 10.7292C13.013 10.1551 12.4651 9.68005 11.8359 9.33629C11.2067 8.99253 10.511 8.78811 9.79581 8.7369C9.08067 8.68568 8.36287 8.78886 7.69111 9.03945C7.01936 9.29003 6.40935 9.68216 5.90246 10.1892L2.90246 13.1892C1.99167 14.1322 1.4877 15.3953 1.49909 16.7062C1.51048 18.0172 2.03633 19.2713 2.96337 20.1983C3.89041 21.1254 5.14447 21.6512 6.45545 21.6626C7.76644 21.674 9.02945 21.17 9.97246 20.2592L11.6825 18.5492" stroke="#7076A6" stroke-width="2" stroke-linecap="round" stroke-linejoin="round"/>
</svg>
