<svg width="54" height="54" viewBox="0 0 54 54" fill="none" xmlns="http://www.w3.org/2000/svg">
<circle cx="26.9755" cy="27.1208" r="26.2168" fill="#FFB9D6"/>
<path d="M38.267 17.0839H20.7024C20.3697 17.0839 20.0505 17.2161 19.8153 17.4514C19.58 17.6867 19.4478 18.0058 19.4478 18.3385V22.1024H25.7209V19.5931H33.2485V32.1393H38.267C38.5998 32.1393 38.9189 32.0071 39.1542 31.7718C39.3894 31.5365 39.5216 31.2174 39.5216 30.8847V18.3385C39.5216 18.0058 39.3894 17.6867 39.1542 17.4514C38.9189 17.2161 38.5998 17.0839 38.267 17.0839V17.0839ZM23.5253 21.1222C23.5253 21.2158 23.4881 21.3055 23.4219 21.3717C23.3558 21.4379 23.266 21.4751 23.1724 21.4751H21.9962C21.9026 21.4751 21.8129 21.4379 21.7467 21.3717C21.6805 21.3055 21.6434 21.2158 21.6434 21.1222V19.946C21.6434 19.8524 21.6805 19.7627 21.7467 19.6965C21.8129 19.6303 21.9026 19.5931 21.9962 19.5931H23.1724C23.266 19.5931 23.3558 19.6303 23.4219 19.6965C23.4881 19.7627 23.5253 19.8524 23.5253 19.946V21.1222ZM37.326 29.2772C37.326 29.3708 37.2889 29.4605 37.2227 29.5267C37.1565 29.5929 37.0668 29.6301 36.9732 29.6301H35.797C35.7034 29.6301 35.6137 29.5929 35.5475 29.5267C35.4813 29.4605 35.4441 29.3708 35.4441 29.2772V28.101C35.4441 28.0074 35.4813 27.9177 35.5475 27.8515C35.6137 27.7853 35.7034 27.7481 35.797 27.7481H36.9732C37.0668 27.7481 37.1565 27.7853 37.2227 27.8515C37.2889 27.9177 37.326 28.0074 37.326 28.101V29.2772ZM37.326 25.1997C37.326 25.2933 37.2889 25.383 37.2227 25.4492C37.1565 25.5154 37.0668 25.5526 36.9732 25.5526H35.797C35.7034 25.5526 35.6137 25.5154 35.5475 25.4492C35.4813 25.383 35.4441 25.2933 35.4441 25.1997V24.0235C35.4441 23.9299 35.4813 23.8402 35.5475 23.774C35.6137 23.7078 35.7034 23.6706 35.797 23.6706H36.9732C37.0668 23.6706 37.1565 23.7078 37.2227 23.774C37.2889 23.8402 37.326 23.9299 37.326 24.0235V25.1997ZM37.326 21.1222C37.326 21.2158 37.2889 21.3055 37.2227 21.3717C37.1565 21.4379 37.0668 21.4751 36.9732 21.4751H35.797C35.7034 21.4751 35.6137 21.4379 35.5475 21.3717C35.4813 21.3055 35.4441 21.2158 35.4441 21.1222V19.946C35.4441 19.8524 35.4813 19.7627 35.5475 19.6965C35.6137 19.6303 35.7034 19.5931 35.797 19.5931H36.9732C37.0668 19.5931 37.1565 19.6303 37.2227 19.6965C37.2889 19.7627 37.326 19.8524 37.326 19.946V21.1222ZM30.7393 23.357H15.6839C15.3512 23.357 15.0321 23.4892 14.7968 23.7244C14.5615 23.9597 14.4293 24.2788 14.4293 24.6116V35.9031C14.4293 36.2359 14.5615 36.555 14.7968 36.7903C15.0321 37.0256 15.3512 37.1577 15.6839 37.1577H30.7393C31.0721 37.1577 31.3912 37.0256 31.6265 36.7903C31.8618 36.555 31.9939 36.2359 31.9939 35.9031V24.6116C31.9939 24.2788 31.8618 23.9597 31.6265 23.7244C31.3912 23.4892 31.0721 23.357 30.7393 23.357ZM18.1932 25.8662C18.4413 25.8662 18.6839 25.9398 18.8902 26.0776C19.0965 26.2155 19.2573 26.4114 19.3523 26.6407C19.4472 26.87 19.4721 27.1222 19.4237 27.3656C19.3753 27.609 19.2558 27.8325 19.0803 28.008C18.9049 28.1834 18.6813 28.3029 18.4379 28.3513C18.1946 28.3997 17.9423 28.3749 17.713 28.2799C17.4838 28.185 17.2879 28.0242 17.15 27.8178C17.0121 27.6115 16.9386 27.369 16.9386 27.1208C16.9386 26.7881 17.0707 26.469 17.306 26.2337C17.5413 25.9984 17.8604 25.8662 18.1932 25.8662ZM29.4847 34.6485H16.9386V33.3939L19.4478 30.8847L20.7024 32.1393L25.7209 27.1208L29.4847 30.8847V34.6485Z" fill="#BC45A2"/>
</svg>
