<svg width="54" height="54" viewBox="0 0 54 54" fill="none" xmlns="http://www.w3.org/2000/svg">
<circle cx="26.9755" cy="26.8148" r="26.2168" fill="#FFB9D6"/>
<path d="M38.267 16.7779H20.7024C20.3697 16.7779 20.0505 16.9101 19.8152 17.1454C19.58 17.3807 19.4478 17.6998 19.4478 18.0325V21.7964H25.7209V19.2871H33.2485V31.8333H38.267C38.5998 31.8333 38.9189 31.7011 39.1542 31.4658C39.3894 31.2305 39.5216 30.9114 39.5216 30.5787V18.0325C39.5216 17.6998 39.3894 17.3807 39.1542 17.1454C38.9189 16.9101 38.5998 16.7779 38.267 16.7779V16.7779ZM23.5253 20.8162C23.5253 20.9098 23.4881 20.9995 23.4219 21.0657C23.3558 21.1319 23.266 21.169 23.1724 21.169H21.9962C21.9026 21.169 21.8129 21.1319 21.7467 21.0657C21.6805 20.9995 21.6434 20.9098 21.6434 20.8162V19.64C21.6434 19.5464 21.6805 19.4567 21.7467 19.3905C21.8129 19.3243 21.9026 19.2871 21.9962 19.2871H23.1724C23.266 19.2871 23.3558 19.3243 23.4219 19.3905C23.4881 19.4567 23.5253 19.5464 23.5253 19.64V20.8162ZM37.326 28.9712C37.326 29.0648 37.2889 29.1545 37.2227 29.2207C37.1565 29.2869 37.0668 29.324 36.9732 29.324H35.797C35.7034 29.324 35.6136 29.2869 35.5475 29.2207C35.4813 29.1545 35.4441 29.0648 35.4441 28.9712V27.795C35.4441 27.7014 35.4813 27.6116 35.5475 27.5455C35.6136 27.4793 35.7034 27.4421 35.797 27.4421H36.9732C37.0668 27.4421 37.1565 27.4793 37.2227 27.5455C37.2889 27.6116 37.326 27.7014 37.326 27.795V28.9712ZM37.326 24.8937C37.326 24.9873 37.2889 25.077 37.2227 25.1432C37.1565 25.2094 37.0668 25.2465 36.9732 25.2465H35.797C35.7034 25.2465 35.6136 25.2094 35.5475 25.1432C35.4813 25.077 35.4441 24.9873 35.4441 24.8937V23.7175C35.4441 23.6239 35.4813 23.5342 35.5475 23.468C35.6136 23.4018 35.7034 23.3646 35.797 23.3646H36.9732C37.0668 23.3646 37.1565 23.4018 37.2227 23.468C37.2889 23.5342 37.326 23.6239 37.326 23.7175V24.8937ZM37.326 20.8162C37.326 20.9098 37.2889 20.9995 37.2227 21.0657C37.1565 21.1319 37.0668 21.169 36.9732 21.169H35.797C35.7034 21.169 35.6136 21.1319 35.5475 21.0657C35.4813 20.9995 35.4441 20.9098 35.4441 20.8162V19.64C35.4441 19.5464 35.4813 19.4567 35.5475 19.3905C35.6136 19.3243 35.7034 19.2871 35.797 19.2871H36.9732C37.0668 19.2871 37.1565 19.3243 37.2227 19.3905C37.2889 19.4567 37.326 19.5464 37.326 19.64V20.8162ZM30.7393 23.051H15.6839C15.3512 23.051 15.0321 23.1832 14.7968 23.4184C14.5615 23.6537 14.4293 23.9728 14.4293 24.3056V35.5971C14.4293 35.9299 14.5615 36.249 14.7968 36.4843C15.0321 36.7196 15.3512 36.8517 15.6839 36.8517H30.7393C31.0721 36.8517 31.3912 36.7196 31.6265 36.4843C31.8617 36.249 31.9939 35.9299 31.9939 35.5971V24.3056C31.9939 23.9728 31.8617 23.6537 31.6265 23.4184C31.3912 23.1832 31.0721 23.051 30.7393 23.051ZM18.1932 25.5602C18.4413 25.5602 18.6839 25.6338 18.8902 25.7716C19.0965 25.9095 19.2573 26.1054 19.3523 26.3347C19.4472 26.5639 19.4721 26.8162 19.4237 27.0596C19.3753 27.303 19.2558 27.5265 19.0803 27.702C18.9049 27.8774 18.6813 27.9969 18.4379 28.0453C18.1946 28.0937 17.9423 28.0689 17.713 27.9739C17.4838 27.879 17.2879 27.7182 17.15 27.5118C17.0121 27.3055 16.9386 27.063 16.9386 26.8148C16.9386 26.4821 17.0707 26.163 17.306 25.9277C17.5413 25.6924 17.8604 25.5602 18.1932 25.5602ZM29.4847 34.3425H16.9386V33.0879L19.4478 30.5787L20.7024 31.8333L25.7209 26.8148L29.4847 30.5787V34.3425Z" fill="#BC45A2"/>
</svg>
