<svg width="54" height="54" viewBox="0 0 54 54" fill="none" xmlns="http://www.w3.org/2000/svg">
<circle cx="26.9966" cy="27.1208" r="26.2168" fill="#FFE3B9"/>
<path d="M34.0757 18.2434L23.1653 21.4653C22.9438 21.5349 22.7503 21.6733 22.6129 21.8604C22.4755 22.0475 22.4013 22.2735 22.4012 22.5057V31.4192C22.0439 31.3325 21.6777 31.2877 21.31 31.2856C19.5028 31.2856 18.0366 32.2628 18.0366 33.4679C18.0366 34.6729 19.5028 35.6501 21.31 35.6501C23.1172 35.6501 24.5835 34.6729 24.5835 33.4679V25.4998L33.3126 22.9425V29.2373C32.9553 29.1503 32.5891 29.1053 32.2214 29.1033C30.4142 29.1033 28.948 30.0806 28.948 31.2856C28.948 32.4906 30.4142 33.4679 32.2214 33.4679C34.0286 33.4679 35.4948 32.4909 35.4948 31.2856V19.283C35.4947 19.1118 35.4542 18.9429 35.3767 18.7902C35.2991 18.6374 35.1867 18.5051 35.0485 18.4038C34.9104 18.3026 34.7503 18.2353 34.5813 18.2075C34.4123 18.1796 34.2391 18.1919 34.0757 18.2434Z" fill="#E16347"/>
</svg>
