<svg width="76" height="76" viewBox="0 0 76 76" fill="none" xmlns="http://www.w3.org/2000/svg">
<circle cx="37.6791" cy="37.7381" r="37.5422" fill="#FFF8B9"/>
<path d="M40.0163 30.1473V21.7841H27.7175C26.8996 21.7841 26.2416 22.4421 26.2416 23.26V51.7933C26.2416 52.6112 26.8996 53.2692 27.7175 53.2692H48.3796C49.1974 53.2692 49.8554 52.6112 49.8554 51.7933V31.6232H41.4922C40.6805 31.6232 40.0163 30.9591 40.0163 30.1473ZM43.952 44.66C43.952 45.0658 43.6199 45.3979 43.214 45.3979H32.883C32.4771 45.3979 32.1451 45.0658 32.1451 44.66V44.168C32.1451 43.7622 32.4771 43.4301 32.883 43.4301H43.214C43.6199 43.4301 43.952 43.7622 43.952 44.168V44.66ZM43.952 40.7243C43.952 41.1302 43.6199 41.4623 43.214 41.4623H32.883C32.4771 41.4623 32.1451 41.1302 32.1451 40.7243V40.2324C32.1451 39.8265 32.4771 39.4945 32.883 39.4945H43.214C43.6199 39.4945 43.952 39.8265 43.952 40.2324V40.7243ZM43.952 36.2968V36.7887C43.952 37.1946 43.6199 37.5266 43.214 37.5266H32.883C32.4771 37.5266 32.1451 37.1946 32.1451 36.7887V36.2968C32.1451 35.8909 32.4771 35.5588 32.883 35.5588H43.214C43.6199 35.5588 43.952 35.8909 43.952 36.2968ZM49.8554 29.2803V29.6554H41.9842V21.7841H42.3593C42.7528 21.7841 43.1279 21.9379 43.4047 22.2146L49.425 28.241C49.7017 28.5177 49.8554 28.8929 49.8554 29.2803Z" fill="#AEA551"/>
</svg>
