<svg width="76" height="76" viewBox="0 0 76 76" fill="none" xmlns="http://www.w3.org/2000/svg">
<circle cx="37.716" cy="38.2846" r="37.5422" fill="#B9EAFF"/>
<path d="M54.1272 36.7406H52.3782C51.8565 35.5548 51.0976 34.5054 50.1608 33.6279L51.2814 29.1516H49.3841C47.641 29.1516 46.0995 29.952 45.0561 31.1852C44.6055 31.12 44.1608 31.0489 43.6924 31.0489H36.1035C31.5146 31.0489 27.6905 34.3097 26.8071 38.6378H24.2458C23.3683 38.6378 22.6746 37.8374 22.8525 36.9303C22.9829 36.2544 23.6173 35.7919 24.3051 35.7919H24.3644C24.56 35.7919 24.7201 35.6319 24.7201 35.4362V34.2504C24.7201 34.0548 24.56 33.8947 24.3644 33.8947C22.6746 33.8947 21.1687 35.1042 20.9553 36.7761C20.6944 38.8038 22.2715 40.535 24.2458 40.535H26.6173C26.6173 43.6299 28.1233 46.3512 30.4118 48.0825V52.867C30.4118 53.3888 30.8387 53.8157 31.3604 53.8157H35.1549C35.6766 53.8157 36.1035 53.3888 36.1035 52.867V50.0212H43.6924V52.867C43.6924 53.3888 44.1193 53.8157 44.641 53.8157H48.4355C48.9572 53.8157 49.3841 53.3888 49.3841 52.867V48.0825C50.0837 47.5548 50.7063 46.9323 51.2399 46.2267H54.1272C54.6489 46.2267 55.0758 45.7998 55.0758 45.2781V37.6892C55.0758 37.1674 54.6489 36.7406 54.1272 36.7406ZM46.5383 40.535C46.0165 40.535 45.5897 40.1081 45.5897 39.5864C45.5897 39.0647 46.0165 38.6378 46.5383 38.6378C47.06 38.6378 47.4869 39.0647 47.4869 39.5864C47.4869 40.1081 47.06 40.535 46.5383 40.535ZM36.1035 29.1516H43.6924C44.0126 29.1516 44.3268 29.1753 44.6351 29.1991C44.6351 29.1813 44.641 29.1694 44.641 29.1516C44.641 26.0093 42.0916 23.4599 38.9493 23.4599C35.8071 23.4599 33.2576 26.0093 33.2576 29.1516C33.2576 29.2761 33.2873 29.3947 33.2932 29.5192C34.1944 29.288 35.1312 29.1516 36.1035 29.1516Z" fill="#5698B5"/>
</svg>
