<svg width="76" height="76" viewBox="0 0 76 76" fill="none" xmlns="http://www.w3.org/2000/svg">
<circle cx="38.4475" cy="38.3478" r="37.5422" fill="#FFB9D6"/>
<path d="M54.6168 23.9751H29.4644C28.9879 23.9751 28.531 24.1644 28.194 24.5013C27.8571 24.8382 27.6678 25.2952 27.6678 25.7717V31.1615H36.6508V27.5683H47.4304V45.5342H54.6168C55.0933 45.5342 55.5502 45.3449 55.8872 45.008C56.2241 44.6711 56.4134 44.2141 56.4134 43.7376V25.7717C56.4134 25.2952 56.2241 24.8382 55.8872 24.5013C55.5502 24.1644 55.0933 23.9751 54.6168 23.9751V23.9751ZM33.5068 29.7579C33.5068 29.8919 33.4535 30.0204 33.3588 30.1152C33.264 30.2099 33.1355 30.2632 33.0015 30.2632H31.3172C31.1832 30.2632 31.0546 30.2099 30.9599 30.1152C30.8651 30.0204 30.8119 29.8919 30.8119 29.7579V28.0736C30.8119 27.9396 30.8651 27.811 30.9599 27.7163C31.0546 27.6215 31.1832 27.5683 31.3172 27.5683H33.0015C33.1355 27.5683 33.264 27.6215 33.3588 27.7163C33.4535 27.811 33.5068 27.9396 33.5068 28.0736V29.7579ZM53.2693 41.4357C53.2693 41.5698 53.2161 41.6983 53.1213 41.793C53.0266 41.8878 52.898 41.941 52.764 41.941H51.0797C50.9457 41.941 50.8172 41.8878 50.7224 41.793C50.6277 41.6983 50.5744 41.5698 50.5744 41.4357V39.7514C50.5744 39.6174 50.6277 39.4889 50.7224 39.3941C50.8172 39.2994 50.9457 39.2461 51.0797 39.2461H52.764C52.898 39.2461 53.0266 39.2994 53.1213 39.3941C53.2161 39.4889 53.2693 39.6174 53.2693 39.7514V41.4357ZM53.2693 35.5968C53.2693 35.7308 53.2161 35.8593 53.1213 35.9541C53.0266 36.0489 52.898 36.1021 52.764 36.1021H51.0797C50.9457 36.1021 50.8172 36.0489 50.7224 35.9541C50.6277 35.8593 50.5744 35.7308 50.5744 35.5968V33.9125C50.5744 33.7785 50.6277 33.65 50.7224 33.5552C50.8172 33.4604 50.9457 33.4072 51.0797 33.4072H52.764C52.898 33.4072 53.0266 33.4604 53.1213 33.5552C53.2161 33.65 53.2693 33.7785 53.2693 33.9125V35.5968ZM53.2693 29.7579C53.2693 29.8919 53.2161 30.0204 53.1213 30.1152C53.0266 30.2099 52.898 30.2632 52.764 30.2632H51.0797C50.9457 30.2632 50.8172 30.2099 50.7224 30.1152C50.6277 30.0204 50.5744 29.8919 50.5744 29.7579V28.0736C50.5744 27.9396 50.6277 27.811 50.7224 27.7163C50.8172 27.6215 50.9457 27.5683 51.0797 27.5683H52.764C52.898 27.5683 53.0266 27.6215 53.1213 27.7163C53.2161 27.811 53.2693 27.9396 53.2693 28.0736V29.7579ZM43.8372 32.9581H22.278C21.8016 32.9581 21.3446 33.1473 21.0077 33.4843C20.6707 33.8212 20.4814 34.2782 20.4814 34.7547V50.924C20.4814 51.4005 20.6707 51.8575 21.0077 52.1944C21.3446 52.5313 21.8016 52.7206 22.278 52.7206H43.8372C44.3137 52.7206 44.7706 52.5313 45.1076 52.1944C45.4445 51.8575 45.6338 51.4005 45.6338 50.924V34.7547C45.6338 34.2782 45.4445 33.8212 45.1076 33.4843C44.7706 33.1473 44.3137 32.9581 43.8372 32.9581ZM25.8712 36.5513C26.2266 36.5513 26.5739 36.6566 26.8694 36.854C27.1648 37.0514 27.3951 37.332 27.5311 37.6603C27.6671 37.9886 27.7026 38.3498 27.6333 38.6983C27.564 39.0469 27.3929 39.367 27.1416 39.6182C26.8904 39.8695 26.5702 40.0406 26.2217 40.1099C25.8732 40.1792 25.512 40.1437 25.1837 40.0077C24.8554 39.8717 24.5748 39.6414 24.3774 39.346C24.18 39.0505 24.0746 38.7032 24.0746 38.3478C24.0746 37.8714 24.2639 37.4144 24.6008 37.0775C24.9378 36.7405 25.3947 36.5513 25.8712 36.5513ZM42.0406 49.1274H24.0746V47.3308L27.6678 43.7376L29.4644 45.5342L36.6508 38.3478L42.0406 43.7376V49.1274Z" fill="#BC45A2"/>
</svg>
