<svg width="1004" height="87" viewBox="0 0 1004 87" fill="none" xmlns="http://www.w3.org/2000/svg">
<rect x="0.832153" y="0.041748" width="1002.23" height="86.2083" rx="12" fill="white"/>
<rect x="1.33215" y="0.541748" width="1001.23" height="85.2083" rx="11.5" stroke="#30387D" stroke-opacity="0.24"/>
<circle cx="890.225" cy="43.146" r="24.8441" fill="white"/>
<circle cx="890.225" cy="43.146" r="24.3441" stroke="#30387D" stroke-opacity="0.32"/>
<path d="M895.311 34.0602C895.574 33.7976 895.886 33.5893 896.229 33.4471C896.572 33.305 896.94 33.2318 897.311 33.2318C897.683 33.2318 898.051 33.305 898.394 33.4471C898.737 33.5893 899.049 33.7976 899.311 34.0602C899.574 34.3229 899.782 34.6347 899.924 34.9778C900.067 35.321 900.14 35.6888 900.14 36.0602C900.14 36.4317 900.067 36.7995 899.924 37.1426C899.782 37.4858 899.574 37.7976 899.311 38.0602L885.811 51.5602L880.311 53.0602L881.811 47.5602L895.311 34.0602Z" stroke="#30387D" stroke-opacity="0.69" stroke-width="2" stroke-linecap="round" stroke-linejoin="round"/>
<circle cx="954.698" cy="43.146" r="24.8441" fill="white"/>
<circle cx="954.698" cy="43.146" r="24.3441" stroke="#30387D" stroke-opacity="0.32"/>
<path d="M945.698 37.146H947.698H963.698" stroke="#EB4335" stroke-width="2" stroke-linecap="round" stroke-linejoin="round"/>
<path d="M950.698 37.146V35.146C950.698 34.6156 950.908 34.1069 951.284 33.7318C951.659 33.3567 952.167 33.146 952.698 33.146H956.698C957.228 33.146 957.737 33.3567 958.112 33.7318C958.487 34.1069 958.698 34.6156 958.698 35.146V37.146M961.698 37.146V51.146C961.698 51.6764 961.487 52.1851 961.112 52.5602C960.737 52.9353 960.228 53.146 959.698 53.146H949.698C949.167 53.146 948.659 52.9353 948.284 52.5602C947.908 52.1851 947.698 51.6764 947.698 51.146V37.146H961.698Z" stroke="#EB4335" stroke-width="2" stroke-linecap="round" stroke-linejoin="round"/>
<path d="M952.698 42.146V48.146" stroke="#EB4335" stroke-width="2" stroke-linecap="round" stroke-linejoin="round"/>
<path d="M956.698 42.146V48.146" stroke="#EB4335" stroke-width="2" stroke-linecap="round" stroke-linejoin="round"/>
<circle cx="825.753" cy="43.146" r="24.8441" fill="white"/>
<circle cx="825.753" cy="43.146" r="24.3441" stroke="#30387D" stroke-opacity="0.32"/>
<path d="M833.753 40.146H824.753C823.648 40.146 822.753 41.0414 822.753 42.146V51.146C822.753 52.2506 823.648 53.146 824.753 53.146H833.753C834.857 53.146 835.753 52.2506 835.753 51.146V42.146C835.753 41.0414 834.857 40.146 833.753 40.146Z" stroke="#7076A6" stroke-width="2" stroke-linecap="round" stroke-linejoin="round"/>
<path d="M818.753 46.146H817.753C817.222 46.146 816.714 45.9353 816.339 45.5602C815.964 45.1851 815.753 44.6764 815.753 44.146V35.146C815.753 34.6156 815.964 34.1069 816.339 33.7318C816.714 33.3567 817.222 33.146 817.753 33.146H826.753C827.283 33.146 827.792 33.3567 828.167 33.7318C828.542 34.1069 828.753 34.6156 828.753 35.146V36.146" stroke="#7076A6" stroke-width="2" stroke-linecap="round" stroke-linejoin="round"/>
<circle cx="760.018" cy="43.146" r="24.8441" fill="white"/>
<circle cx="760.018" cy="43.146" r="24.3441" stroke="#30387D" stroke-opacity="0.32"/>
<path d="M766.018 39.146C767.674 39.146 769.018 37.8029 769.018 36.146C769.018 34.4891 767.674 33.146 766.018 33.146C764.361 33.146 763.018 34.4891 763.018 36.146C763.018 37.8029 764.361 39.146 766.018 39.146Z" stroke="#7076A6" stroke-width="2" stroke-linecap="round" stroke-linejoin="round"/>
<path d="M754.018 46.146C755.674 46.146 757.018 44.8029 757.018 43.146C757.018 41.4891 755.674 40.146 754.018 40.146C752.361 40.146 751.018 41.4891 751.018 43.146C751.018 44.8029 752.361 46.146 754.018 46.146Z" stroke="#7076A6" stroke-width="2" stroke-linecap="round" stroke-linejoin="round"/>
<path d="M766.018 53.146C767.674 53.146 769.018 51.8029 769.018 50.146C769.018 48.4891 767.674 47.146 766.018 47.146C764.361 47.146 763.018 48.4891 763.018 50.146C763.018 51.8029 764.361 53.146 766.018 53.146Z" stroke="#7076A6" stroke-width="2" stroke-linecap="round" stroke-linejoin="round"/>
<path d="M756.608 44.656L763.438 48.636" stroke="#7076A6" stroke-width="2" stroke-linecap="round" stroke-linejoin="round"/>
<path d="M763.428 37.656L756.608 41.636" stroke="#7076A6" stroke-width="2" stroke-linecap="round" stroke-linejoin="round"/>
</svg>
