<svg width="308" height="308" viewBox="0 0 308 308" fill="none" xmlns="http://www.w3.org/2000/svg">
<g filter="url(#filter0_d_18_1372)">
<circle cx="153.73" cy="136.459" r="28.6787" fill="white"/>
</g>
<path fill-rule="evenodd" clip-rule="evenodd" d="M159.076 125.575C160.494 126.993 161.291 128.916 161.291 130.921C161.291 139.742 165.071 142.262 165.071 142.262H142.389C142.389 142.262 146.169 139.742 146.169 130.921C146.169 128.916 146.966 126.993 148.384 125.575C149.802 124.157 151.725 123.36 153.73 123.36C155.735 123.36 157.658 124.157 159.076 125.575ZM152.415 146.801C152.138 146.323 151.526 146.16 151.048 146.438C150.57 146.715 150.408 147.327 150.685 147.804C150.994 148.338 151.438 148.781 151.973 149.088C152.507 149.396 153.113 149.558 153.73 149.558C154.347 149.558 154.952 149.396 155.487 149.088C156.021 148.781 156.465 148.338 156.775 147.804C157.052 147.327 156.889 146.715 156.412 146.438C155.934 146.16 155.322 146.323 155.045 146.801C154.911 147.031 154.719 147.222 154.489 147.355C154.258 147.488 153.996 147.558 153.73 147.558C153.464 147.558 153.202 147.488 152.971 147.355C152.74 147.222 152.548 147.031 152.415 146.801Z" fill="#6A82FF"/>
<defs>
<filter id="filter0_d_18_1372" x="0.0511475" y="0.520176" width="307.357" height="307.357" filterUnits="userSpaceOnUse" color-interpolation-filters="sRGB">
<feFlood flood-opacity="0" result="BackgroundImageFix"/>
<feColorMatrix in="SourceAlpha" type="matrix" values="0 0 0 0 0 0 0 0 0 0 0 0 0 0 0 0 0 0 127 0" result="hardAlpha"/>
<feOffset dy="17.7395"/>
<feGaussianBlur stdDeviation="62.5"/>
<feComposite in2="hardAlpha" operator="out"/>
<feColorMatrix type="matrix" values="0 0 0 0 0.188472 0 0 0 0 0.218792 0 0 0 0 0.491667 0 0 0 0.32 0"/>
<feBlend mode="normal" in2="BackgroundImageFix" result="effect1_dropShadow_18_1372"/>
<feBlend mode="normal" in="SourceGraphic" in2="effect1_dropShadow_18_1372" result="shape"/>
</filter>
</defs>
</svg>
