<svg width="76" height="76" viewBox="0 0 76 76" fill="none" xmlns="http://www.w3.org/2000/svg">
<circle cx="37.6422" cy="38.1081" r="37.5422" fill="#C3FFB9"/>
<path d="M51.8427 44.7421V23.7471C51.8427 22.916 51.1741 22.2474 50.3431 22.2474H29.848C26.5363 22.2474 23.8494 24.9343 23.8494 28.246V48.2412C23.8494 51.5529 26.5363 54.2398 29.848 54.2398H50.3431C51.1741 54.2398 51.8427 53.5712 51.8427 52.7401V51.7404C51.8427 51.2717 51.624 50.8468 51.2866 50.5719C51.0241 49.6096 51.0241 46.8666 51.2866 45.9043C51.624 45.6356 51.8427 45.2107 51.8427 44.7421ZM31.8475 30.6204C31.8475 30.4142 32.0162 30.2455 32.2224 30.2455H45.4692C45.6754 30.2455 45.8441 30.4142 45.8441 30.6204V31.8701C45.8441 32.0763 45.6754 32.245 45.4692 32.245H32.2224C32.0162 32.245 31.8475 32.0763 31.8475 31.8701V30.6204ZM31.8475 34.6195C31.8475 34.4133 32.0162 34.2446 32.2224 34.2446H45.4692C45.6754 34.2446 45.8441 34.4133 45.8441 34.6195V35.8692C45.8441 36.0754 45.6754 36.2441 45.4692 36.2441H32.2224C32.0162 36.2441 31.8475 36.0754 31.8475 35.8692V34.6195ZM47.6812 50.2407H29.848C28.742 50.2407 27.8484 49.3472 27.8484 48.2412C27.8484 47.1415 28.7482 46.2417 29.848 46.2417H47.6812C47.5625 47.3102 47.5625 49.1722 47.6812 50.2407Z" fill="#52A944"/>
</svg>
