<svg width="1105" height="301" viewBox="0 0 1105 301" fill="none" xmlns="http://www.w3.org/2000/svg">
<rect x="0.832153" y="89.6021" width="1002.23" height="86.2083" rx="12" fill="white"/>
<rect x="1.33215" y="90.1021" width="1001.23" height="85.2083" rx="11.5" stroke="#30387D" stroke-opacity="0.24"/>
<g filter="url(#filter0_d_18_939)">
<circle cx="890.225" cy="132.706" r="24.8441" fill="white"/>
<circle cx="890.225" cy="132.706" r="24.3441" stroke="#30387D" stroke-opacity="0.32"/>
</g>
<path d="M895.311 123.621C895.574 123.358 895.886 123.15 896.229 123.007C896.572 122.865 896.94 122.792 897.311 122.792C897.683 122.792 898.051 122.865 898.394 123.007C898.737 123.15 899.049 123.358 899.311 123.621C899.574 123.883 899.782 124.195 899.924 124.538C900.067 124.881 900.14 125.249 900.14 125.621C900.14 125.992 900.067 126.36 899.924 126.703C899.782 127.046 899.574 127.358 899.311 127.621L885.811 141.121L880.311 142.621L881.811 137.121L895.311 123.621Z" stroke="#30387D" stroke-opacity="0.69" stroke-width="2" stroke-linecap="round" stroke-linejoin="round"/>
<g filter="url(#filter1_d_18_939)">
<circle cx="954.698" cy="132.706" r="24.8441" fill="white"/>
<circle cx="954.698" cy="132.706" r="24.3441" stroke="#30387D" stroke-opacity="0.32"/>
</g>
<path fill-rule="evenodd" clip-rule="evenodd" d="M951.991 123.999C952.178 123.812 952.433 123.706 952.698 123.706H956.698C956.963 123.706 957.217 123.812 957.405 123.999C957.592 124.187 957.698 124.441 957.698 124.706V125.706H951.698V124.706C951.698 124.441 951.803 124.187 951.991 123.999ZM949.698 125.706V124.706C949.698 123.911 950.014 123.148 950.576 122.585C951.139 122.022 951.902 121.706 952.698 121.706H956.698C957.493 121.706 958.256 122.022 958.819 122.585C959.382 123.148 959.698 123.911 959.698 124.706V125.706H961.698H963.698C964.25 125.706 964.698 126.154 964.698 126.706C964.698 127.259 964.25 127.706 963.698 127.706H962.698V140.706C962.698 141.502 962.382 142.265 961.819 142.828C961.256 143.39 960.493 143.706 959.698 143.706H949.698C948.902 143.706 948.139 143.39 947.576 142.828C947.014 142.265 946.698 141.502 946.698 140.706V127.706H945.698C945.145 127.706 944.698 127.259 944.698 126.706C944.698 126.154 945.145 125.706 945.698 125.706H947.698H949.698ZM948.698 127.706V140.706C948.698 140.972 948.803 141.226 948.991 141.413C949.178 141.601 949.433 141.706 949.698 141.706H959.698C959.963 141.706 960.217 141.601 960.405 141.413C960.592 141.226 960.698 140.972 960.698 140.706V127.706H958.698H950.698H948.698ZM952.698 130.706C953.25 130.706 953.698 131.154 953.698 131.706V137.706C953.698 138.259 953.25 138.706 952.698 138.706C952.145 138.706 951.698 138.259 951.698 137.706V131.706C951.698 131.154 952.145 130.706 952.698 130.706ZM957.698 137.706V131.706C957.698 131.154 957.25 130.706 956.698 130.706C956.145 130.706 955.698 131.154 955.698 131.706V137.706C955.698 138.259 956.145 138.706 956.698 138.706C957.25 138.706 957.698 138.259 957.698 137.706Z" fill="#FF7777"/>
<g filter="url(#filter2_d_18_939)">
<circle cx="825.753" cy="132.706" r="24.8441" fill="white"/>
<circle cx="825.753" cy="132.706" r="24.3441" stroke="#30387D" stroke-opacity="0.32"/>
</g>
<path fill-rule="evenodd" clip-rule="evenodd" d="M817.046 123.999C817.233 123.812 817.488 123.706 817.753 123.706H826.753C827.018 123.706 827.273 123.812 827.46 123.999C827.648 124.187 827.753 124.441 827.753 124.706V125.706C827.753 126.259 828.201 126.706 828.753 126.706C829.305 126.706 829.753 126.259 829.753 125.706V124.706C829.753 123.911 829.437 123.148 828.874 122.585C828.312 122.022 827.549 121.706 826.753 121.706H817.753C816.957 121.706 816.194 122.022 815.632 122.585C815.069 123.148 814.753 123.911 814.753 124.706V133.706C814.753 134.502 815.069 135.265 815.632 135.828C816.194 136.39 816.957 136.706 817.753 136.706H818.753C819.305 136.706 819.753 136.259 819.753 135.706C819.753 135.154 819.305 134.706 818.753 134.706H817.753C817.488 134.706 817.233 134.601 817.046 134.413C816.858 134.226 816.753 133.972 816.753 133.706V124.706C816.753 124.441 816.858 124.187 817.046 123.999ZM823.753 131.706C823.753 131.154 824.201 130.706 824.753 130.706H833.753C834.305 130.706 834.753 131.154 834.753 131.706V140.706C834.753 141.259 834.305 141.706 833.753 141.706H824.753C824.201 141.706 823.753 141.259 823.753 140.706V131.706ZM824.753 128.706C823.096 128.706 821.753 130.049 821.753 131.706V140.706C821.753 142.363 823.096 143.706 824.753 143.706H833.753C835.41 143.706 836.753 142.363 836.753 140.706V131.706C836.753 130.049 835.41 128.706 833.753 128.706H824.753Z" fill="#30387D" fill-opacity="0.69"/>
<g filter="url(#filter3_d_18_939)">
<circle cx="760.018" cy="132.706" r="24.8441" fill="white"/>
<circle cx="760.018" cy="132.706" r="24.3441" stroke="#30387D" stroke-opacity="0.32"/>
</g>
<path fill-rule="evenodd" clip-rule="evenodd" d="M766.018 123.706C764.913 123.706 764.018 124.602 764.018 125.706C764.018 126.054 764.106 126.38 764.262 126.665C764.272 126.68 764.282 126.696 764.291 126.712C764.301 126.728 764.31 126.745 764.318 126.761C764.671 127.328 765.3 127.706 766.018 127.706C767.122 127.706 768.018 126.811 768.018 125.706C768.018 124.602 767.122 123.706 766.018 123.706ZM763.176 128.521C763.901 129.253 764.906 129.706 766.018 129.706C768.227 129.706 770.018 127.915 770.018 125.706C770.018 123.497 768.227 121.706 766.018 121.706C763.808 121.706 762.018 123.497 762.018 125.706C762.018 126.083 762.07 126.448 762.167 126.794L756.86 129.891C756.135 129.16 755.129 128.706 754.018 128.706C751.808 128.706 750.018 130.497 750.018 132.706C750.018 134.915 751.808 136.706 754.018 136.706C755.129 136.706 756.135 136.253 756.86 135.521L762.168 138.614C762.07 138.961 762.018 139.328 762.018 139.706C762.018 141.915 763.808 143.706 766.018 143.706C768.227 143.706 770.018 141.915 770.018 139.706C770.018 137.497 768.227 135.706 766.018 135.706C764.908 135.706 763.904 136.158 763.179 136.888L757.868 133.793C757.965 133.448 758.018 133.083 758.018 132.706C758.018 132.329 757.965 131.964 757.868 131.619L763.176 128.521ZM755.717 131.652C755.726 131.668 755.735 131.684 755.744 131.7C755.753 131.716 755.763 131.732 755.773 131.748C755.929 132.032 756.018 132.359 756.018 132.706C756.018 133.054 755.929 133.38 755.773 133.665C755.763 133.68 755.753 133.696 755.744 133.713C755.734 133.729 755.726 133.745 755.717 133.761C755.364 134.328 754.735 134.706 754.018 134.706C752.913 134.706 752.018 133.811 752.018 132.706C752.018 131.602 752.913 130.706 754.018 130.706C754.735 130.706 755.364 131.084 755.717 131.652ZM764.018 139.706C764.018 139.381 764.095 139.074 764.233 138.803C764.258 138.77 764.281 138.736 764.302 138.7C764.322 138.665 764.34 138.63 764.355 138.594C764.714 138.059 765.325 137.706 766.018 137.706C767.122 137.706 768.018 138.602 768.018 139.706C768.018 140.811 767.122 141.706 766.018 141.706C764.913 141.706 764.018 140.811 764.018 139.706Z" fill="#30387D" fill-opacity="0.69"/>
<defs>
<filter id="filter0_d_18_939" x="740.381" y="0.601719" width="299.688" height="299.688" filterUnits="userSpaceOnUse" color-interpolation-filters="sRGB">
<feFlood flood-opacity="0" result="BackgroundImageFix"/>
<feColorMatrix in="SourceAlpha" type="matrix" values="0 0 0 0 0 0 0 0 0 0 0 0 0 0 0 0 0 0 127 0" result="hardAlpha"/>
<feOffset dy="17.7395"/>
<feGaussianBlur stdDeviation="62.5"/>
<feComposite in2="hardAlpha" operator="out"/>
<feColorMatrix type="matrix" values="0 0 0 0 0.188472 0 0 0 0 0.218792 0 0 0 0 0.491667 0 0 0 0.32 0"/>
<feBlend mode="normal" in2="BackgroundImageFix" result="effect1_dropShadow_18_939"/>
<feBlend mode="normal" in="SourceGraphic" in2="effect1_dropShadow_18_939" result="shape"/>
</filter>
<filter id="filter1_d_18_939" x="804.854" y="0.601719" width="299.688" height="299.688" filterUnits="userSpaceOnUse" color-interpolation-filters="sRGB">
<feFlood flood-opacity="0" result="BackgroundImageFix"/>
<feColorMatrix in="SourceAlpha" type="matrix" values="0 0 0 0 0 0 0 0 0 0 0 0 0 0 0 0 0 0 127 0" result="hardAlpha"/>
<feOffset dy="17.7395"/>
<feGaussianBlur stdDeviation="62.5"/>
<feComposite in2="hardAlpha" operator="out"/>
<feColorMatrix type="matrix" values="0 0 0 0 0.188472 0 0 0 0 0.218792 0 0 0 0 0.491667 0 0 0 0.32 0"/>
<feBlend mode="normal" in2="BackgroundImageFix" result="effect1_dropShadow_18_939"/>
<feBlend mode="normal" in="SourceGraphic" in2="effect1_dropShadow_18_939" result="shape"/>
</filter>
<filter id="filter2_d_18_939" x="675.909" y="0.601719" width="299.688" height="299.688" filterUnits="userSpaceOnUse" color-interpolation-filters="sRGB">
<feFlood flood-opacity="0" result="BackgroundImageFix"/>
<feColorMatrix in="SourceAlpha" type="matrix" values="0 0 0 0 0 0 0 0 0 0 0 0 0 0 0 0 0 0 127 0" result="hardAlpha"/>
<feOffset dy="17.7395"/>
<feGaussianBlur stdDeviation="62.5"/>
<feComposite in2="hardAlpha" operator="out"/>
<feColorMatrix type="matrix" values="0 0 0 0 0.188472 0 0 0 0 0.218792 0 0 0 0 0.491667 0 0 0 0.32 0"/>
<feBlend mode="normal" in2="BackgroundImageFix" result="effect1_dropShadow_18_939"/>
<feBlend mode="normal" in="SourceGraphic" in2="effect1_dropShadow_18_939" result="shape"/>
</filter>
<filter id="filter3_d_18_939" x="610.174" y="0.601719" width="299.688" height="299.688" filterUnits="userSpaceOnUse" color-interpolation-filters="sRGB">
<feFlood flood-opacity="0" result="BackgroundImageFix"/>
<feColorMatrix in="SourceAlpha" type="matrix" values="0 0 0 0 0 0 0 0 0 0 0 0 0 0 0 0 0 0 127 0" result="hardAlpha"/>
<feOffset dy="17.7395"/>
<feGaussianBlur stdDeviation="62.5"/>
<feComposite in2="hardAlpha" operator="out"/>
<feColorMatrix type="matrix" values="0 0 0 0 0.188472 0 0 0 0 0.218792 0 0 0 0 0.491667 0 0 0 0.32 0"/>
<feBlend mode="normal" in2="BackgroundImageFix" result="effect1_dropShadow_18_939"/>
<feBlend mode="normal" in="SourceGraphic" in2="effect1_dropShadow_18_939" result="shape"/>
</filter>
</defs>
</svg>
