<svg width="76" height="76" viewBox="0 0 76 76" fill="none" xmlns="http://www.w3.org/2000/svg">
<circle cx="38.4472" cy="38.3478" r="37.5422" fill="#FFB9D6"/>
<path d="M54.6165 23.975H29.4642C28.9877 23.975 28.5307 24.1643 28.1938 24.5012C27.8569 24.8381 27.6676 25.2951 27.6676 25.7716V31.1614H36.6506V27.5682H47.4301V45.5341H54.6165C55.093 45.5341 55.55 45.3448 55.8869 45.0079C56.2238 44.671 56.4131 44.214 56.4131 43.7375V25.7716C56.4131 25.2951 56.2238 24.8381 55.8869 24.5012C55.55 24.1643 55.093 23.975 54.6165 23.975V23.975ZM33.5065 29.7578C33.5065 29.8918 33.4533 30.0203 33.3585 30.1151C33.2638 30.2098 33.1352 30.2631 33.0012 30.2631H31.3169C31.1829 30.2631 31.0544 30.2098 30.9596 30.1151C30.8649 30.0203 30.8116 29.8918 30.8116 29.7578V28.0735C30.8116 27.9394 30.8649 27.8109 30.9596 27.7162C31.0544 27.6214 31.1829 27.5682 31.3169 27.5682H33.0012C33.1352 27.5682 33.2638 27.6214 33.3585 27.7162C33.4533 27.8109 33.5065 27.9394 33.5065 28.0735V29.7578ZM53.2691 41.4356C53.2691 41.5697 53.2158 41.6982 53.1211 41.7929C53.0263 41.8877 52.8978 41.9409 52.7638 41.9409H51.0795C50.9455 41.9409 50.8169 41.8877 50.7222 41.7929C50.6274 41.6982 50.5742 41.5697 50.5742 41.4356V39.7513C50.5742 39.6173 50.6274 39.4888 50.7222 39.394C50.8169 39.2993 50.9455 39.246 51.0795 39.246H52.7638C52.8978 39.246 53.0263 39.2993 53.1211 39.394C53.2158 39.4888 53.2691 39.6173 53.2691 39.7513V41.4356ZM53.2691 35.5967C53.2691 35.7307 53.2158 35.8592 53.1211 35.954C53.0263 36.0488 52.8978 36.102 52.7638 36.102H51.0795C50.9455 36.102 50.8169 36.0488 50.7222 35.954C50.6274 35.8592 50.5742 35.7307 50.5742 35.5967V33.9124C50.5742 33.7784 50.6274 33.6499 50.7222 33.5551C50.8169 33.4603 50.9455 33.4071 51.0795 33.4071H52.7638C52.8978 33.4071 53.0263 33.4603 53.1211 33.5551C53.2158 33.6499 53.2691 33.7784 53.2691 33.9124V35.5967ZM53.2691 29.7578C53.2691 29.8918 53.2158 30.0203 53.1211 30.1151C53.0263 30.2098 52.8978 30.2631 52.7638 30.2631H51.0795C50.9455 30.2631 50.8169 30.2098 50.7222 30.1151C50.6274 30.0203 50.5742 29.8918 50.5742 29.7578V28.0735C50.5742 27.9394 50.6274 27.8109 50.7222 27.7162C50.8169 27.6214 50.9455 27.5682 51.0795 27.5682H52.7638C52.8978 27.5682 53.0263 27.6214 53.1211 27.7162C53.2158 27.8109 53.2691 27.9394 53.2691 28.0735V29.7578ZM43.8369 32.958H22.2778C21.8013 32.958 21.3443 33.1472 21.0074 33.4842C20.6705 33.8211 20.4812 34.2781 20.4812 34.7545V50.9239C20.4812 51.4004 20.6705 51.8574 21.0074 52.1943C21.3443 52.5312 21.8013 52.7205 22.2778 52.7205H43.8369C44.3134 52.7205 44.7704 52.5312 45.1073 52.1943C45.4443 51.8574 45.6335 51.4004 45.6335 50.9239V34.7545C45.6335 34.2781 45.4443 33.8211 45.1073 33.4842C44.7704 33.1472 44.3134 32.958 43.8369 32.958ZM25.871 36.5511C26.2263 36.5511 26.5737 36.6565 26.8691 36.8539C27.1646 37.0513 27.3948 37.3319 27.5308 37.6602C27.6668 37.9885 27.7024 38.3497 27.6331 38.6982C27.5637 39.0467 27.3926 39.3669 27.1414 39.6181C26.8901 39.8694 26.57 40.0405 26.2215 40.1098C25.873 40.1791 25.5117 40.1436 25.1835 40.0076C24.8552 39.8716 24.5746 39.6413 24.3772 39.3459C24.1798 39.0504 24.0744 38.7031 24.0744 38.3477C24.0744 37.8713 24.2637 37.4143 24.6006 37.0774C24.9375 36.7404 25.3945 36.5511 25.871 36.5511ZM42.0404 49.1273H24.0744V47.3307L27.6676 43.7375L29.4642 45.5341L36.6506 38.3477L42.0404 43.7375V49.1273Z" fill="#BC45A2"/>
</svg>
