<svg width="47" height="47" viewBox="0 0 47 47" fill="none" xmlns="http://www.w3.org/2000/svg">
<circle cx="23.6138" cy="23.4158" r="23.2836" fill="#FFB9D6"/>
<path d="M33.642 14.5018H18.0425C17.747 14.5018 17.4636 14.6192 17.2547 14.8282C17.0457 15.0371 16.9283 15.3206 16.9283 15.6161V18.9588H22.4995V16.7303H29.185V27.8728H33.642C33.9375 27.8728 34.2209 27.7554 34.4299 27.5464C34.6388 27.3375 34.7562 27.0541 34.7562 26.7585V15.6161C34.7562 15.3206 34.6388 15.0371 34.4299 14.8282C34.2209 14.6192 33.9375 14.5018 33.642 14.5018V14.5018ZM20.5496 18.0883C20.5496 18.1714 20.5166 18.2511 20.4578 18.3099C20.399 18.3687 20.3193 18.4017 20.2362 18.4017H19.1916C19.1085 18.4017 19.0288 18.3687 18.97 18.3099C18.9112 18.2511 18.8782 18.1714 18.8782 18.0883V17.0437C18.8782 16.9606 18.9112 16.8809 18.97 16.8221C19.0288 16.7633 19.1085 16.7303 19.1916 16.7303H20.2362C20.3193 16.7303 20.399 16.7633 20.4578 16.8221C20.5166 16.8809 20.5496 16.9606 20.5496 17.0437V18.0883ZM32.8063 25.3309C32.8063 25.414 32.7733 25.4937 32.7145 25.5525C32.6557 25.6113 32.576 25.6443 32.4929 25.6443H31.4483C31.3652 25.6443 31.2855 25.6113 31.2267 25.5525C31.1679 25.4937 31.1349 25.414 31.1349 25.3309V24.2863C31.1349 24.2032 31.1679 24.1235 31.2267 24.0647C31.2855 24.0059 31.3652 23.9729 31.4483 23.9729H32.4929C32.576 23.9729 32.6557 24.0059 32.7145 24.0647C32.7733 24.1235 32.8063 24.2032 32.8063 24.2863V25.3309ZM32.8063 21.7096C32.8063 21.7927 32.7733 21.8724 32.7145 21.9312C32.6557 21.99 32.576 22.023 32.4929 22.023H31.4483C31.3652 22.023 31.2855 21.99 31.2267 21.9312C31.1679 21.8724 31.1349 21.7927 31.1349 21.7096V20.665C31.1349 20.5819 31.1679 20.5022 31.2267 20.4434C31.2855 20.3846 31.3652 20.3516 31.4483 20.3516H32.4929C32.576 20.3516 32.6557 20.3846 32.7145 20.4434C32.7733 20.5022 32.8063 20.5819 32.8063 20.665V21.7096ZM32.8063 18.0883C32.8063 18.1714 32.7733 18.2511 32.7145 18.3099C32.6557 18.3687 32.576 18.4017 32.4929 18.4017H31.4483C31.3652 18.4017 31.2855 18.3687 31.2267 18.3099C31.1679 18.2511 31.1349 18.1714 31.1349 18.0883V17.0437C31.1349 16.9606 31.1679 16.8809 31.2267 16.8221C31.2855 16.7633 31.3652 16.7303 31.4483 16.7303H32.4929C32.576 16.7303 32.6557 16.7633 32.7145 16.8221C32.7733 16.8809 32.8063 16.9606 32.8063 17.0437V18.0883ZM26.9565 20.0731H13.5856C13.29 20.0731 13.0066 20.1905 12.7977 20.3994C12.5887 20.6084 12.4713 20.8918 12.4713 21.1873V31.2155C12.4713 31.511 12.5887 31.7944 12.7977 32.0034C13.0066 32.2124 13.29 32.3298 13.5856 32.3298H26.9565C27.252 32.3298 27.5354 32.2124 27.7444 32.0034C27.9534 31.7944 28.0708 31.511 28.0708 31.2155V21.1873C28.0708 20.8918 27.9534 20.6084 27.7444 20.3994C27.5354 20.1905 27.252 20.0731 26.9565 20.0731ZM15.8141 22.3016C16.0344 22.3016 16.2499 22.3669 16.4331 22.4893C16.6163 22.6118 16.7591 22.7858 16.8435 22.9894C16.9278 23.193 16.9499 23.417 16.9069 23.6332C16.8639 23.8493 16.7578 24.0479 16.6019 24.2037C16.4461 24.3595 16.2476 24.4656 16.0314 24.5086C15.8153 24.5516 15.5912 24.5296 15.3876 24.4452C15.184 24.3609 15.01 24.2181 14.8876 24.0348C14.7652 23.8516 14.6998 23.6362 14.6998 23.4158C14.6998 23.1203 14.8172 22.8369 15.0262 22.6279C15.2351 22.4189 15.5185 22.3016 15.8141 22.3016ZM25.8423 30.1013H14.6998V28.987L16.9283 26.7585L18.0425 27.8728L22.4995 23.4158L25.8423 26.7585V30.1013Z" fill="#BC45A2"/>
</svg>
