<svg width="1105" height="301" viewBox="0 0 1105 301" fill="none" xmlns="http://www.w3.org/2000/svg">
<rect x="0.832153" y="89.4502" width="1002.23" height="86.2083" rx="12" fill="white"/>
<rect x="1.33215" y="89.9502" width="1001.23" height="85.2083" rx="11.5" stroke="#30387D" stroke-opacity="0.24"/>
<g filter="url(#filter0_d_18_900)">
<circle cx="890.225" cy="132.554" r="24.8441" fill="white"/>
<circle cx="890.225" cy="132.554" r="24.3441" stroke="#30387D" stroke-opacity="0.32"/>
</g>
<path d="M895.311 123.469C895.574 123.206 895.886 122.998 896.229 122.856C896.572 122.713 896.94 122.64 897.311 122.64C897.683 122.64 898.051 122.713 898.394 122.856C898.737 122.998 899.049 123.206 899.311 123.469C899.574 123.731 899.782 124.043 899.924 124.386C900.067 124.729 900.14 125.097 900.14 125.469C900.14 125.84 900.067 126.208 899.924 126.551C899.782 126.894 899.574 127.206 899.311 127.469L885.811 140.969L880.311 142.469L881.811 136.969L895.311 123.469Z" stroke="#30387D" stroke-opacity="0.69" stroke-width="2" stroke-linecap="round" stroke-linejoin="round"/>
<g filter="url(#filter1_d_18_900)">
<circle cx="954.698" cy="132.554" r="24.8441" fill="white"/>
<circle cx="954.698" cy="132.554" r="24.3441" stroke="#30387D" stroke-opacity="0.32"/>
</g>
<path fill-rule="evenodd" clip-rule="evenodd" d="M951.991 123.847C952.178 123.66 952.433 123.554 952.698 123.554H956.698C956.963 123.554 957.217 123.66 957.405 123.847C957.592 124.035 957.698 124.289 957.698 124.554V125.554H951.698V124.554C951.698 124.289 951.803 124.035 951.991 123.847ZM949.698 125.554V124.554C949.698 123.759 950.014 122.996 950.576 122.433C951.139 121.871 951.902 121.554 952.698 121.554H956.698C957.493 121.554 958.256 121.871 958.819 122.433C959.382 122.996 959.698 123.759 959.698 124.554V125.554H961.698H963.698C964.25 125.554 964.698 126.002 964.698 126.554C964.698 127.107 964.25 127.554 963.698 127.554H962.698V140.554C962.698 141.35 962.382 142.113 961.819 142.676C961.256 143.238 960.493 143.554 959.698 143.554H949.698C948.902 143.554 948.139 143.238 947.576 142.676C947.014 142.113 946.698 141.35 946.698 140.554V127.554H945.698C945.145 127.554 944.698 127.107 944.698 126.554C944.698 126.002 945.145 125.554 945.698 125.554H947.698H949.698ZM948.698 127.554V140.554C948.698 140.82 948.803 141.074 948.991 141.262C949.178 141.449 949.433 141.554 949.698 141.554H959.698C959.963 141.554 960.217 141.449 960.405 141.262C960.592 141.074 960.698 140.82 960.698 140.554V127.554H958.698H950.698H948.698ZM952.698 130.554C953.25 130.554 953.698 131.002 953.698 131.554V137.554C953.698 138.107 953.25 138.554 952.698 138.554C952.145 138.554 951.698 138.107 951.698 137.554V131.554C951.698 131.002 952.145 130.554 952.698 130.554ZM957.698 137.554V131.554C957.698 131.002 957.25 130.554 956.698 130.554C956.145 130.554 955.698 131.002 955.698 131.554V137.554C955.698 138.107 956.145 138.554 956.698 138.554C957.25 138.554 957.698 138.107 957.698 137.554Z" fill="#FF7777"/>
<g filter="url(#filter2_d_18_900)">
<circle cx="825.753" cy="132.554" r="24.8441" fill="white"/>
<circle cx="825.753" cy="132.554" r="24.3441" stroke="#30387D" stroke-opacity="0.32"/>
</g>
<path fill-rule="evenodd" clip-rule="evenodd" d="M817.046 123.847C817.233 123.66 817.488 123.554 817.753 123.554H826.753C827.018 123.554 827.273 123.66 827.46 123.847C827.648 124.035 827.753 124.289 827.753 124.554V125.554C827.753 126.107 828.201 126.554 828.753 126.554C829.305 126.554 829.753 126.107 829.753 125.554V124.554C829.753 123.759 829.437 122.996 828.874 122.433C828.312 121.871 827.549 121.554 826.753 121.554H817.753C816.957 121.554 816.194 121.871 815.632 122.433C815.069 122.996 814.753 123.759 814.753 124.554V133.554C814.753 134.35 815.069 135.113 815.632 135.676C816.194 136.238 816.957 136.554 817.753 136.554H818.753C819.305 136.554 819.753 136.107 819.753 135.554C819.753 135.002 819.305 134.554 818.753 134.554H817.753C817.488 134.554 817.233 134.449 817.046 134.262C816.858 134.074 816.753 133.82 816.753 133.554V124.554C816.753 124.289 816.858 124.035 817.046 123.847ZM823.753 131.554C823.753 131.002 824.201 130.554 824.753 130.554H833.753C834.305 130.554 834.753 131.002 834.753 131.554V140.554C834.753 141.107 834.305 141.554 833.753 141.554H824.753C824.201 141.554 823.753 141.107 823.753 140.554V131.554ZM824.753 128.554C823.096 128.554 821.753 129.898 821.753 131.554V140.554C821.753 142.211 823.096 143.554 824.753 143.554H833.753C835.41 143.554 836.753 142.211 836.753 140.554V131.554C836.753 129.898 835.41 128.554 833.753 128.554H824.753Z" fill="#30387D" fill-opacity="0.69"/>
<g filter="url(#filter3_d_18_900)">
<circle cx="760.018" cy="132.554" r="24.8441" fill="white"/>
<circle cx="760.018" cy="132.554" r="24.3441" stroke="#30387D" stroke-opacity="0.32"/>
</g>
<path fill-rule="evenodd" clip-rule="evenodd" d="M766.018 123.554C764.913 123.554 764.018 124.45 764.018 125.554C764.018 125.902 764.106 126.228 764.262 126.513C764.272 126.528 764.282 126.544 764.291 126.56C764.301 126.576 764.31 126.593 764.318 126.609C764.671 127.177 765.3 127.554 766.018 127.554C767.122 127.554 768.018 126.659 768.018 125.554C768.018 124.45 767.122 123.554 766.018 123.554ZM763.176 128.369C763.901 129.101 764.906 129.554 766.018 129.554C768.227 129.554 770.018 127.764 770.018 125.554C770.018 123.345 768.227 121.554 766.018 121.554C763.808 121.554 762.018 123.345 762.018 125.554C762.018 125.931 762.07 126.296 762.167 126.642L756.86 129.74C756.135 129.008 755.129 128.554 754.018 128.554C751.808 128.554 750.018 130.345 750.018 132.554C750.018 134.764 751.808 136.554 754.018 136.554C755.129 136.554 756.135 136.101 756.86 135.369L762.168 138.462C762.07 138.809 762.018 139.176 762.018 139.554C762.018 141.764 763.808 143.554 766.018 143.554C768.227 143.554 770.018 141.764 770.018 139.554C770.018 137.345 768.227 135.554 766.018 135.554C764.908 135.554 763.904 136.006 763.179 136.736L757.868 133.642C757.965 133.296 758.018 132.931 758.018 132.554C758.018 132.177 757.965 131.813 757.868 131.467L763.176 128.369ZM755.717 131.5C755.726 131.516 755.735 131.532 755.744 131.548C755.753 131.565 755.763 131.58 755.773 131.596C755.929 131.881 756.018 132.207 756.018 132.554C756.018 132.902 755.929 133.228 755.773 133.513C755.763 133.529 755.753 133.545 755.744 133.561C755.734 133.577 755.726 133.593 755.717 133.609C755.364 134.177 754.735 134.554 754.018 134.554C752.913 134.554 752.018 133.659 752.018 132.554C752.018 131.45 752.913 130.554 754.018 130.554C754.735 130.554 755.364 130.932 755.717 131.5ZM764.018 139.554C764.018 139.229 764.095 138.922 764.233 138.651C764.258 138.618 764.281 138.584 764.302 138.548C764.322 138.513 764.34 138.478 764.355 138.442C764.714 137.907 765.325 137.554 766.018 137.554C767.122 137.554 768.018 138.45 768.018 139.554C768.018 140.659 767.122 141.554 766.018 141.554C764.913 141.554 764.018 140.659 764.018 139.554Z" fill="#30387D" fill-opacity="0.69"/>
<defs>
<filter id="filter0_d_18_900" x="740.381" y="0.449863" width="299.688" height="299.688" filterUnits="userSpaceOnUse" color-interpolation-filters="sRGB">
<feFlood flood-opacity="0" result="BackgroundImageFix"/>
<feColorMatrix in="SourceAlpha" type="matrix" values="0 0 0 0 0 0 0 0 0 0 0 0 0 0 0 0 0 0 127 0" result="hardAlpha"/>
<feOffset dy="17.7395"/>
<feGaussianBlur stdDeviation="62.5"/>
<feComposite in2="hardAlpha" operator="out"/>
<feColorMatrix type="matrix" values="0 0 0 0 0.188472 0 0 0 0 0.218792 0 0 0 0 0.491667 0 0 0 0.32 0"/>
<feBlend mode="normal" in2="BackgroundImageFix" result="effect1_dropShadow_18_900"/>
<feBlend mode="normal" in="SourceGraphic" in2="effect1_dropShadow_18_900" result="shape"/>
</filter>
<filter id="filter1_d_18_900" x="804.854" y="0.449863" width="299.688" height="299.688" filterUnits="userSpaceOnUse" color-interpolation-filters="sRGB">
<feFlood flood-opacity="0" result="BackgroundImageFix"/>
<feColorMatrix in="SourceAlpha" type="matrix" values="0 0 0 0 0 0 0 0 0 0 0 0 0 0 0 0 0 0 127 0" result="hardAlpha"/>
<feOffset dy="17.7395"/>
<feGaussianBlur stdDeviation="62.5"/>
<feComposite in2="hardAlpha" operator="out"/>
<feColorMatrix type="matrix" values="0 0 0 0 0.188472 0 0 0 0 0.218792 0 0 0 0 0.491667 0 0 0 0.32 0"/>
<feBlend mode="normal" in2="BackgroundImageFix" result="effect1_dropShadow_18_900"/>
<feBlend mode="normal" in="SourceGraphic" in2="effect1_dropShadow_18_900" result="shape"/>
</filter>
<filter id="filter2_d_18_900" x="675.909" y="0.449863" width="299.688" height="299.688" filterUnits="userSpaceOnUse" color-interpolation-filters="sRGB">
<feFlood flood-opacity="0" result="BackgroundImageFix"/>
<feColorMatrix in="SourceAlpha" type="matrix" values="0 0 0 0 0 0 0 0 0 0 0 0 0 0 0 0 0 0 127 0" result="hardAlpha"/>
<feOffset dy="17.7395"/>
<feGaussianBlur stdDeviation="62.5"/>
<feComposite in2="hardAlpha" operator="out"/>
<feColorMatrix type="matrix" values="0 0 0 0 0.188472 0 0 0 0 0.218792 0 0 0 0 0.491667 0 0 0 0.32 0"/>
<feBlend mode="normal" in2="BackgroundImageFix" result="effect1_dropShadow_18_900"/>
<feBlend mode="normal" in="SourceGraphic" in2="effect1_dropShadow_18_900" result="shape"/>
</filter>
<filter id="filter3_d_18_900" x="610.174" y="0.449863" width="299.688" height="299.688" filterUnits="userSpaceOnUse" color-interpolation-filters="sRGB">
<feFlood flood-opacity="0" result="BackgroundImageFix"/>
<feColorMatrix in="SourceAlpha" type="matrix" values="0 0 0 0 0 0 0 0 0 0 0 0 0 0 0 0 0 0 127 0" result="hardAlpha"/>
<feOffset dy="17.7395"/>
<feGaussianBlur stdDeviation="62.5"/>
<feComposite in2="hardAlpha" operator="out"/>
<feColorMatrix type="matrix" values="0 0 0 0 0.188472 0 0 0 0 0.218792 0 0 0 0 0.491667 0 0 0 0.32 0"/>
<feBlend mode="normal" in2="BackgroundImageFix" result="effect1_dropShadow_18_900"/>
<feBlend mode="normal" in="SourceGraphic" in2="effect1_dropShadow_18_900" result="shape"/>
</filter>
</defs>
</svg>
