<svg width="1105" height="300" viewBox="0 0 1105 300" fill="none" xmlns="http://www.w3.org/2000/svg">
<rect x="0.832153" y="89.1465" width="1002.23" height="86.2083" rx="12" fill="white"/>
<rect x="1.33215" y="89.6465" width="1001.23" height="85.2083" rx="11.5" stroke="#30387D" stroke-opacity="0.24"/>
<g filter="url(#filter0_d_18_1397)">
<circle cx="890.225" cy="132.251" r="24.8441" fill="white"/>
<circle cx="890.225" cy="132.251" r="24.3441" stroke="#30387D" stroke-opacity="0.32"/>
</g>
<path d="M895.311 123.165C895.574 122.902 895.886 122.694 896.229 122.552C896.572 122.41 896.94 122.337 897.311 122.337C897.683 122.337 898.05 122.41 898.394 122.552C898.737 122.694 899.049 122.902 899.311 123.165C899.574 123.428 899.782 123.739 899.924 124.083C900.066 124.426 900.14 124.794 900.14 125.165C900.14 125.536 900.066 125.904 899.924 126.247C899.782 126.591 899.574 126.902 899.311 127.165L885.811 140.665L880.311 142.165L881.811 136.665L895.311 123.165Z" stroke="#30387D" stroke-opacity="0.69" stroke-width="2" stroke-linecap="round" stroke-linejoin="round"/>
<g filter="url(#filter1_d_18_1397)">
<circle cx="954.698" cy="132.251" r="24.8441" fill="white"/>
<circle cx="954.698" cy="132.251" r="24.3441" stroke="#30387D" stroke-opacity="0.32"/>
</g>
<path fill-rule="evenodd" clip-rule="evenodd" d="M951.991 123.544C952.178 123.356 952.433 123.251 952.698 123.251H956.698C956.963 123.251 957.217 123.356 957.405 123.544C957.592 123.731 957.698 123.986 957.698 124.251V125.251H951.698V124.251C951.698 123.986 951.803 123.731 951.991 123.544ZM949.698 125.251V124.251C949.698 123.455 950.014 122.692 950.576 122.129C951.139 121.567 951.902 121.251 952.698 121.251H956.698C957.493 121.251 958.257 121.567 958.819 122.129C959.382 122.692 959.698 123.455 959.698 124.251V125.251H961.698H963.698C964.25 125.251 964.698 125.698 964.698 126.251C964.698 126.803 964.25 127.251 963.698 127.251H962.698V140.251C962.698 141.046 962.382 141.809 961.819 142.372C961.257 142.935 960.493 143.251 959.698 143.251H949.698C948.902 143.251 948.139 142.935 947.576 142.372C947.014 141.809 946.698 141.046 946.698 140.251V127.251H945.698C945.146 127.251 944.698 126.803 944.698 126.251C944.698 125.698 945.146 125.251 945.698 125.251H947.698H949.698ZM948.698 127.251V140.251C948.698 140.516 948.803 140.77 948.991 140.958C949.178 141.145 949.433 141.251 949.698 141.251H959.698C959.963 141.251 960.217 141.145 960.405 140.958C960.592 140.77 960.698 140.516 960.698 140.251V127.251H958.698H950.698H948.698ZM952.698 130.251C953.25 130.251 953.698 130.698 953.698 131.251V137.251C953.698 137.803 953.25 138.251 952.698 138.251C952.146 138.251 951.698 137.803 951.698 137.251V131.251C951.698 130.698 952.146 130.251 952.698 130.251ZM957.698 137.251V131.251C957.698 130.698 957.25 130.251 956.698 130.251C956.146 130.251 955.698 130.698 955.698 131.251V137.251C955.698 137.803 956.146 138.251 956.698 138.251C957.25 138.251 957.698 137.803 957.698 137.251Z" fill="#FF7777"/>
<g filter="url(#filter2_d_18_1397)">
<circle cx="825.753" cy="132.251" r="24.8441" fill="white"/>
<circle cx="825.753" cy="132.251" r="24.3441" stroke="#30387D" stroke-opacity="0.32"/>
</g>
<path fill-rule="evenodd" clip-rule="evenodd" d="M817.046 123.544C817.233 123.356 817.488 123.251 817.753 123.251H826.753C827.018 123.251 827.273 123.356 827.46 123.544C827.648 123.731 827.753 123.986 827.753 124.251V125.251C827.753 125.803 828.201 126.251 828.753 126.251C829.305 126.251 829.753 125.803 829.753 125.251V124.251C829.753 123.455 829.437 122.692 828.874 122.129C828.312 121.567 827.549 121.251 826.753 121.251H817.753C816.957 121.251 816.194 121.567 815.632 122.129C815.069 122.692 814.753 123.455 814.753 124.251V133.251C814.753 134.046 815.069 134.809 815.632 135.372C816.194 135.935 816.957 136.251 817.753 136.251H818.753C819.305 136.251 819.753 135.803 819.753 135.251C819.753 134.698 819.305 134.251 818.753 134.251H817.753C817.488 134.251 817.233 134.145 817.046 133.958C816.858 133.77 816.753 133.516 816.753 133.251V124.251C816.753 123.986 816.858 123.731 817.046 123.544ZM823.753 131.251C823.753 130.698 824.201 130.251 824.753 130.251H833.753C834.305 130.251 834.753 130.698 834.753 131.251V140.251C834.753 140.803 834.305 141.251 833.753 141.251H824.753C824.201 141.251 823.753 140.803 823.753 140.251V131.251ZM824.753 128.251C823.096 128.251 821.753 129.594 821.753 131.251V140.251C821.753 141.908 823.096 143.251 824.753 143.251H833.753C835.41 143.251 836.753 141.908 836.753 140.251V131.251C836.753 129.594 835.41 128.251 833.753 128.251H824.753Z" fill="#30387D" fill-opacity="0.69"/>
<g filter="url(#filter3_d_18_1397)">
<circle cx="760.018" cy="132.251" r="24.8441" fill="white"/>
<circle cx="760.018" cy="132.251" r="24.3441" stroke="#30387D" stroke-opacity="0.32"/>
</g>
<path fill-rule="evenodd" clip-rule="evenodd" d="M766.018 123.251C764.913 123.251 764.018 124.146 764.018 125.251C764.018 125.598 764.106 125.925 764.262 126.209C764.272 126.225 764.282 126.241 764.291 126.257C764.301 126.273 764.31 126.289 764.318 126.305C764.671 126.873 765.3 127.251 766.018 127.251C767.122 127.251 768.018 126.355 768.018 125.251C768.018 124.146 767.122 123.251 766.018 123.251ZM763.176 128.066C763.901 128.797 764.906 129.251 766.018 129.251C768.227 129.251 770.018 127.46 770.018 125.251C770.018 123.042 768.227 121.251 766.018 121.251C763.809 121.251 762.018 123.042 762.018 125.251C762.018 125.628 762.07 125.993 762.167 126.338L756.86 129.436C756.135 128.704 755.129 128.251 754.018 128.251C751.809 128.251 750.018 130.042 750.018 132.251C750.018 134.46 751.809 136.251 754.018 136.251C755.129 136.251 756.135 135.797 756.86 135.065L762.169 138.159C762.07 138.506 762.018 138.872 762.018 139.251C762.018 141.46 763.809 143.251 766.018 143.251C768.227 143.251 770.018 141.46 770.018 139.251C770.018 137.042 768.227 135.251 766.018 135.251C764.908 135.251 763.904 135.703 763.179 136.433L757.868 133.338C757.966 132.992 758.018 132.628 758.018 132.251C758.018 131.874 757.966 131.509 757.868 131.163L763.176 128.066ZM755.717 131.196C755.726 131.213 755.735 131.229 755.744 131.245C755.754 131.261 755.763 131.277 755.774 131.292C755.929 131.577 756.018 131.903 756.018 132.251C756.018 132.598 755.929 132.925 755.774 133.209C755.763 133.225 755.753 133.241 755.744 133.257C755.735 133.273 755.726 133.289 755.717 133.305C755.365 133.873 754.735 134.251 754.018 134.251C752.913 134.251 752.018 133.355 752.018 132.251C752.018 131.146 752.913 130.251 754.018 130.251C754.735 130.251 755.365 130.629 755.717 131.196ZM764.018 139.251C764.018 138.926 764.095 138.619 764.233 138.347C764.258 138.315 764.281 138.28 764.302 138.244C764.322 138.21 764.34 138.174 764.355 138.138C764.714 137.603 765.325 137.251 766.018 137.251C767.122 137.251 768.018 138.146 768.018 139.251C768.018 140.355 767.122 141.251 766.018 141.251C764.913 141.251 764.018 140.355 764.018 139.251Z" fill="#30387D" fill-opacity="0.69"/>
<defs>
<filter id="filter0_d_18_1397" x="740.381" y="0.146152" width="299.688" height="299.688" filterUnits="userSpaceOnUse" color-interpolation-filters="sRGB">
<feFlood flood-opacity="0" result="BackgroundImageFix"/>
<feColorMatrix in="SourceAlpha" type="matrix" values="0 0 0 0 0 0 0 0 0 0 0 0 0 0 0 0 0 0 127 0" result="hardAlpha"/>
<feOffset dy="17.7395"/>
<feGaussianBlur stdDeviation="62.5"/>
<feComposite in2="hardAlpha" operator="out"/>
<feColorMatrix type="matrix" values="0 0 0 0 0.188472 0 0 0 0 0.218792 0 0 0 0 0.491667 0 0 0 0.32 0"/>
<feBlend mode="normal" in2="BackgroundImageFix" result="effect1_dropShadow_18_1397"/>
<feBlend mode="normal" in="SourceGraphic" in2="effect1_dropShadow_18_1397" result="shape"/>
</filter>
<filter id="filter1_d_18_1397" x="804.854" y="0.146152" width="299.688" height="299.688" filterUnits="userSpaceOnUse" color-interpolation-filters="sRGB">
<feFlood flood-opacity="0" result="BackgroundImageFix"/>
<feColorMatrix in="SourceAlpha" type="matrix" values="0 0 0 0 0 0 0 0 0 0 0 0 0 0 0 0 0 0 127 0" result="hardAlpha"/>
<feOffset dy="17.7395"/>
<feGaussianBlur stdDeviation="62.5"/>
<feComposite in2="hardAlpha" operator="out"/>
<feColorMatrix type="matrix" values="0 0 0 0 0.188472 0 0 0 0 0.218792 0 0 0 0 0.491667 0 0 0 0.32 0"/>
<feBlend mode="normal" in2="BackgroundImageFix" result="effect1_dropShadow_18_1397"/>
<feBlend mode="normal" in="SourceGraphic" in2="effect1_dropShadow_18_1397" result="shape"/>
</filter>
<filter id="filter2_d_18_1397" x="675.909" y="0.146152" width="299.688" height="299.688" filterUnits="userSpaceOnUse" color-interpolation-filters="sRGB">
<feFlood flood-opacity="0" result="BackgroundImageFix"/>
<feColorMatrix in="SourceAlpha" type="matrix" values="0 0 0 0 0 0 0 0 0 0 0 0 0 0 0 0 0 0 127 0" result="hardAlpha"/>
<feOffset dy="17.7395"/>
<feGaussianBlur stdDeviation="62.5"/>
<feComposite in2="hardAlpha" operator="out"/>
<feColorMatrix type="matrix" values="0 0 0 0 0.188472 0 0 0 0 0.218792 0 0 0 0 0.491667 0 0 0 0.32 0"/>
<feBlend mode="normal" in2="BackgroundImageFix" result="effect1_dropShadow_18_1397"/>
<feBlend mode="normal" in="SourceGraphic" in2="effect1_dropShadow_18_1397" result="shape"/>
</filter>
<filter id="filter3_d_18_1397" x="610.174" y="0.146152" width="299.688" height="299.688" filterUnits="userSpaceOnUse" color-interpolation-filters="sRGB">
<feFlood flood-opacity="0" result="BackgroundImageFix"/>
<feColorMatrix in="SourceAlpha" type="matrix" values="0 0 0 0 0 0 0 0 0 0 0 0 0 0 0 0 0 0 127 0" result="hardAlpha"/>
<feOffset dy="17.7395"/>
<feGaussianBlur stdDeviation="62.5"/>
<feComposite in2="hardAlpha" operator="out"/>
<feColorMatrix type="matrix" values="0 0 0 0 0.188472 0 0 0 0 0.218792 0 0 0 0 0.491667 0 0 0 0.32 0"/>
<feBlend mode="normal" in2="BackgroundImageFix" result="effect1_dropShadow_18_1397"/>
<feBlend mode="normal" in="SourceGraphic" in2="effect1_dropShadow_18_1397" result="shape"/>
</filter>
</defs>
</svg>
