<svg width="23" height="23" viewBox="0 0 23 23" fill="none" xmlns="http://www.w3.org/2000/svg">
<path d="M9.4425 12.1042C9.87196 12.6783 10.4199 13.1534 11.0491 13.4972C11.6782 13.8409 12.374 14.0453 13.0892 14.0965C13.8043 14.1478 14.5221 14.0446 15.1939 13.794C15.8656 13.5434 16.4756 13.1513 16.9825 12.6442L19.9825 9.64421C20.8933 8.7012 21.3973 7.43819 21.3859 6.12721C21.3745 4.81622 20.8486 3.56216 19.9216 2.63512C18.9946 1.70808 17.7405 1.18224 16.4295 1.17084C15.1185 1.15945 13.8555 1.66342 12.9125 2.57421L11.1925 4.28421" stroke="#7076A6" stroke-width="2" stroke-linecap="round" stroke-linejoin="round"/>
<path d="M13.4425 10.1042C13.013 9.5301 12.4651 9.05505 11.8359 8.71129C11.2067 8.36753 10.511 8.16311 9.79581 8.1119C9.08067 8.06068 8.36287 8.16386 7.69111 8.41445C7.01936 8.66503 6.40935 9.05716 5.90246 9.56423L2.90246 12.5642C1.99167 13.5072 1.4877 14.7703 1.49909 16.0812C1.51048 17.3922 2.03633 18.6463 2.96337 19.5733C3.89041 20.5004 5.14447 21.0262 6.45545 21.0376C7.76644 21.049 9.02945 20.545 9.97246 19.6342L11.6825 17.9242" stroke="#7076A6" stroke-width="2" stroke-linecap="round" stroke-linejoin="round"/>
</svg>
