<svg width="77" height="76" viewBox="0 0 77 76" fill="none" xmlns="http://www.w3.org/2000/svg">
<circle cx="38.4664" cy="37.6736" r="37.5422" fill="#FFB9D6"/>
<path d="M54.6357 23.3009H29.4833C29.0069 23.3009 28.5499 23.4901 28.213 23.8271C27.876 24.164 27.6867 24.621 27.6867 25.0975V30.4872H36.6697V26.8941H47.4493V44.86H54.6357C55.1122 44.86 55.5691 44.6707 55.9061 44.3338C56.243 43.9969 56.4323 43.5399 56.4323 43.0634V25.0975C56.4323 24.621 56.243 24.164 55.9061 23.8271C55.5691 23.4901 55.1122 23.3009 54.6357 23.3009V23.3009ZM33.5257 29.0837C33.5257 29.2177 33.4724 29.3462 33.3777 29.4409C33.2829 29.5357 33.1544 29.5889 33.0204 29.5889H31.3361C31.2021 29.5889 31.0735 29.5357 30.9788 29.4409C30.884 29.3462 30.8308 29.2177 30.8308 29.0837V27.3993C30.8308 27.2653 30.884 27.1368 30.9788 27.042C31.0735 26.9473 31.2021 26.8941 31.3361 26.8941H33.0204C33.1544 26.8941 33.2829 26.9473 33.3777 27.042C33.4724 27.1368 33.5257 27.2653 33.5257 27.3993V29.0837ZM53.2882 40.7615C53.2882 40.8955 53.235 41.0241 53.1402 41.1188C53.0455 41.2136 52.917 41.2668 52.7829 41.2668H51.0986C50.9646 41.2668 50.8361 41.2136 50.7413 41.1188C50.6466 41.0241 50.5933 40.8955 50.5933 40.7615V39.0772C50.5933 38.9432 50.6466 38.8147 50.7413 38.7199C50.8361 38.6252 50.9646 38.5719 51.0986 38.5719H52.7829C52.917 38.5719 53.0455 38.6252 53.1402 38.7199C53.235 38.8147 53.2882 38.9432 53.2882 39.0772V40.7615ZM53.2882 34.9226C53.2882 35.0566 53.235 35.1851 53.1402 35.2799C53.0455 35.3746 52.917 35.4279 52.7829 35.4279H51.0986C50.9646 35.4279 50.8361 35.3746 50.7413 35.2799C50.6466 35.1851 50.5933 35.0566 50.5933 34.9226V33.2383C50.5933 33.1043 50.6466 32.9757 50.7413 32.881C50.8361 32.7862 50.9646 32.733 51.0986 32.733H52.7829C52.917 32.733 53.0455 32.7862 53.1402 32.881C53.235 32.9757 53.2882 33.1043 53.2882 33.2383V34.9226ZM53.2882 29.0837C53.2882 29.2177 53.235 29.3462 53.1402 29.4409C53.0455 29.5357 52.917 29.5889 52.7829 29.5889H51.0986C50.9646 29.5889 50.8361 29.5357 50.7413 29.4409C50.6466 29.3462 50.5933 29.2177 50.5933 29.0837V27.3993C50.5933 27.2653 50.6466 27.1368 50.7413 27.042C50.8361 26.9473 50.9646 26.8941 51.0986 26.8941H52.7829C52.917 26.8941 53.0455 26.9473 53.1402 27.042C53.235 27.1368 53.2882 27.2653 53.2882 27.3993V29.0837ZM43.8561 32.2838H22.297C21.8205 32.2838 21.3635 32.4731 21.0266 32.8101C20.6896 33.147 20.5004 33.6039 20.5004 34.0804V50.2498C20.5004 50.7263 20.6896 51.1833 21.0266 51.5202C21.3635 51.8571 21.8205 52.0464 22.297 52.0464H43.8561C44.3326 52.0464 44.7896 51.8571 45.1265 51.5202C45.4634 51.1833 45.6527 50.7263 45.6527 50.2498V34.0804C45.6527 33.6039 45.4634 33.147 45.1265 32.8101C44.7896 32.4731 44.3326 32.2838 43.8561 32.2838ZM25.8901 35.877C26.2455 35.877 26.5928 35.9824 26.8883 36.1798C27.1837 36.3772 27.414 36.6578 27.55 36.9861C27.686 37.3144 27.7215 37.6756 27.6522 38.0241C27.5829 38.3726 27.4118 38.6928 27.1605 38.944C26.9093 39.1953 26.5891 39.3664 26.2406 39.4357C25.8921 39.505 25.5309 39.4694 25.2026 39.3335C24.8743 39.1975 24.5937 38.9672 24.3963 38.6718C24.1989 38.3763 24.0936 38.029 24.0936 37.6736C24.0936 37.1971 24.2828 36.7402 24.6198 36.4032C24.9567 36.0663 25.4137 35.877 25.8901 35.877ZM42.0595 48.4532H24.0936V46.6566L27.6867 43.0634L29.4833 44.86L36.6697 37.6736L42.0595 43.0634V48.4532Z" fill="#BC45A2"/>
</svg>
