<svg width="54" height="53" viewBox="0 0 54 53" fill="none" xmlns="http://www.w3.org/2000/svg">
<circle cx="26.9755" cy="26.4268" r="26.2168" fill="#FFB9D6"/>
<path d="M38.267 16.3899H20.7024C20.3697 16.3899 20.0505 16.5221 19.8152 16.7574C19.58 16.9926 19.4478 17.3118 19.4478 17.6445V21.4084H25.7209V18.8991H33.2485V31.4453H38.267C38.5998 31.4453 38.9189 31.3131 39.1542 31.0778C39.3894 30.8425 39.5216 30.5234 39.5216 30.1907V17.6445C39.5216 17.3118 39.3894 16.9926 39.1542 16.7574C38.9189 16.5221 38.5998 16.3899 38.267 16.3899V16.3899ZM23.5253 20.4282C23.5253 20.5218 23.4881 20.6115 23.4219 20.6777C23.3558 20.7439 23.266 20.781 23.1724 20.781H21.9962C21.9026 20.781 21.8129 20.7439 21.7467 20.6777C21.6805 20.6115 21.6434 20.5218 21.6434 20.4282V19.252C21.6434 19.1584 21.6805 19.0686 21.7467 19.0025C21.8129 18.9363 21.9026 18.8991 21.9962 18.8991H23.1724C23.266 18.8991 23.3558 18.9363 23.4219 19.0025C23.4881 19.0686 23.5253 19.1584 23.5253 19.252V20.4282ZM37.326 28.5832C37.326 28.6768 37.2889 28.7665 37.2227 28.8327C37.1565 28.8989 37.0668 28.936 36.9732 28.936H35.797C35.7034 28.936 35.6136 28.8989 35.5475 28.8327C35.4813 28.7665 35.4441 28.6768 35.4441 28.5832V27.407C35.4441 27.3134 35.4813 27.2236 35.5475 27.1575C35.6136 27.0913 35.7034 27.0541 35.797 27.0541H36.9732C37.0668 27.0541 37.1565 27.0913 37.2227 27.1575C37.2889 27.2236 37.326 27.3134 37.326 27.407V28.5832ZM37.326 24.5057C37.326 24.5993 37.2889 24.689 37.2227 24.7552C37.1565 24.8214 37.0668 24.8585 36.9732 24.8585H35.797C35.7034 24.8585 35.6136 24.8214 35.5475 24.7552C35.4813 24.689 35.4441 24.5993 35.4441 24.5057V23.3295C35.4441 23.2359 35.4813 23.1461 35.5475 23.08C35.6136 23.0138 35.7034 22.9766 35.797 22.9766H36.9732C37.0668 22.9766 37.1565 23.0138 37.2227 23.08C37.2889 23.1461 37.326 23.2359 37.326 23.3295V24.5057ZM37.326 20.4282C37.326 20.5218 37.2889 20.6115 37.2227 20.6777C37.1565 20.7439 37.0668 20.781 36.9732 20.781H35.797C35.7034 20.781 35.6136 20.7439 35.5475 20.6777C35.4813 20.6115 35.4441 20.5218 35.4441 20.4282V19.252C35.4441 19.1584 35.4813 19.0686 35.5475 19.0025C35.6136 18.9363 35.7034 18.8991 35.797 18.8991H36.9732C37.0668 18.8991 37.1565 18.9363 37.2227 19.0025C37.2889 19.0686 37.326 19.1584 37.326 19.252V20.4282ZM30.7393 22.663H15.6839C15.3512 22.663 15.0321 22.7952 14.7968 23.0304C14.5615 23.2657 14.4293 23.5848 14.4293 23.9176V35.2091C14.4293 35.5419 14.5615 35.861 14.7968 36.0963C15.0321 36.3316 15.3512 36.4637 15.6839 36.4637H30.7393C31.0721 36.4637 31.3912 36.3316 31.6265 36.0963C31.8617 35.861 31.9939 35.5419 31.9939 35.2091V23.9176C31.9939 23.5848 31.8617 23.2657 31.6265 23.0304C31.3912 22.7952 31.0721 22.663 30.7393 22.663ZM18.1932 25.1722C18.4413 25.1722 18.6839 25.2458 18.8902 25.3836C19.0965 25.5215 19.2573 25.7174 19.3523 25.9467C19.4472 26.1759 19.4721 26.4282 19.4237 26.6716C19.3753 26.9149 19.2558 27.1385 19.0803 27.314C18.9049 27.4894 18.6813 27.6089 18.4379 27.6573C18.1946 27.7057 17.9423 27.6809 17.713 27.5859C17.4838 27.491 17.2879 27.3302 17.15 27.1238C17.0121 26.9175 16.9386 26.675 16.9386 26.4268C16.9386 26.0941 17.0707 25.775 17.306 25.5397C17.5413 25.3044 17.8604 25.1722 18.1932 25.1722ZM29.4847 33.9545H16.9386V32.6999L19.4478 30.1907L20.7024 31.4453L25.7209 26.4268L29.4847 30.1907V33.9545Z" fill="#BC45A2"/>
</svg>
