<svg width="23" height="23" viewBox="0 0 23 23" fill="none" xmlns="http://www.w3.org/2000/svg">
<path d="M9.4425 12.146C9.87196 12.7201 10.4199 13.1951 11.0491 13.5389C11.6782 13.8827 12.374 14.0871 13.0892 14.1383C13.8043 14.1895 14.5221 14.0863 15.1939 13.8357C15.8656 13.5852 16.4756 13.193 16.9825 12.686L19.9825 9.68596C20.8933 8.74295 21.3973 7.47994 21.3859 6.16896C21.3745 4.85797 20.8486 3.60391 19.9216 2.67687C18.9946 1.74983 17.7405 1.22398 16.4295 1.21259C15.1185 1.2012 13.8555 1.70517 12.9125 2.61596L11.1925 4.32596" stroke="#7076A6" stroke-width="2" stroke-linecap="round" stroke-linejoin="round"/>
<path d="M13.4425 10.146C13.013 9.57185 12.4651 9.09679 11.8359 8.75304C11.2067 8.40928 10.511 8.20486 9.79581 8.15364C9.08067 8.10243 8.36287 8.20561 7.69111 8.4562C7.01936 8.70678 6.40935 9.09891 5.90246 9.60598L2.90246 12.606C1.99167 13.549 1.4877 14.812 1.49909 16.123C1.51048 17.434 2.03633 18.688 2.96337 19.6151C3.89041 20.5421 5.14447 21.068 6.45545 21.0793C7.76644 21.0907 9.02945 20.5868 9.97246 19.676L11.6825 17.966" stroke="#7076A6" stroke-width="2" stroke-linecap="round" stroke-linejoin="round"/>
</svg>
