<svg width="16" height="16" viewBox="0 0 16 16" fill="none" xmlns="http://www.w3.org/2000/svg">
<path d="M6.59082 8.63806C6.86446 9.00389 7.21359 9.30659 7.6145 9.52563C8.01542 9.74467 8.45876 9.87492 8.91444 9.90756C9.37013 9.94019 9.8275 9.87445 10.2555 9.71477C10.6836 9.5551 11.0723 9.30524 11.3953 8.98214L13.3068 7.07056C13.8872 6.46968 14.2083 5.6649 14.2011 4.82955C14.1938 3.9942 13.8587 3.19512 13.268 2.60441C12.6773 2.01371 11.8782 1.67864 11.0429 1.67139C10.2075 1.66413 9.40276 1.98525 8.80188 2.5656L7.70591 3.6552" stroke="#7076A6" stroke-width="2" stroke-linecap="round" stroke-linejoin="round"/>
<path d="M9.13959 7.3637C8.86595 6.99787 8.51683 6.69517 8.11591 6.47613C7.71499 6.25709 7.27166 6.12683 6.81597 6.0942C6.36029 6.06156 5.90291 6.12731 5.47487 6.28698C5.04683 6.44665 4.65814 6.69652 4.33515 7.01962L2.42357 8.9312C1.84322 9.53208 1.5221 10.3369 1.52936 11.1722C1.53662 12.0076 1.87168 12.8066 2.46238 13.3973C3.05309 13.988 3.85217 14.3231 4.68752 14.3304C5.52287 14.3376 6.32765 14.0165 6.92853 13.4362L8.01813 12.3466" stroke="#7076A6" stroke-width="2" stroke-linecap="round" stroke-linejoin="round"/>
</svg>
