<svg width="16" height="16" viewBox="0 0 16 16" fill="none" xmlns="http://www.w3.org/2000/svg">
<path d="M6.59082 8.40051C6.86446 8.76634 7.21359 9.06904 7.6145 9.28808C8.01542 9.50712 8.45876 9.63737 8.91444 9.67001C9.37013 9.70264 9.8275 9.6369 10.2555 9.47722C10.6836 9.31755 11.0723 9.06769 11.3953 8.74459L13.3068 6.83301C13.8872 6.23213 14.2083 5.42735 14.2011 4.592C14.1938 3.75665 13.8587 2.95757 13.268 2.36686C12.6773 1.77616 11.8782 1.4411 11.0429 1.43384C10.2075 1.42658 9.40276 1.7477 8.80188 2.32805L7.70591 3.41766" stroke="#7076A6" stroke-width="2" stroke-linecap="round" stroke-linejoin="round"/>
<path d="M9.13959 7.12615C8.86595 6.76032 8.51683 6.45762 8.11591 6.23858C7.71499 6.01954 7.27166 5.88929 6.81597 5.85665C6.36029 5.82402 5.90291 5.88976 5.47487 6.04943C5.04683 6.20911 4.65814 6.45897 4.33515 6.78207L2.42357 8.69365C1.84322 9.29453 1.5221 10.0993 1.52936 10.9347C1.53662 11.77 1.87168 12.5691 2.46238 13.1598C3.05309 13.7505 3.85217 14.0856 4.68752 14.0928C5.52287 14.1001 6.32765 13.779 6.92853 13.1986L8.01813 12.109" stroke="#7076A6" stroke-width="2" stroke-linecap="round" stroke-linejoin="round"/>
</svg>
