<svg width="1105" height="300" viewBox="0 0 1105 300" fill="none" xmlns="http://www.w3.org/2000/svg">
<rect x="0.832153" y="89.2983" width="1002.23" height="86.2083" rx="12" fill="white"/>
<rect x="1.33215" y="89.7983" width="1001.23" height="85.2083" rx="11.5" stroke="#30387D" stroke-opacity="0.24"/>
<g filter="url(#filter0_d_18_1436)">
<circle cx="890.225" cy="132.403" r="24.8441" fill="white"/>
<circle cx="890.225" cy="132.403" r="24.3441" stroke="#30387D" stroke-opacity="0.32"/>
</g>
<path d="M895.311 123.317C895.574 123.054 895.886 122.846 896.229 122.704C896.572 122.562 896.94 122.488 897.311 122.488C897.683 122.488 898.05 122.562 898.394 122.704C898.737 122.846 899.049 123.054 899.311 123.317C899.574 123.579 899.782 123.891 899.924 124.234C900.066 124.578 900.14 124.945 900.14 125.317C900.14 125.688 900.066 126.056 899.924 126.399C899.782 126.742 899.574 127.054 899.311 127.317L885.811 140.817L880.311 142.317L881.811 136.817L895.311 123.317Z" stroke="#30387D" stroke-opacity="0.69" stroke-width="2" stroke-linecap="round" stroke-linejoin="round"/>
<g filter="url(#filter1_d_18_1436)">
<circle cx="954.698" cy="132.403" r="24.8441" fill="white"/>
<circle cx="954.698" cy="132.403" r="24.3441" stroke="#30387D" stroke-opacity="0.32"/>
</g>
<path fill-rule="evenodd" clip-rule="evenodd" d="M951.991 123.695C952.178 123.508 952.433 123.403 952.698 123.403H956.698C956.963 123.403 957.217 123.508 957.405 123.695C957.592 123.883 957.698 124.137 957.698 124.403V125.403H951.698V124.403C951.698 124.137 951.803 123.883 951.991 123.695ZM949.698 125.403V124.403C949.698 123.607 950.014 122.844 950.576 122.281C951.139 121.719 951.902 121.403 952.698 121.403H956.698C957.493 121.403 958.257 121.719 958.819 122.281C959.382 122.844 959.698 123.607 959.698 124.403V125.403H961.698H963.698C964.25 125.403 964.698 125.85 964.698 126.403C964.698 126.955 964.25 127.403 963.698 127.403H962.698V140.403C962.698 141.198 962.382 141.961 961.819 142.524C961.257 143.087 960.493 143.403 959.698 143.403H949.698C948.902 143.403 948.139 143.087 947.576 142.524C947.014 141.961 946.698 141.198 946.698 140.403V127.403H945.698C945.146 127.403 944.698 126.955 944.698 126.403C944.698 125.85 945.146 125.403 945.698 125.403H947.698H949.698ZM948.698 127.403V140.403C948.698 140.668 948.803 140.922 948.991 141.11C949.178 141.297 949.433 141.403 949.698 141.403H959.698C959.963 141.403 960.217 141.297 960.405 141.11C960.592 140.922 960.698 140.668 960.698 140.403V127.403H958.698H950.698H948.698ZM952.698 130.403C953.25 130.403 953.698 130.85 953.698 131.403V137.403C953.698 137.955 953.25 138.403 952.698 138.403C952.146 138.403 951.698 137.955 951.698 137.403V131.403C951.698 130.85 952.146 130.403 952.698 130.403ZM957.698 137.403V131.403C957.698 130.85 957.25 130.403 956.698 130.403C956.146 130.403 955.698 130.85 955.698 131.403V137.403C955.698 137.955 956.146 138.403 956.698 138.403C957.25 138.403 957.698 137.955 957.698 137.403Z" fill="#FF7777"/>
<g filter="url(#filter2_d_18_1436)">
<circle cx="825.753" cy="132.403" r="24.8441" fill="white"/>
<circle cx="825.753" cy="132.403" r="24.3441" stroke="#30387D" stroke-opacity="0.32"/>
</g>
<path fill-rule="evenodd" clip-rule="evenodd" d="M817.046 123.695C817.233 123.508 817.488 123.403 817.753 123.403H826.753C827.018 123.403 827.273 123.508 827.46 123.695C827.648 123.883 827.753 124.137 827.753 124.403V125.403C827.753 125.955 828.201 126.403 828.753 126.403C829.305 126.403 829.753 125.955 829.753 125.403V124.403C829.753 123.607 829.437 122.844 828.874 122.281C828.312 121.719 827.549 121.403 826.753 121.403H817.753C816.957 121.403 816.194 121.719 815.632 122.281C815.069 122.844 814.753 123.607 814.753 124.403V133.403C814.753 134.198 815.069 134.961 815.632 135.524C816.194 136.087 816.957 136.403 817.753 136.403H818.753C819.305 136.403 819.753 135.955 819.753 135.403C819.753 134.85 819.305 134.403 818.753 134.403H817.753C817.488 134.403 817.233 134.297 817.046 134.11C816.858 133.922 816.753 133.668 816.753 133.403V124.403C816.753 124.137 816.858 123.883 817.046 123.695ZM823.753 131.403C823.753 130.85 824.201 130.403 824.753 130.403H833.753C834.305 130.403 834.753 130.85 834.753 131.403V140.403C834.753 140.955 834.305 141.403 833.753 141.403H824.753C824.201 141.403 823.753 140.955 823.753 140.403V131.403ZM824.753 128.403C823.096 128.403 821.753 129.746 821.753 131.403V140.403C821.753 142.059 823.096 143.403 824.753 143.403H833.753C835.41 143.403 836.753 142.059 836.753 140.403V131.403C836.753 129.746 835.41 128.403 833.753 128.403H824.753Z" fill="#30387D" fill-opacity="0.69"/>
<g filter="url(#filter3_d_18_1436)">
<circle cx="760.018" cy="132.403" r="24.8441" fill="white"/>
<circle cx="760.018" cy="132.403" r="24.3441" stroke="#30387D" stroke-opacity="0.32"/>
</g>
<path fill-rule="evenodd" clip-rule="evenodd" d="M766.018 123.403C764.913 123.403 764.018 124.298 764.018 125.403C764.018 125.75 764.106 126.077 764.262 126.361C764.272 126.377 764.282 126.392 764.291 126.409C764.301 126.425 764.31 126.441 764.318 126.457C764.671 127.025 765.3 127.403 766.018 127.403C767.122 127.403 768.018 126.507 768.018 125.403C768.018 124.298 767.122 123.403 766.018 123.403ZM763.176 128.217C763.901 128.949 764.906 129.403 766.018 129.403C768.227 129.403 770.018 127.612 770.018 125.403C770.018 123.193 768.227 121.403 766.018 121.403C763.809 121.403 762.018 123.193 762.018 125.403C762.018 125.78 762.07 126.144 762.167 126.49L756.86 129.588C756.135 128.856 755.129 128.403 754.018 128.403C751.809 128.403 750.018 130.193 750.018 132.403C750.018 134.612 751.809 136.403 754.018 136.403C755.129 136.403 756.135 135.949 756.86 135.217L762.169 138.31C762.07 138.658 762.018 139.024 762.018 139.403C762.018 141.612 763.809 143.403 766.018 143.403C768.227 143.403 770.018 141.612 770.018 139.403C770.018 137.193 768.227 135.403 766.018 135.403C764.908 135.403 763.904 135.855 763.179 136.584L757.868 133.49C757.966 133.144 758.018 132.779 758.018 132.403C758.018 132.026 757.966 131.661 757.868 131.315L763.176 128.217ZM755.717 131.348C755.726 131.364 755.735 131.381 755.744 131.397C755.754 131.413 755.763 131.429 755.774 131.444C755.929 131.729 756.018 132.055 756.018 132.403C756.018 132.75 755.929 133.077 755.774 133.361C755.763 133.377 755.753 133.393 755.744 133.409C755.735 133.425 755.726 133.441 755.717 133.457C755.365 134.025 754.735 134.403 754.018 134.403C752.913 134.403 752.018 133.507 752.018 132.403C752.018 131.298 752.913 130.403 754.018 130.403C754.735 130.403 755.365 130.78 755.717 131.348ZM764.018 139.403C764.018 139.077 764.095 138.77 764.233 138.499C764.258 138.467 764.281 138.432 764.302 138.396C764.322 138.361 764.34 138.326 764.355 138.29C764.714 137.755 765.325 137.403 766.018 137.403C767.122 137.403 768.018 138.298 768.018 139.403C768.018 140.507 767.122 141.403 766.018 141.403C764.913 141.403 764.018 140.507 764.018 139.403Z" fill="#30387D" fill-opacity="0.69"/>
<defs>
<filter id="filter0_d_18_1436" x="740.381" y="0.298008" width="299.688" height="299.688" filterUnits="userSpaceOnUse" color-interpolation-filters="sRGB">
<feFlood flood-opacity="0" result="BackgroundImageFix"/>
<feColorMatrix in="SourceAlpha" type="matrix" values="0 0 0 0 0 0 0 0 0 0 0 0 0 0 0 0 0 0 127 0" result="hardAlpha"/>
<feOffset dy="17.7395"/>
<feGaussianBlur stdDeviation="62.5"/>
<feComposite in2="hardAlpha" operator="out"/>
<feColorMatrix type="matrix" values="0 0 0 0 0.188472 0 0 0 0 0.218792 0 0 0 0 0.491667 0 0 0 0.32 0"/>
<feBlend mode="normal" in2="BackgroundImageFix" result="effect1_dropShadow_18_1436"/>
<feBlend mode="normal" in="SourceGraphic" in2="effect1_dropShadow_18_1436" result="shape"/>
</filter>
<filter id="filter1_d_18_1436" x="804.854" y="0.298008" width="299.688" height="299.688" filterUnits="userSpaceOnUse" color-interpolation-filters="sRGB">
<feFlood flood-opacity="0" result="BackgroundImageFix"/>
<feColorMatrix in="SourceAlpha" type="matrix" values="0 0 0 0 0 0 0 0 0 0 0 0 0 0 0 0 0 0 127 0" result="hardAlpha"/>
<feOffset dy="17.7395"/>
<feGaussianBlur stdDeviation="62.5"/>
<feComposite in2="hardAlpha" operator="out"/>
<feColorMatrix type="matrix" values="0 0 0 0 0.188472 0 0 0 0 0.218792 0 0 0 0 0.491667 0 0 0 0.32 0"/>
<feBlend mode="normal" in2="BackgroundImageFix" result="effect1_dropShadow_18_1436"/>
<feBlend mode="normal" in="SourceGraphic" in2="effect1_dropShadow_18_1436" result="shape"/>
</filter>
<filter id="filter2_d_18_1436" x="675.909" y="0.298008" width="299.688" height="299.688" filterUnits="userSpaceOnUse" color-interpolation-filters="sRGB">
<feFlood flood-opacity="0" result="BackgroundImageFix"/>
<feColorMatrix in="SourceAlpha" type="matrix" values="0 0 0 0 0 0 0 0 0 0 0 0 0 0 0 0 0 0 127 0" result="hardAlpha"/>
<feOffset dy="17.7395"/>
<feGaussianBlur stdDeviation="62.5"/>
<feComposite in2="hardAlpha" operator="out"/>
<feColorMatrix type="matrix" values="0 0 0 0 0.188472 0 0 0 0 0.218792 0 0 0 0 0.491667 0 0 0 0.32 0"/>
<feBlend mode="normal" in2="BackgroundImageFix" result="effect1_dropShadow_18_1436"/>
<feBlend mode="normal" in="SourceGraphic" in2="effect1_dropShadow_18_1436" result="shape"/>
</filter>
<filter id="filter3_d_18_1436" x="610.174" y="0.298008" width="299.688" height="299.688" filterUnits="userSpaceOnUse" color-interpolation-filters="sRGB">
<feFlood flood-opacity="0" result="BackgroundImageFix"/>
<feColorMatrix in="SourceAlpha" type="matrix" values="0 0 0 0 0 0 0 0 0 0 0 0 0 0 0 0 0 0 127 0" result="hardAlpha"/>
<feOffset dy="17.7395"/>
<feGaussianBlur stdDeviation="62.5"/>
<feComposite in2="hardAlpha" operator="out"/>
<feColorMatrix type="matrix" values="0 0 0 0 0.188472 0 0 0 0 0.218792 0 0 0 0 0.491667 0 0 0 0.32 0"/>
<feBlend mode="normal" in2="BackgroundImageFix" result="effect1_dropShadow_18_1436"/>
<feBlend mode="normal" in="SourceGraphic" in2="effect1_dropShadow_18_1436" result="shape"/>
</filter>
</defs>
</svg>
