<svg width="1004" height="88" viewBox="0 0 1004 88" fill="none" xmlns="http://www.w3.org/2000/svg">
<rect x="0.832153" y="0.833374" width="1002.23" height="86.2083" rx="12" fill="white"/>
<rect x="1.33215" y="1.33337" width="1001.23" height="85.2083" rx="11.5" stroke="#30387D" stroke-opacity="0.24"/>
<circle cx="890.225" cy="43.9376" r="24.8441" fill="white"/>
<circle cx="890.225" cy="43.9376" r="24.3441" stroke="#30387D" stroke-opacity="0.32"/>
<path d="M895.311 34.8519C895.574 34.5892 895.886 34.3809 896.229 34.2387C896.572 34.0966 896.94 34.0234 897.311 34.0234C897.683 34.0234 898.051 34.0966 898.394 34.2387C898.737 34.3809 899.049 34.5892 899.311 34.8519C899.574 35.1145 899.782 35.4263 899.924 35.7695C900.067 36.1126 900.14 36.4804 900.14 36.8519C900.14 37.2233 900.067 37.5911 899.924 37.9343C899.782 38.2774 899.574 38.5892 899.311 38.8519L885.811 52.3519L880.311 53.8519L881.811 48.3519L895.311 34.8519Z" stroke="#30387D" stroke-opacity="0.69" stroke-width="2" stroke-linecap="round" stroke-linejoin="round"/>
<circle cx="954.698" cy="43.9376" r="24.8441" fill="white"/>
<circle cx="954.698" cy="43.9376" r="24.3441" stroke="#30387D" stroke-opacity="0.32"/>
<path d="M945.698 37.9376H947.698H963.698" stroke="#EB4335" stroke-width="2" stroke-linecap="round" stroke-linejoin="round"/>
<path d="M950.698 37.9376V35.9376C950.698 35.4072 950.908 34.8985 951.284 34.5234C951.659 34.1483 952.167 33.9376 952.698 33.9376H956.698C957.228 33.9376 957.737 34.1483 958.112 34.5234C958.487 34.8985 958.698 35.4072 958.698 35.9376V37.9376M961.698 37.9376V51.9376C961.698 52.4681 961.487 52.9768 961.112 53.3518C960.737 53.7269 960.228 53.9376 959.698 53.9376H949.698C949.167 53.9376 948.659 53.7269 948.284 53.3518C947.908 52.9768 947.698 52.4681 947.698 51.9376V37.9376H961.698Z" stroke="#EB4335" stroke-width="2" stroke-linecap="round" stroke-linejoin="round"/>
<path d="M952.698 42.9376V48.9376" stroke="#EB4335" stroke-width="2" stroke-linecap="round" stroke-linejoin="round"/>
<path d="M956.698 42.9376V48.9376" stroke="#EB4335" stroke-width="2" stroke-linecap="round" stroke-linejoin="round"/>
<circle cx="825.753" cy="43.9376" r="24.8441" fill="white"/>
<circle cx="825.753" cy="43.9376" r="24.3441" stroke="#30387D" stroke-opacity="0.32"/>
<path d="M833.753 40.9376H824.753C823.648 40.9376 822.753 41.8331 822.753 42.9376V51.9376C822.753 53.0422 823.648 53.9376 824.753 53.9376H833.753C834.857 53.9376 835.753 53.0422 835.753 51.9376V42.9376C835.753 41.8331 834.857 40.9376 833.753 40.9376Z" stroke="#7076A6" stroke-width="2" stroke-linecap="round" stroke-linejoin="round"/>
<path d="M818.753 46.9376H817.753C817.222 46.9376 816.714 46.7269 816.339 46.3518C815.964 45.9768 815.753 45.4681 815.753 44.9376V35.9376C815.753 35.4072 815.964 34.8985 816.339 34.5234C816.714 34.1483 817.222 33.9376 817.753 33.9376H826.753C827.283 33.9376 827.792 34.1483 828.167 34.5234C828.542 34.8985 828.753 35.4072 828.753 35.9376V36.9376" stroke="#7076A6" stroke-width="2" stroke-linecap="round" stroke-linejoin="round"/>
<circle cx="760.018" cy="43.9376" r="24.8441" fill="white"/>
<circle cx="760.018" cy="43.9376" r="24.3441" stroke="#30387D" stroke-opacity="0.32"/>
<path d="M766.018 39.9376C767.674 39.9376 769.018 38.5945 769.018 36.9376C769.018 35.2808 767.674 33.9376 766.018 33.9376C764.361 33.9376 763.018 35.2808 763.018 36.9376C763.018 38.5945 764.361 39.9376 766.018 39.9376Z" stroke="#7076A6" stroke-width="2" stroke-linecap="round" stroke-linejoin="round"/>
<path d="M754.018 46.9376C755.674 46.9376 757.018 45.5945 757.018 43.9376C757.018 42.2808 755.674 40.9376 754.018 40.9376C752.361 40.9376 751.018 42.2808 751.018 43.9376C751.018 45.5945 752.361 46.9376 754.018 46.9376Z" stroke="#7076A6" stroke-width="2" stroke-linecap="round" stroke-linejoin="round"/>
<path d="M766.018 53.9376C767.674 53.9376 769.018 52.5945 769.018 50.9376C769.018 49.2808 767.674 47.9376 766.018 47.9376C764.361 47.9376 763.018 49.2808 763.018 50.9376C763.018 52.5945 764.361 53.9376 766.018 53.9376Z" stroke="#7076A6" stroke-width="2" stroke-linecap="round" stroke-linejoin="round"/>
<path d="M756.608 45.4476L763.438 49.4276" stroke="#7076A6" stroke-width="2" stroke-linecap="round" stroke-linejoin="round"/>
<path d="M763.428 38.4476L756.608 42.4276" stroke="#7076A6" stroke-width="2" stroke-linecap="round" stroke-linejoin="round"/>
</svg>
