<svg width="292" height="60" viewBox="0 0 292 60" fill="none" xmlns="http://www.w3.org/2000/svg">
<rect x="1.40161" y="0.5" width="65" height="59" rx="19.5" fill="white" stroke="#DADADA"/>
<circle cx="33.9016" cy="30" r="14" fill="url(#paint0_linear_3_1017)"/>
<path d="M39.1153 34.2816L39.7372 30.3301H35.8468V27.767C35.8468 26.6857 36.3893 25.6311 38.1318 25.6311H39.9016V22.267C39.9016 22.267 38.2961 22 36.7619 22C33.5565 22 31.4633 23.8929 31.4633 27.3184V30.3301H27.9016V34.2816H31.4633V43.8345C32.1783 43.944 32.9098 44 33.6551 44C34.4003 44 35.1318 43.944 35.8468 43.8345V34.2816H39.1153Z" fill="white"/>
<rect x="76.4016" y="0.5" width="65" height="59" rx="19.5" fill="white" stroke="#DADADA"/>
<path d="M122.902 30.3109C122.902 29.1598 122.806 28.3198 122.6 27.4487H109.187V32.6442H117.06C116.902 33.9354 116.044 35.8798 114.14 37.1864L114.113 37.3604L118.354 40.58L118.648 40.6087C121.346 38.1665 122.902 34.5731 122.902 30.3109Z" fill="#4285F4"/>
<path d="M109.186 44C113.044 44 116.282 42.7555 118.647 40.6089L114.139 37.1865C112.932 38.011 111.313 38.5866 109.186 38.5866C105.409 38.5866 102.202 36.1444 101.059 32.7688L100.892 32.7827L96.4822 36.1272L96.4246 36.2843C98.7737 40.8577 103.599 44 109.186 44Z" fill="#34A853"/>
<path d="M101.06 32.7688C100.759 31.8977 100.584 30.9643 100.584 29.9999C100.584 29.0354 100.759 28.1021 101.044 27.231L101.036 27.0455L96.5715 23.6473L96.4254 23.7154C95.4572 25.6132 94.9016 27.7444 94.9016 29.9999C94.9016 32.2555 95.4572 34.3865 96.4254 36.2843L101.06 32.7688Z" fill="#FBBC05"/>
<path d="M109.187 21.4133C111.869 21.4133 113.679 22.5488 114.71 23.4978L118.742 19.64C116.266 17.3844 113.044 16 109.187 16C103.599 16 98.7737 19.1422 96.4246 23.7155L101.044 27.2311C102.202 23.8555 105.409 21.4133 109.187 21.4133Z" fill="#EB4335"/>
<rect x="151.402" y="0.5" width="65" height="59" rx="19.5" fill="white" stroke="#DADADA"/>
<path fill-rule="evenodd" clip-rule="evenodd" d="M190.902 36.9869H188.001V32.4474C188.001 31.365 187.982 29.9729 186.493 29.9729C184.984 29.9729 184.754 31.1524 184.754 32.3704V36.9869H181.856V27.6524H184.637V28.929H184.677C185.064 28.1949 186.01 27.4205 187.422 27.4205C190.359 27.4205 190.902 29.3534 190.902 31.8673V36.9869ZM178.585 26.3775C177.653 26.3775 176.902 25.6233 176.902 24.6949C176.902 23.7665 177.653 23.0122 178.585 23.0122C179.513 23.0122 180.266 23.7665 180.266 24.6949C180.266 25.6233 179.513 26.3775 178.585 26.3775ZM180.036 36.9869H177.132V27.6524H180.036V36.9869ZM183.902 16C176.169 16 169.902 22.2676 169.902 30C169.902 37.7315 176.169 44 183.902 44C191.634 44 197.902 37.7315 197.902 30C197.902 22.2676 191.634 16 183.902 16Z" fill="#2E78B6"/>
<rect x="226.402" y="0.5" width="65" height="59" rx="19.5" fill="white" stroke="#DADADA"/>
<path d="M266.131 30.7964C266.119 28.5023 267.134 26.7707 269.187 25.4955C268.038 23.8139 266.303 22.8888 264.011 22.7075C261.842 22.5324 259.471 24.0015 258.603 24.0015C257.687 24.0015 255.585 22.77 253.935 22.77C250.525 22.8262 246.902 25.5517 246.902 31.0965C246.902 32.7343 247.195 34.4263 247.782 36.1724C248.564 38.4666 251.387 44.0926 254.332 43.9988C255.872 43.9613 256.96 42.8799 258.964 42.8799C260.907 42.8799 261.915 43.9988 263.632 43.9988C266.602 43.9551 269.156 38.8417 269.902 36.5412C265.918 34.6221 266.131 30.9152 266.131 30.7964ZM262.673 20.5321C264.341 18.5067 264.188 16.6626 264.139 16C262.667 16.0875 260.962 17.0252 259.99 18.1816C258.921 19.4194 258.292 20.9509 258.426 22.6762C260.021 22.8012 261.475 21.9636 262.673 20.5321Z" fill="black"/>
<defs>
<linearGradient id="paint0_linear_3_1017" x1="33.9016" y1="16" x2="33.9016" y2="44" gradientUnits="userSpaceOnUse">
<stop stop-color="#18ACFE"/>
<stop offset="1" stop-color="#0163E0"/>
</linearGradient>
</defs>
</svg>
