<svg width="76" height="76" viewBox="0 0 76 76" fill="none" xmlns="http://www.w3.org/2000/svg">
<circle cx="38.4473" cy="38.3478" r="37.5422" fill="#FFB9D6"/>
<path d="M54.6166 23.975H29.4643C28.9878 23.975 28.5308 24.1643 28.1939 24.5012C27.857 24.8381 27.6677 25.2951 27.6677 25.7716V31.1614H36.6507V27.5682H47.4303V45.5341H54.6166C55.0931 45.5341 55.5501 45.3448 55.887 45.0079C56.2239 44.671 56.4132 44.214 56.4132 43.7375V25.7716C56.4132 25.2951 56.2239 24.8381 55.887 24.5012C55.5501 24.1643 55.0931 23.975 54.6166 23.975V23.975ZM33.5066 29.7578C33.5066 29.8918 33.4534 30.0203 33.3586 30.1151C33.2639 30.2098 33.1354 30.2631 33.0013 30.2631H31.317C31.183 30.2631 31.0545 30.2098 30.9597 30.1151C30.865 30.0203 30.8117 29.8918 30.8117 29.7578V28.0735C30.8117 27.9394 30.865 27.8109 30.9597 27.7162C31.0545 27.6214 31.183 27.5682 31.317 27.5682H33.0013C33.1354 27.5682 33.2639 27.6214 33.3586 27.7162C33.4534 27.8109 33.5066 27.9394 33.5066 28.0735V29.7578ZM53.2692 41.4356C53.2692 41.5697 53.216 41.6982 53.1212 41.7929C53.0264 41.8877 52.8979 41.9409 52.7639 41.9409H51.0796C50.9456 41.9409 50.8171 41.8877 50.7223 41.7929C50.6275 41.6982 50.5743 41.5697 50.5743 41.4356V39.7513C50.5743 39.6173 50.6275 39.4888 50.7223 39.394C50.8171 39.2993 50.9456 39.246 51.0796 39.246H52.7639C52.8979 39.246 53.0264 39.2993 53.1212 39.394C53.216 39.4888 53.2692 39.6173 53.2692 39.7513V41.4356ZM53.2692 35.5967C53.2692 35.7307 53.216 35.8592 53.1212 35.954C53.0264 36.0488 52.8979 36.102 52.7639 36.102H51.0796C50.9456 36.102 50.8171 36.0488 50.7223 35.954C50.6275 35.8592 50.5743 35.7307 50.5743 35.5967V33.9124C50.5743 33.7784 50.6275 33.6499 50.7223 33.5551C50.8171 33.4603 50.9456 33.4071 51.0796 33.4071H52.7639C52.8979 33.4071 53.0264 33.4603 53.1212 33.5551C53.216 33.6499 53.2692 33.7784 53.2692 33.9124V35.5967ZM53.2692 29.7578C53.2692 29.8918 53.216 30.0203 53.1212 30.1151C53.0264 30.2098 52.8979 30.2631 52.7639 30.2631H51.0796C50.9456 30.2631 50.8171 30.2098 50.7223 30.1151C50.6275 30.0203 50.5743 29.8918 50.5743 29.7578V28.0735C50.5743 27.9394 50.6275 27.8109 50.7223 27.7162C50.8171 27.6214 50.9456 27.5682 51.0796 27.5682H52.7639C52.8979 27.5682 53.0264 27.6214 53.1212 27.7162C53.216 27.8109 53.2692 27.9394 53.2692 28.0735V29.7578ZM43.8371 32.958H22.2779C21.8014 32.958 21.3445 33.1472 21.0075 33.4842C20.6706 33.8211 20.4813 34.2781 20.4813 34.7545V50.9239C20.4813 51.4004 20.6706 51.8574 21.0075 52.1943C21.3445 52.5312 21.8014 52.7205 22.2779 52.7205H43.8371C44.3135 52.7205 44.7705 52.5312 45.1074 52.1943C45.4444 51.8574 45.6337 51.4004 45.6337 50.9239V34.7545C45.6337 34.2781 45.4444 33.8211 45.1074 33.4842C44.7705 33.1472 44.3135 32.958 43.8371 32.958ZM25.8711 36.5511C26.2264 36.5511 26.5738 36.6565 26.8692 36.8539C27.1647 37.0513 27.395 37.3319 27.5309 37.6602C27.6669 37.9885 27.7025 38.3497 27.6332 38.6982C27.5639 39.0467 27.3927 39.3669 27.1415 39.6181C26.8902 39.8694 26.5701 40.0405 26.2216 40.1098C25.8731 40.1791 25.5119 40.1436 25.1836 40.0076C24.8553 39.8716 24.5747 39.6413 24.3773 39.3459C24.1799 39.0504 24.0745 38.7031 24.0745 38.3477C24.0745 37.8713 24.2638 37.4143 24.6007 37.0774C24.9376 36.7404 25.3946 36.5511 25.8711 36.5511ZM42.0405 49.1273H24.0745V47.3307L27.6677 43.7375L29.4643 45.5341L36.6507 38.3477L42.0405 43.7375V49.1273Z" fill="#BC45A2"/>
</svg>
