<svg width="53" height="53" viewBox="0 0 53 53" fill="none" xmlns="http://www.w3.org/2000/svg">
<circle cx="26.5081" cy="26.6501" r="26.2168" fill="#B9FFCD"/>
<path d="M33.5872 17.7726L22.6769 20.9946C22.4554 21.0641 22.2619 21.2025 22.1244 21.3896C21.987 21.5767 21.9129 21.8028 21.9127 22.0349V30.9485C21.5554 30.8618 21.1892 30.8169 20.8216 30.8148C19.0144 30.8148 17.5482 31.7921 17.5482 32.9971C17.5482 34.2021 19.0144 35.1794 20.8216 35.1794C22.6288 35.1794 24.095 34.2021 24.095 32.9971V25.0291L32.8241 22.4717V28.7666C32.4669 28.6795 32.1007 28.6346 31.733 28.6325C29.9258 28.6325 28.4595 29.6098 28.4595 30.8148C28.4595 32.0199 29.9258 32.9971 31.733 32.9971C33.5402 32.9971 35.0064 32.0202 35.0064 30.8148V18.8123C35.0062 18.641 34.9657 18.4721 34.8882 18.3194C34.8107 18.1667 34.6983 18.0343 34.5601 17.9331C34.4219 17.8319 34.2618 17.7646 34.0928 17.7367C33.9238 17.7088 33.7506 17.7211 33.5872 17.7726Z" fill="#5DD849"/>
</svg>
