<svg width="292" height="61" viewBox="0 0 292 61" fill="none" xmlns="http://www.w3.org/2000/svg">
<rect x="1.30322" y="1" width="65" height="59" rx="19.5" fill="white" stroke="#DADADA"/>
<circle cx="33.8032" cy="30.5" r="14" fill="url(#paint0_linear_3_1100)"/>
<path d="M39.0169 34.7816L39.6388 30.8301H35.7484V28.267C35.7484 27.1857 36.2909 26.1311 38.0334 26.1311H39.8032V22.767C39.8032 22.767 38.1977 22.5 36.6635 22.5C33.4581 22.5 31.3649 24.3929 31.3649 27.8184V30.8301H27.8032V34.7816H31.3649V44.3345C32.0799 44.444 32.8115 44.5 33.5567 44.5C34.3019 44.5 35.0334 44.444 35.7484 44.3345V34.7816H39.0169Z" fill="white"/>
<rect x="76.3032" y="1" width="65" height="59" rx="19.5" fill="white" stroke="#DADADA"/>
<path d="M122.803 30.8109C122.803 29.6598 122.708 28.8198 122.502 27.9487H109.089V33.1442H116.962C116.803 34.4354 115.946 36.3798 114.041 37.6864L114.015 37.8604L118.255 41.08L118.549 41.1087C121.248 38.6665 122.803 35.0731 122.803 30.8109Z" fill="#4285F4"/>
<path d="M109.088 44.5C112.945 44.5 116.183 43.2555 118.548 41.1089L114.04 37.6865C112.834 38.511 111.215 39.0866 109.088 39.0866C105.31 39.0866 102.104 36.6444 100.961 33.2688L100.794 33.2827L96.3838 36.6272L96.3262 36.7843C98.6753 41.3577 103.501 44.5 109.088 44.5Z" fill="#34A853"/>
<path d="M100.962 33.2688C100.66 32.3977 100.486 31.4643 100.486 30.4999C100.486 29.5354 100.66 28.6021 100.946 27.731L100.938 27.5455L96.4731 24.1473L96.327 24.2154C95.3588 26.1132 94.8032 28.2444 94.8032 30.4999C94.8032 32.7555 95.3588 34.8865 96.327 36.7843L100.962 33.2688Z" fill="#FBBC05"/>
<path d="M109.088 21.9133C111.771 21.9133 113.58 23.0488 114.612 23.9978L118.644 20.14C116.168 17.8844 112.945 16.5 109.088 16.5C103.501 16.5 98.6754 19.6422 96.3262 24.2155L100.945 27.7311C102.104 24.3555 105.31 21.9133 109.088 21.9133Z" fill="#EB4335"/>
<rect x="151.303" y="1" width="65" height="59" rx="19.5" fill="white" stroke="#DADADA"/>
<path fill-rule="evenodd" clip-rule="evenodd" d="M190.803 37.4869H187.903V32.9474C187.903 31.865 187.883 30.4729 186.395 30.4729C184.886 30.4729 184.655 31.6524 184.655 32.8704V37.4869H181.757V28.1524H184.538V29.429H184.578C184.965 28.6949 185.912 27.9205 187.323 27.9205C190.261 27.9205 190.803 29.8534 190.803 32.3673V37.4869ZM178.487 26.8775C177.555 26.8775 176.803 26.1233 176.803 25.1949C176.803 24.2665 177.555 23.5122 178.487 23.5122C179.414 23.5122 180.168 24.2665 180.168 25.1949C180.168 26.1233 179.414 26.8775 178.487 26.8775ZM179.937 37.4869H177.033V28.1524H179.937V37.4869ZM183.803 16.5C176.071 16.5 169.803 22.7676 169.803 30.5C169.803 38.2315 176.071 44.5 183.803 44.5C191.536 44.5 197.803 38.2315 197.803 30.5C197.803 22.7676 191.536 16.5 183.803 16.5Z" fill="#2E78B6"/>
<rect x="226.303" y="1" width="65" height="59" rx="19.5" fill="white" stroke="#DADADA"/>
<path d="M266.033 31.2964C266.021 29.0023 267.035 27.2707 269.088 25.9955C267.94 24.3139 266.204 23.3888 263.913 23.2075C261.743 23.0324 259.373 24.5015 258.505 24.5015C257.588 24.5015 255.486 23.27 253.836 23.27C250.427 23.3262 246.803 26.0517 246.803 31.5965C246.803 33.2343 247.097 34.9263 247.683 36.6724C248.465 38.9666 251.288 44.5926 254.234 44.4988C255.773 44.4613 256.861 43.3799 258.865 43.3799C260.809 43.3799 261.817 44.4988 263.534 44.4988C266.504 44.4551 269.058 39.3417 269.803 37.0412C265.819 35.1221 266.033 31.4152 266.033 31.2964ZM262.574 21.0321C264.243 19.0067 264.09 17.1626 264.041 16.5C262.568 16.5875 260.864 17.5252 259.892 18.6816C258.823 19.9194 258.193 21.4509 258.328 23.1762C259.923 23.3012 261.377 22.4636 262.574 21.0321Z" fill="black"/>
<defs>
<linearGradient id="paint0_linear_3_1100" x1="33.8032" y1="16.5" x2="33.8032" y2="44.5" gradientUnits="userSpaceOnUse">
<stop stop-color="#18ACFE"/>
<stop offset="1" stop-color="#0163E0"/>
</linearGradient>
</defs>
</svg>
