<svg width="16" height="16" viewBox="0 0 16 16" fill="none" xmlns="http://www.w3.org/2000/svg">
<path d="M6.59082 8.87561C6.86446 9.24144 7.21359 9.54414 7.6145 9.76318C8.01542 9.98222 8.45876 10.1125 8.91444 10.1451C9.37013 10.1777 9.8275 10.112 10.2555 9.95232C10.6836 9.79265 11.0723 9.54279 11.3953 9.21969L13.3068 7.30811C13.8872 6.70723 14.2083 5.90245 14.2011 5.0671C14.1938 4.23175 13.8587 3.43267 13.268 2.84196C12.6773 2.25126 11.8782 1.91619 11.0429 1.90893C10.2075 1.90167 9.40276 2.2228 8.80188 2.80315L7.70591 3.89275" stroke="#7076A6" stroke-width="2" stroke-linecap="round" stroke-linejoin="round"/>
<path d="M9.13959 7.60125C8.86595 7.23542 8.51683 6.93272 8.11591 6.71368C7.71499 6.49464 7.27166 6.36438 6.81597 6.33175C6.36029 6.29911 5.90291 6.36486 5.47487 6.52453C5.04683 6.6842 4.65814 6.93406 4.33515 7.25717L2.42357 9.16875C1.84322 9.76963 1.5221 10.5744 1.52936 11.4098C1.53662 12.2451 1.87168 13.0442 2.46238 13.6349C3.05309 14.2256 3.85217 14.5607 4.68752 14.5679C5.52287 14.5752 6.32765 14.2541 6.92853 13.6737L8.01813 12.5841" stroke="#7076A6" stroke-width="2" stroke-linecap="round" stroke-linejoin="round"/>
</svg>
