<svg width="76" height="76" viewBox="0 0 76 76" fill="none" xmlns="http://www.w3.org/2000/svg">
<circle cx="37.716" cy="37.7381" r="37.5422" fill="#B9EAFF"/>
<path d="M54.1272 36.1941H52.3782C51.8565 35.0083 51.0976 33.9589 50.1608 33.0814L51.2814 28.6051H49.3841C47.641 28.6051 46.0995 29.4055 45.0561 30.6387C44.6055 30.5735 44.1608 30.5024 43.6924 30.5024H36.1035C31.5146 30.5024 27.6905 33.7633 26.8071 38.0913H24.2458C23.3683 38.0913 22.6746 37.2909 22.8525 36.3838C22.9829 35.7079 23.6173 35.2455 24.3051 35.2455H24.3644C24.56 35.2455 24.7201 35.0854 24.7201 34.8897V33.704C24.7201 33.5083 24.56 33.3482 24.3644 33.3482C22.6746 33.3482 21.1687 34.5577 20.9553 36.2297C20.6944 38.2573 22.2715 39.9885 24.2458 39.9885H26.6173C26.6173 43.0834 28.1233 45.8047 30.4118 47.536V52.3206C30.4118 52.8423 30.8387 53.2692 31.3604 53.2692H35.1549C35.6766 53.2692 36.1035 52.8423 36.1035 52.3206V49.4747H43.6924V52.3206C43.6924 52.8423 44.1193 53.2692 44.641 53.2692H48.4355C48.9572 53.2692 49.3841 52.8423 49.3841 52.3206V47.536C50.0837 47.0083 50.7063 46.3858 51.2399 45.6802H54.1272C54.6489 45.6802 55.0758 45.2534 55.0758 44.7316V37.1427C55.0758 36.621 54.6489 36.1941 54.1272 36.1941ZM46.5383 39.9885C46.0165 39.9885 45.5897 39.5617 45.5897 39.0399C45.5897 38.5182 46.0165 38.0913 46.5383 38.0913C47.06 38.0913 47.4869 38.5182 47.4869 39.0399C47.4869 39.5617 47.06 39.9885 46.5383 39.9885ZM36.1035 28.6051H43.6924C44.0126 28.6051 44.3268 28.6289 44.6351 28.6526C44.6351 28.6348 44.641 28.6229 44.641 28.6051C44.641 25.4629 42.0916 22.9135 38.9493 22.9135C35.8071 22.9135 33.2576 25.4629 33.2576 28.6051C33.2576 28.7297 33.2873 28.8482 33.2932 28.9727C34.1944 28.7415 35.1312 28.6051 36.1035 28.6051Z" fill="#5698B5"/>
</svg>
