<svg width="76" height="76" viewBox="0 0 76 76" fill="none" xmlns="http://www.w3.org/2000/svg">
<circle cx="37.753" cy="37.7381" r="37.5422" fill="#B9BCFF"/>
<path d="M45.6446 36.6162C41.9758 36.6162 39.0067 39.5853 39.0067 43.2541C39.0067 46.9229 41.9758 49.892 45.6446 49.892C49.3134 49.892 52.2825 46.9229 52.2825 43.2541C52.2825 39.5853 49.3134 36.6162 45.6446 36.6162ZM48.5948 43.544C48.5948 43.7902 48.3933 43.9916 48.1472 43.9916H45.3551C45.109 43.9916 44.9075 43.7902 44.9075 43.544V40.0144C44.9075 39.7683 45.109 39.5668 45.3551 39.5668H45.9346C46.1807 39.5668 46.3822 39.7683 46.3822 40.0144V42.5165H48.1472C48.3933 42.5165 48.5948 42.718 48.5948 42.9641V43.544ZM45.6446 35.1411C45.8935 35.1411 46.1388 35.1563 46.3822 35.1784V32.9285C46.3822 31.7484 45.3496 30.7158 44.1695 30.7158H40.4818V28.5032C40.4818 27.3231 39.4492 26.2906 38.2692 26.2906H30.8937C29.7137 26.2906 28.6811 27.3231 28.6811 28.5032V30.7158H24.9934C23.8133 30.7158 22.7808 31.7484 22.7808 32.9285V36.6162H40.9944C42.3128 35.6901 43.9146 35.1411 45.6446 35.1411ZM37.5316 30.7158H31.6313V29.2408H37.5316V30.7158ZM37.846 41.0415H32.3688C31.9613 41.0415 31.6313 40.7114 31.6313 40.3039V38.0913H22.7808V44.7292C22.7808 45.9092 23.8133 46.9418 24.9934 46.9418H38.4273C37.8589 45.8336 37.5316 44.5826 37.5316 43.2541C37.5316 42.4861 37.646 41.7458 37.846 41.0415Z" fill="#464993"/>
</svg>
