<svg width="1004" height="87" viewBox="0 0 1004 87" fill="none" xmlns="http://www.w3.org/2000/svg">
<rect x="0.832153" y="0.625" width="1002.23" height="86.2083" rx="12" fill="white"/>
<rect x="1.33215" y="1.125" width="1001.23" height="85.2083" rx="11.5" stroke="#30387D" stroke-opacity="0.24"/>
<circle cx="890.225" cy="43.7293" r="24.8441" fill="white"/>
<circle cx="890.225" cy="43.7293" r="24.3441" stroke="#30387D" stroke-opacity="0.32"/>
<path d="M895.311 34.6435C895.574 34.3808 895.886 34.1725 896.229 34.0304C896.572 33.8882 896.94 33.8151 897.311 33.8151C897.683 33.8151 898.051 33.8882 898.394 34.0304C898.737 34.1725 899.049 34.3808 899.311 34.6435C899.574 34.9061 899.782 35.2179 899.924 35.5611C900.067 35.9043 900.14 36.2721 900.14 36.6435C900.14 37.0149 900.067 37.3827 899.924 37.7259C899.782 38.069 899.574 38.3808 899.311 38.6435L885.811 52.1435L880.311 53.6435L881.811 48.1435L895.311 34.6435Z" stroke="#30387D" stroke-opacity="0.69" stroke-width="2" stroke-linecap="round" stroke-linejoin="round"/>
<circle cx="954.698" cy="43.7293" r="24.8441" fill="white"/>
<circle cx="954.698" cy="43.7293" r="24.3441" stroke="#30387D" stroke-opacity="0.32"/>
<path d="M945.698 37.7292H947.698H963.698" stroke="#EB4335" stroke-width="2" stroke-linecap="round" stroke-linejoin="round"/>
<path d="M950.698 37.7292V35.7292C950.698 35.1988 950.908 34.6901 951.284 34.315C951.659 33.94 952.167 33.7292 952.698 33.7292H956.698C957.228 33.7292 957.737 33.94 958.112 34.315C958.487 34.6901 958.698 35.1988 958.698 35.7292V37.7292M961.698 37.7292V51.7292C961.698 52.2597 961.487 52.7684 961.112 53.1435C960.737 53.5185 960.228 53.7292 959.698 53.7292H949.698C949.167 53.7292 948.659 53.5185 948.284 53.1435C947.908 52.7684 947.698 52.2597 947.698 51.7292V37.7292H961.698Z" stroke="#EB4335" stroke-width="2" stroke-linecap="round" stroke-linejoin="round"/>
<path d="M952.698 42.7292V48.7292" stroke="#EB4335" stroke-width="2" stroke-linecap="round" stroke-linejoin="round"/>
<path d="M956.698 42.7292V48.7292" stroke="#EB4335" stroke-width="2" stroke-linecap="round" stroke-linejoin="round"/>
<circle cx="825.753" cy="43.7293" r="24.8441" fill="white"/>
<circle cx="825.753" cy="43.7293" r="24.3441" stroke="#30387D" stroke-opacity="0.32"/>
<path d="M833.753 40.7292H824.753C823.648 40.7292 822.753 41.6247 822.753 42.7292V51.7292C822.753 52.8338 823.648 53.7292 824.753 53.7292H833.753C834.857 53.7292 835.753 52.8338 835.753 51.7292V42.7292C835.753 41.6247 834.857 40.7292 833.753 40.7292Z" stroke="#7076A6" stroke-width="2" stroke-linecap="round" stroke-linejoin="round"/>
<path d="M818.753 46.7292H817.753C817.222 46.7292 816.714 46.5185 816.339 46.1435C815.964 45.7684 815.753 45.2597 815.753 44.7292V35.7292C815.753 35.1988 815.964 34.6901 816.339 34.315C816.714 33.94 817.222 33.7292 817.753 33.7292H826.753C827.283 33.7292 827.792 33.94 828.167 34.315C828.542 34.6901 828.753 35.1988 828.753 35.7292V36.7292" stroke="#7076A6" stroke-width="2" stroke-linecap="round" stroke-linejoin="round"/>
<circle cx="760.018" cy="43.7293" r="24.8441" fill="white"/>
<circle cx="760.018" cy="43.7293" r="24.3441" stroke="#30387D" stroke-opacity="0.32"/>
<path d="M766.018 39.7292C767.674 39.7292 769.018 38.3861 769.018 36.7292C769.018 35.0724 767.674 33.7292 766.018 33.7292C764.361 33.7292 763.018 35.0724 763.018 36.7292C763.018 38.3861 764.361 39.7292 766.018 39.7292Z" stroke="#7076A6" stroke-width="2" stroke-linecap="round" stroke-linejoin="round"/>
<path d="M754.018 46.7292C755.674 46.7292 757.018 45.3861 757.018 43.7292C757.018 42.0724 755.674 40.7292 754.018 40.7292C752.361 40.7292 751.018 42.0724 751.018 43.7292C751.018 45.3861 752.361 46.7292 754.018 46.7292Z" stroke="#7076A6" stroke-width="2" stroke-linecap="round" stroke-linejoin="round"/>
<path d="M766.018 53.7292C767.674 53.7292 769.018 52.3861 769.018 50.7292C769.018 49.0724 767.674 47.7292 766.018 47.7292C764.361 47.7292 763.018 49.0724 763.018 50.7292C763.018 52.3861 764.361 53.7292 766.018 53.7292Z" stroke="#7076A6" stroke-width="2" stroke-linecap="round" stroke-linejoin="round"/>
<path d="M756.608 45.2393L763.438 49.2193" stroke="#7076A6" stroke-width="2" stroke-linecap="round" stroke-linejoin="round"/>
<path d="M763.428 38.2393L756.608 42.2193" stroke="#7076A6" stroke-width="2" stroke-linecap="round" stroke-linejoin="round"/>
</svg>
