<svg width="1004" height="87" viewBox="0 0 1004 87" fill="none" xmlns="http://www.w3.org/2000/svg">
<rect x="0.832153" y="0.208344" width="1002.23" height="86.2083" rx="12" fill="white"/>
<rect x="1.33215" y="0.708344" width="1001.23" height="85.2083" rx="11.5" stroke="#30387D" stroke-opacity="0.24"/>
<circle cx="890.225" cy="43.3126" r="24.8441" fill="white"/>
<circle cx="890.225" cy="43.3126" r="24.3441" stroke="#30387D" stroke-opacity="0.32"/>
<path d="M895.311 34.2268C895.574 33.9642 895.886 33.7558 896.229 33.6137C896.572 33.4716 896.94 33.3984 897.311 33.3984C897.683 33.3984 898.051 33.4716 898.394 33.6137C898.737 33.7558 899.049 33.9642 899.311 34.2268C899.574 34.4895 899.782 34.8013 899.924 35.1444C900.067 35.4876 900.14 35.8554 900.14 36.2268C900.14 36.5983 900.067 36.9661 899.924 37.3092C899.782 37.6524 899.574 37.9642 899.311 38.2268L885.811 51.7268L880.311 53.2268L881.811 47.7268L895.311 34.2268Z" stroke="#30387D" stroke-opacity="0.69" stroke-width="2" stroke-linecap="round" stroke-linejoin="round"/>
<circle cx="954.698" cy="43.3126" r="24.8441" fill="white"/>
<circle cx="954.698" cy="43.3126" r="24.3441" stroke="#30387D" stroke-opacity="0.32"/>
<path d="M945.698 37.3126H947.698H963.698" stroke="#EB4335" stroke-width="2" stroke-linecap="round" stroke-linejoin="round"/>
<path d="M950.698 37.3126V35.3126C950.698 34.7822 950.908 34.2735 951.284 33.8984C951.659 33.5233 952.167 33.3126 952.698 33.3126H956.698C957.228 33.3126 957.737 33.5233 958.112 33.8984C958.487 34.2735 958.698 34.7822 958.698 35.3126V37.3126M961.698 37.3126V51.3126C961.698 51.843 961.487 52.3517 961.112 52.7268C960.737 53.1019 960.228 53.3126 959.698 53.3126H949.698C949.167 53.3126 948.659 53.1019 948.284 52.7268C947.908 52.3517 947.698 51.843 947.698 51.3126V37.3126H961.698Z" stroke="#EB4335" stroke-width="2" stroke-linecap="round" stroke-linejoin="round"/>
<path d="M952.698 42.3126V48.3126" stroke="#EB4335" stroke-width="2" stroke-linecap="round" stroke-linejoin="round"/>
<path d="M956.698 42.3126V48.3126" stroke="#EB4335" stroke-width="2" stroke-linecap="round" stroke-linejoin="round"/>
<circle cx="825.753" cy="43.3126" r="24.8441" fill="white"/>
<circle cx="825.753" cy="43.3126" r="24.3441" stroke="#30387D" stroke-opacity="0.32"/>
<path d="M833.753 40.3126H824.753C823.648 40.3126 822.753 41.208 822.753 42.3126V51.3126C822.753 52.4172 823.648 53.3126 824.753 53.3126H833.753C834.857 53.3126 835.753 52.4172 835.753 51.3126V42.3126C835.753 41.208 834.857 40.3126 833.753 40.3126Z" stroke="#7076A6" stroke-width="2" stroke-linecap="round" stroke-linejoin="round"/>
<path d="M818.753 46.3126H817.753C817.222 46.3126 816.714 46.1019 816.339 45.7268C815.964 45.3517 815.753 44.843 815.753 44.3126V35.3126C815.753 34.7822 815.964 34.2735 816.339 33.8984C816.714 33.5233 817.222 33.3126 817.753 33.3126H826.753C827.283 33.3126 827.792 33.5233 828.167 33.8984C828.542 34.2735 828.753 34.7822 828.753 35.3126V36.3126" stroke="#7076A6" stroke-width="2" stroke-linecap="round" stroke-linejoin="round"/>
<circle cx="760.018" cy="43.3126" r="24.8441" fill="white"/>
<circle cx="760.018" cy="43.3126" r="24.3441" stroke="#30387D" stroke-opacity="0.32"/>
<path d="M766.018 39.3126C767.674 39.3126 769.018 37.9694 769.018 36.3126C769.018 34.6557 767.674 33.3126 766.018 33.3126C764.361 33.3126 763.018 34.6557 763.018 36.3126C763.018 37.9694 764.361 39.3126 766.018 39.3126Z" stroke="#7076A6" stroke-width="2" stroke-linecap="round" stroke-linejoin="round"/>
<path d="M754.018 46.3126C755.674 46.3126 757.018 44.9694 757.018 43.3126C757.018 41.6557 755.674 40.3126 754.018 40.3126C752.361 40.3126 751.018 41.6557 751.018 43.3126C751.018 44.9694 752.361 46.3126 754.018 46.3126Z" stroke="#7076A6" stroke-width="2" stroke-linecap="round" stroke-linejoin="round"/>
<path d="M766.018 53.3126C767.674 53.3126 769.018 51.9694 769.018 50.3126C769.018 48.6557 767.674 47.3126 766.018 47.3126C764.361 47.3126 763.018 48.6557 763.018 50.3126C763.018 51.9694 764.361 53.3126 766.018 53.3126Z" stroke="#7076A6" stroke-width="2" stroke-linecap="round" stroke-linejoin="round"/>
<path d="M756.608 44.8226L763.438 48.8026" stroke="#7076A6" stroke-width="2" stroke-linecap="round" stroke-linejoin="round"/>
<path d="M763.428 37.8226L756.608 41.8026" stroke="#7076A6" stroke-width="2" stroke-linecap="round" stroke-linejoin="round"/>
</svg>
