<svg width="54" height="54" viewBox="0 0 54 54" fill="none" xmlns="http://www.w3.org/2000/svg">
<circle cx="26.9966" cy="26.8148" r="26.2168" fill="#FFE3B9"/>
<path d="M34.0757 17.9374L23.1653 21.1593C22.9438 21.2289 22.7503 21.3673 22.6129 21.5544C22.4755 21.7415 22.4013 21.9675 22.4012 22.1997V31.1132C22.0439 31.0265 21.6777 30.9817 21.31 30.9796C19.5028 30.9796 18.0366 31.9568 18.0366 33.1619C18.0366 34.3669 19.5028 35.3441 21.31 35.3441C23.1172 35.3441 24.5835 34.3669 24.5835 33.1619V25.1938L33.3126 22.6365V28.9313C32.9553 28.8443 32.5891 28.7993 32.2214 28.7973C30.4142 28.7973 28.948 29.7746 28.948 30.9796C28.948 32.1846 30.4142 33.1619 32.2214 33.1619C34.0286 33.1619 35.4948 32.185 35.4948 30.9796V18.9771C35.4947 18.8058 35.4542 18.6369 35.3767 18.4842C35.2991 18.3314 35.1867 18.1991 35.0485 18.0979C34.9104 17.9966 34.7503 17.9293 34.5813 17.9015C34.4123 17.8736 34.2391 17.8859 34.0757 17.9374Z" fill="#E16347"/>
</svg>
