<svg width="76" height="76" viewBox="0 0 76 76" fill="none" xmlns="http://www.w3.org/2000/svg">
<circle cx="37.753" cy="38.2846" r="37.5422" fill="#B9BCFF"/>
<path d="M45.6446 37.1627C41.9758 37.1627 39.0067 40.1317 39.0067 43.8006C39.0067 47.4694 41.9758 50.4385 45.6446 50.4385C49.3134 50.4385 52.2825 47.4694 52.2825 43.8006C52.2825 40.1317 49.3134 37.1627 45.6446 37.1627ZM48.5948 44.0905C48.5948 44.3367 48.3933 44.5381 48.1472 44.5381H45.3551C45.109 44.5381 44.9075 44.3367 44.9075 44.0905V40.5609C44.9075 40.3148 45.109 40.1133 45.3551 40.1133H45.9346C46.1807 40.1133 46.3822 40.3148 46.3822 40.5609V43.063H48.1472C48.3933 43.063 48.5948 43.2645 48.5948 43.5106V44.0905ZM45.6446 35.6876C45.8935 35.6876 46.1388 35.7028 46.3822 35.7249V33.475C46.3822 32.2949 45.3496 31.2623 44.1695 31.2623H40.4818V29.0497C40.4818 27.8696 39.4492 26.8371 38.2692 26.8371H30.8937C29.7137 26.8371 28.6811 27.8696 28.6811 29.0497V31.2623H24.9934C23.8133 31.2623 22.7808 32.2949 22.7808 33.475V37.1627H40.9944C42.3128 36.2366 43.9146 35.6876 45.6446 35.6876ZM37.5316 31.2623H31.6313V29.7872H37.5316V31.2623ZM37.846 41.5879H32.3688C31.9613 41.5879 31.6313 41.2579 31.6313 40.8504V38.6378H22.7808V45.2757C22.7808 46.4557 23.8133 47.4883 24.9934 47.4883H38.4273C37.8589 46.3801 37.5316 45.1291 37.5316 43.8006C37.5316 43.0326 37.646 42.2923 37.846 41.5879Z" fill="#464993"/>
</svg>
