<svg width="1105" height="301" viewBox="0 0 1105 301" fill="none" xmlns="http://www.w3.org/2000/svg">
<rect x="0.832153" y="89.7539" width="1002.23" height="86.2083" rx="12" fill="white"/>
<rect x="1.33215" y="90.2539" width="1001.23" height="85.2083" rx="11.5" stroke="#30387D" stroke-opacity="0.24"/>
<g filter="url(#filter0_d_18_1553)">
<circle cx="890.225" cy="132.858" r="24.8441" fill="white"/>
<circle cx="890.225" cy="132.858" r="24.3441" stroke="#30387D" stroke-opacity="0.32"/>
</g>
<path d="M895.311 123.772C895.574 123.51 895.886 123.301 896.229 123.159C896.572 123.017 896.94 122.944 897.311 122.944C897.683 122.944 898.05 123.017 898.394 123.159C898.737 123.301 899.049 123.51 899.311 123.772C899.574 124.035 899.782 124.347 899.924 124.69C900.066 125.033 900.14 125.401 900.14 125.772C900.14 126.144 900.066 126.512 899.924 126.855C899.782 127.198 899.574 127.51 899.311 127.772L885.811 141.272L880.311 142.772L881.811 137.272L895.311 123.772Z" stroke="#30387D" stroke-opacity="0.69" stroke-width="2" stroke-linecap="round" stroke-linejoin="round"/>
<g filter="url(#filter1_d_18_1553)">
<circle cx="954.698" cy="132.858" r="24.8441" fill="white"/>
<circle cx="954.698" cy="132.858" r="24.3441" stroke="#30387D" stroke-opacity="0.32"/>
</g>
<path fill-rule="evenodd" clip-rule="evenodd" d="M951.991 124.151C952.178 123.964 952.433 123.858 952.698 123.858H956.698C956.963 123.858 957.217 123.964 957.405 124.151C957.592 124.339 957.698 124.593 957.698 124.858V125.858H951.698V124.858C951.698 124.593 951.803 124.339 951.991 124.151ZM949.698 125.858V124.858C949.698 124.063 950.014 123.299 950.576 122.737C951.139 122.174 951.902 121.858 952.698 121.858H956.698C957.493 121.858 958.257 122.174 958.819 122.737C959.382 123.299 959.698 124.063 959.698 124.858V125.858H961.698H963.698C964.25 125.858 964.698 126.306 964.698 126.858C964.698 127.41 964.25 127.858 963.698 127.858H962.698V140.858C962.698 141.654 962.382 142.417 961.819 142.979C961.257 143.542 960.493 143.858 959.698 143.858H949.698C948.902 143.858 948.139 143.542 947.576 142.979C947.014 142.417 946.698 141.654 946.698 140.858V127.858H945.698C945.146 127.858 944.698 127.41 944.698 126.858C944.698 126.306 945.146 125.858 945.698 125.858H947.698H949.698ZM948.698 127.858V140.858C948.698 141.123 948.803 141.378 948.991 141.565C949.178 141.753 949.433 141.858 949.698 141.858H959.698C959.963 141.858 960.217 141.753 960.405 141.565C960.592 141.378 960.698 141.123 960.698 140.858V127.858H958.698H950.698H948.698ZM952.698 130.858C953.25 130.858 953.698 131.306 953.698 131.858V137.858C953.698 138.41 953.25 138.858 952.698 138.858C952.146 138.858 951.698 138.41 951.698 137.858V131.858C951.698 131.306 952.146 130.858 952.698 130.858ZM957.698 137.858V131.858C957.698 131.306 957.25 130.858 956.698 130.858C956.146 130.858 955.698 131.306 955.698 131.858V137.858C955.698 138.41 956.146 138.858 956.698 138.858C957.25 138.858 957.698 138.41 957.698 137.858Z" fill="#FF7777"/>
<g filter="url(#filter2_d_18_1553)">
<circle cx="825.753" cy="132.858" r="24.8441" fill="white"/>
<circle cx="825.753" cy="132.858" r="24.3441" stroke="#30387D" stroke-opacity="0.32"/>
</g>
<path fill-rule="evenodd" clip-rule="evenodd" d="M817.046 124.151C817.233 123.964 817.488 123.858 817.753 123.858H826.753C827.018 123.858 827.273 123.964 827.46 124.151C827.648 124.339 827.753 124.593 827.753 124.858V125.858C827.753 126.41 828.201 126.858 828.753 126.858C829.305 126.858 829.753 126.41 829.753 125.858V124.858C829.753 124.063 829.437 123.299 828.874 122.737C828.312 122.174 827.549 121.858 826.753 121.858H817.753C816.957 121.858 816.194 122.174 815.632 122.737C815.069 123.299 814.753 124.063 814.753 124.858V133.858C814.753 134.654 815.069 135.417 815.632 135.979C816.194 136.542 816.957 136.858 817.753 136.858H818.753C819.305 136.858 819.753 136.41 819.753 135.858C819.753 135.306 819.305 134.858 818.753 134.858H817.753C817.488 134.858 817.233 134.753 817.046 134.565C816.858 134.378 816.753 134.123 816.753 133.858V124.858C816.753 124.593 816.858 124.339 817.046 124.151ZM823.753 131.858C823.753 131.306 824.201 130.858 824.753 130.858H833.753C834.305 130.858 834.753 131.306 834.753 131.858V140.858C834.753 141.41 834.305 141.858 833.753 141.858H824.753C824.201 141.858 823.753 141.41 823.753 140.858V131.858ZM824.753 128.858C823.096 128.858 821.753 130.201 821.753 131.858V140.858C821.753 142.515 823.096 143.858 824.753 143.858H833.753C835.41 143.858 836.753 142.515 836.753 140.858V131.858C836.753 130.201 835.41 128.858 833.753 128.858H824.753Z" fill="#30387D" fill-opacity="0.69"/>
<g filter="url(#filter3_d_18_1553)">
<circle cx="760.018" cy="132.858" r="24.8441" fill="white"/>
<circle cx="760.018" cy="132.858" r="24.3441" stroke="#30387D" stroke-opacity="0.32"/>
</g>
<path fill-rule="evenodd" clip-rule="evenodd" d="M766.018 123.858C764.913 123.858 764.018 124.754 764.018 125.858C764.018 126.205 764.106 126.532 764.262 126.817C764.272 126.832 764.282 126.848 764.291 126.864C764.301 126.88 764.31 126.896 764.318 126.913C764.671 127.48 765.3 127.858 766.018 127.858C767.122 127.858 768.018 126.963 768.018 125.858C768.018 124.754 767.122 123.858 766.018 123.858ZM763.176 128.673C763.901 129.405 764.906 129.858 766.018 129.858C768.227 129.858 770.018 128.067 770.018 125.858C770.018 123.649 768.227 121.858 766.018 121.858C763.809 121.858 762.018 123.649 762.018 125.858C762.018 126.235 762.07 126.6 762.167 126.946L756.86 130.043C756.135 129.311 755.129 128.858 754.018 128.858C751.809 128.858 750.018 130.649 750.018 132.858C750.018 135.067 751.809 136.858 754.018 136.858C755.129 136.858 756.135 136.405 756.86 135.673L762.169 138.766C762.07 139.113 762.018 139.48 762.018 139.858C762.018 142.067 763.809 143.858 766.018 143.858C768.227 143.858 770.018 142.067 770.018 139.858C770.018 137.649 768.227 135.858 766.018 135.858C764.908 135.858 763.904 136.31 763.179 137.04L757.868 133.945C757.966 133.6 758.018 133.235 758.018 132.858C758.018 132.481 757.966 132.116 757.868 131.77L763.176 128.673ZM755.717 131.804C755.726 131.82 755.735 131.836 755.744 131.852C755.754 131.868 755.763 131.884 755.774 131.9C755.929 132.184 756.018 132.511 756.018 132.858C756.018 133.205 755.929 133.532 755.774 133.817C755.763 133.832 755.753 133.848 755.744 133.865C755.735 133.881 755.726 133.897 755.717 133.913C755.365 134.48 754.735 134.858 754.018 134.858C752.913 134.858 752.018 133.963 752.018 132.858C752.018 131.754 752.913 130.858 754.018 130.858C754.735 130.858 755.365 131.236 755.717 131.804ZM764.018 139.858C764.018 139.533 764.095 139.226 764.233 138.955C764.258 138.922 764.281 138.888 764.302 138.852C764.322 138.817 764.34 138.782 764.355 138.746C764.714 138.21 765.325 137.858 766.018 137.858C767.122 137.858 768.018 138.754 768.018 139.858C768.018 140.963 767.122 141.858 766.018 141.858C764.913 141.858 764.018 140.963 764.018 139.858Z" fill="#30387D" fill-opacity="0.69"/>
<defs>
<filter id="filter0_d_18_1553" x="740.381" y="0.753574" width="299.688" height="299.688" filterUnits="userSpaceOnUse" color-interpolation-filters="sRGB">
<feFlood flood-opacity="0" result="BackgroundImageFix"/>
<feColorMatrix in="SourceAlpha" type="matrix" values="0 0 0 0 0 0 0 0 0 0 0 0 0 0 0 0 0 0 127 0" result="hardAlpha"/>
<feOffset dy="17.7395"/>
<feGaussianBlur stdDeviation="62.5"/>
<feComposite in2="hardAlpha" operator="out"/>
<feColorMatrix type="matrix" values="0 0 0 0 0.188472 0 0 0 0 0.218792 0 0 0 0 0.491667 0 0 0 0.32 0"/>
<feBlend mode="normal" in2="BackgroundImageFix" result="effect1_dropShadow_18_1553"/>
<feBlend mode="normal" in="SourceGraphic" in2="effect1_dropShadow_18_1553" result="shape"/>
</filter>
<filter id="filter1_d_18_1553" x="804.854" y="0.753574" width="299.688" height="299.688" filterUnits="userSpaceOnUse" color-interpolation-filters="sRGB">
<feFlood flood-opacity="0" result="BackgroundImageFix"/>
<feColorMatrix in="SourceAlpha" type="matrix" values="0 0 0 0 0 0 0 0 0 0 0 0 0 0 0 0 0 0 127 0" result="hardAlpha"/>
<feOffset dy="17.7395"/>
<feGaussianBlur stdDeviation="62.5"/>
<feComposite in2="hardAlpha" operator="out"/>
<feColorMatrix type="matrix" values="0 0 0 0 0.188472 0 0 0 0 0.218792 0 0 0 0 0.491667 0 0 0 0.32 0"/>
<feBlend mode="normal" in2="BackgroundImageFix" result="effect1_dropShadow_18_1553"/>
<feBlend mode="normal" in="SourceGraphic" in2="effect1_dropShadow_18_1553" result="shape"/>
</filter>
<filter id="filter2_d_18_1553" x="675.909" y="0.753574" width="299.688" height="299.688" filterUnits="userSpaceOnUse" color-interpolation-filters="sRGB">
<feFlood flood-opacity="0" result="BackgroundImageFix"/>
<feColorMatrix in="SourceAlpha" type="matrix" values="0 0 0 0 0 0 0 0 0 0 0 0 0 0 0 0 0 0 127 0" result="hardAlpha"/>
<feOffset dy="17.7395"/>
<feGaussianBlur stdDeviation="62.5"/>
<feComposite in2="hardAlpha" operator="out"/>
<feColorMatrix type="matrix" values="0 0 0 0 0.188472 0 0 0 0 0.218792 0 0 0 0 0.491667 0 0 0 0.32 0"/>
<feBlend mode="normal" in2="BackgroundImageFix" result="effect1_dropShadow_18_1553"/>
<feBlend mode="normal" in="SourceGraphic" in2="effect1_dropShadow_18_1553" result="shape"/>
</filter>
<filter id="filter3_d_18_1553" x="610.174" y="0.753574" width="299.688" height="299.688" filterUnits="userSpaceOnUse" color-interpolation-filters="sRGB">
<feFlood flood-opacity="0" result="BackgroundImageFix"/>
<feColorMatrix in="SourceAlpha" type="matrix" values="0 0 0 0 0 0 0 0 0 0 0 0 0 0 0 0 0 0 127 0" result="hardAlpha"/>
<feOffset dy="17.7395"/>
<feGaussianBlur stdDeviation="62.5"/>
<feComposite in2="hardAlpha" operator="out"/>
<feColorMatrix type="matrix" values="0 0 0 0 0.188472 0 0 0 0 0.218792 0 0 0 0 0.491667 0 0 0 0.32 0"/>
<feBlend mode="normal" in2="BackgroundImageFix" result="effect1_dropShadow_18_1553"/>
<feBlend mode="normal" in="SourceGraphic" in2="effect1_dropShadow_18_1553" result="shape"/>
</filter>
</defs>
</svg>
