<svg width="1105" height="301" viewBox="0 0 1105 301" fill="none" xmlns="http://www.w3.org/2000/svg">
<rect x="0.832153" y="89.9058" width="1002.23" height="86.2083" rx="12" fill="white"/>
<rect x="1.33215" y="90.4058" width="1001.23" height="85.2083" rx="11.5" stroke="#30387D" stroke-opacity="0.24"/>
<g filter="url(#filter0_d_18_1592)">
<circle cx="890.225" cy="133.01" r="24.8441" fill="white"/>
<circle cx="890.225" cy="133.01" r="24.3441" stroke="#30387D" stroke-opacity="0.32"/>
</g>
<path d="M895.311 123.924C895.574 123.662 895.886 123.453 896.229 123.311C896.572 123.169 896.94 123.096 897.311 123.096C897.683 123.096 898.05 123.169 898.394 123.311C898.737 123.453 899.049 123.662 899.311 123.924C899.574 124.187 899.782 124.499 899.924 124.842C900.066 125.185 900.14 125.553 900.14 125.924C900.14 126.296 900.066 126.663 899.924 127.007C899.782 127.35 899.574 127.662 899.311 127.924L885.811 141.424L880.311 142.924L881.811 137.424L895.311 123.924Z" stroke="#30387D" stroke-opacity="0.69" stroke-width="2" stroke-linecap="round" stroke-linejoin="round"/>
<g filter="url(#filter1_d_18_1592)">
<circle cx="954.698" cy="133.01" r="24.8441" fill="white"/>
<circle cx="954.698" cy="133.01" r="24.3441" stroke="#30387D" stroke-opacity="0.32"/>
</g>
<path fill-rule="evenodd" clip-rule="evenodd" d="M951.991 124.303C952.178 124.115 952.433 124.01 952.698 124.01H956.698C956.963 124.01 957.217 124.115 957.405 124.303C957.592 124.49 957.698 124.745 957.698 125.01V126.01H951.698V125.01C951.698 124.745 951.803 124.49 951.991 124.303ZM949.698 126.01V125.01C949.698 124.214 950.014 123.451 950.576 122.889C951.139 122.326 951.902 122.01 952.698 122.01H956.698C957.493 122.01 958.257 122.326 958.819 122.889C959.382 123.451 959.698 124.214 959.698 125.01V126.01H961.698H963.698C964.25 126.01 964.698 126.458 964.698 127.01C964.698 127.562 964.25 128.01 963.698 128.01H962.698V141.01C962.698 141.806 962.382 142.569 961.819 143.131C961.257 143.694 960.493 144.01 959.698 144.01H949.698C948.902 144.01 948.139 143.694 947.576 143.131C947.014 142.569 946.698 141.806 946.698 141.01V128.01H945.698C945.146 128.01 944.698 127.562 944.698 127.01C944.698 126.458 945.146 126.01 945.698 126.01H947.698H949.698ZM948.698 128.01V141.01C948.698 141.275 948.803 141.53 948.991 141.717C949.178 141.905 949.433 142.01 949.698 142.01H959.698C959.963 142.01 960.217 141.905 960.405 141.717C960.592 141.53 960.698 141.275 960.698 141.01V128.01H958.698H950.698H948.698ZM952.698 131.01C953.25 131.01 953.698 131.458 953.698 132.01V138.01C953.698 138.562 953.25 139.01 952.698 139.01C952.146 139.01 951.698 138.562 951.698 138.01V132.01C951.698 131.458 952.146 131.01 952.698 131.01ZM957.698 138.01V132.01C957.698 131.458 957.25 131.01 956.698 131.01C956.146 131.01 955.698 131.458 955.698 132.01V138.01C955.698 138.562 956.146 139.01 956.698 139.01C957.25 139.01 957.698 138.562 957.698 138.01Z" fill="#FF7777"/>
<g filter="url(#filter2_d_18_1592)">
<circle cx="825.753" cy="133.01" r="24.8441" fill="white"/>
<circle cx="825.753" cy="133.01" r="24.3441" stroke="#30387D" stroke-opacity="0.32"/>
</g>
<path fill-rule="evenodd" clip-rule="evenodd" d="M817.046 124.303C817.233 124.115 817.488 124.01 817.753 124.01H826.753C827.018 124.01 827.273 124.115 827.46 124.303C827.648 124.49 827.753 124.745 827.753 125.01V126.01C827.753 126.562 828.201 127.01 828.753 127.01C829.305 127.01 829.753 126.562 829.753 126.01V125.01C829.753 124.214 829.437 123.451 828.874 122.889C828.312 122.326 827.549 122.01 826.753 122.01H817.753C816.957 122.01 816.194 122.326 815.632 122.889C815.069 123.451 814.753 124.214 814.753 125.01V134.01C814.753 134.806 815.069 135.569 815.632 136.131C816.194 136.694 816.957 137.01 817.753 137.01H818.753C819.305 137.01 819.753 136.562 819.753 136.01C819.753 135.458 819.305 135.01 818.753 135.01H817.753C817.488 135.01 817.233 134.905 817.046 134.717C816.858 134.53 816.753 134.275 816.753 134.01V125.01C816.753 124.745 816.858 124.49 817.046 124.303ZM823.753 132.01C823.753 131.458 824.201 131.01 824.753 131.01H833.753C834.305 131.01 834.753 131.458 834.753 132.01V141.01C834.753 141.562 834.305 142.01 833.753 142.01H824.753C824.201 142.01 823.753 141.562 823.753 141.01V132.01ZM824.753 129.01C823.096 129.01 821.753 130.353 821.753 132.01V141.01C821.753 142.667 823.096 144.01 824.753 144.01H833.753C835.41 144.01 836.753 142.667 836.753 141.01V132.01C836.753 130.353 835.41 129.01 833.753 129.01H824.753Z" fill="#30387D" fill-opacity="0.69"/>
<g filter="url(#filter3_d_18_1592)">
<circle cx="760.018" cy="133.01" r="24.8441" fill="white"/>
<circle cx="760.018" cy="133.01" r="24.3441" stroke="#30387D" stroke-opacity="0.32"/>
</g>
<path fill-rule="evenodd" clip-rule="evenodd" d="M766.018 124.01C764.913 124.01 764.018 124.905 764.018 126.01C764.018 126.357 764.106 126.684 764.262 126.969C764.272 126.984 764.282 127 764.291 127.016C764.301 127.032 764.31 127.048 764.318 127.065C764.671 127.632 765.3 128.01 766.018 128.01C767.122 128.01 768.018 127.115 768.018 126.01C768.018 124.905 767.122 124.01 766.018 124.01ZM763.176 128.825C763.901 129.557 764.906 130.01 766.018 130.01C768.227 130.01 770.018 128.219 770.018 126.01C770.018 123.801 768.227 122.01 766.018 122.01C763.809 122.01 762.018 123.801 762.018 126.01C762.018 126.387 762.07 126.752 762.167 127.098L756.86 130.195C756.135 129.463 755.129 129.01 754.018 129.01C751.809 129.01 750.018 130.801 750.018 133.01C750.018 135.219 751.809 137.01 754.018 137.01C755.129 137.01 756.135 136.557 756.86 135.824L762.169 138.918C762.07 139.265 762.018 139.631 762.018 140.01C762.018 142.219 763.809 144.01 766.018 144.01C768.227 144.01 770.018 142.219 770.018 140.01C770.018 137.801 768.227 136.01 766.018 136.01C764.908 136.01 763.904 136.462 763.179 137.192L757.868 134.097C757.966 133.751 758.018 133.387 758.018 133.01C758.018 132.633 757.966 132.268 757.868 131.922L763.176 128.825ZM755.717 131.955C755.726 131.972 755.735 131.988 755.744 132.004C755.754 132.02 755.763 132.036 755.774 132.051C755.929 132.336 756.018 132.663 756.018 133.01C756.018 133.357 755.929 133.684 755.774 133.969C755.763 133.984 755.753 134 755.744 134.017C755.735 134.032 755.726 134.048 755.717 134.065C755.365 134.632 754.735 135.01 754.018 135.01C752.913 135.01 752.018 134.115 752.018 133.01C752.018 131.905 752.913 131.01 754.018 131.01C754.735 131.01 755.365 131.388 755.717 131.955ZM764.018 140.01C764.018 139.685 764.095 139.378 764.233 139.106C764.258 139.074 764.281 139.04 764.302 139.003C764.322 138.969 764.34 138.933 764.355 138.898C764.714 138.362 765.325 138.01 766.018 138.01C767.122 138.01 768.018 138.905 768.018 140.01C768.018 141.115 767.122 142.01 766.018 142.01C764.913 142.01 764.018 141.115 764.018 140.01Z" fill="#30387D" fill-opacity="0.69"/>
<defs>
<filter id="filter0_d_18_1592" x="740.381" y="0.90543" width="299.688" height="299.688" filterUnits="userSpaceOnUse" color-interpolation-filters="sRGB">
<feFlood flood-opacity="0" result="BackgroundImageFix"/>
<feColorMatrix in="SourceAlpha" type="matrix" values="0 0 0 0 0 0 0 0 0 0 0 0 0 0 0 0 0 0 127 0" result="hardAlpha"/>
<feOffset dy="17.7395"/>
<feGaussianBlur stdDeviation="62.5"/>
<feComposite in2="hardAlpha" operator="out"/>
<feColorMatrix type="matrix" values="0 0 0 0 0.188472 0 0 0 0 0.218792 0 0 0 0 0.491667 0 0 0 0.32 0"/>
<feBlend mode="normal" in2="BackgroundImageFix" result="effect1_dropShadow_18_1592"/>
<feBlend mode="normal" in="SourceGraphic" in2="effect1_dropShadow_18_1592" result="shape"/>
</filter>
<filter id="filter1_d_18_1592" x="804.854" y="0.90543" width="299.688" height="299.688" filterUnits="userSpaceOnUse" color-interpolation-filters="sRGB">
<feFlood flood-opacity="0" result="BackgroundImageFix"/>
<feColorMatrix in="SourceAlpha" type="matrix" values="0 0 0 0 0 0 0 0 0 0 0 0 0 0 0 0 0 0 127 0" result="hardAlpha"/>
<feOffset dy="17.7395"/>
<feGaussianBlur stdDeviation="62.5"/>
<feComposite in2="hardAlpha" operator="out"/>
<feColorMatrix type="matrix" values="0 0 0 0 0.188472 0 0 0 0 0.218792 0 0 0 0 0.491667 0 0 0 0.32 0"/>
<feBlend mode="normal" in2="BackgroundImageFix" result="effect1_dropShadow_18_1592"/>
<feBlend mode="normal" in="SourceGraphic" in2="effect1_dropShadow_18_1592" result="shape"/>
</filter>
<filter id="filter2_d_18_1592" x="675.909" y="0.90543" width="299.688" height="299.688" filterUnits="userSpaceOnUse" color-interpolation-filters="sRGB">
<feFlood flood-opacity="0" result="BackgroundImageFix"/>
<feColorMatrix in="SourceAlpha" type="matrix" values="0 0 0 0 0 0 0 0 0 0 0 0 0 0 0 0 0 0 127 0" result="hardAlpha"/>
<feOffset dy="17.7395"/>
<feGaussianBlur stdDeviation="62.5"/>
<feComposite in2="hardAlpha" operator="out"/>
<feColorMatrix type="matrix" values="0 0 0 0 0.188472 0 0 0 0 0.218792 0 0 0 0 0.491667 0 0 0 0.32 0"/>
<feBlend mode="normal" in2="BackgroundImageFix" result="effect1_dropShadow_18_1592"/>
<feBlend mode="normal" in="SourceGraphic" in2="effect1_dropShadow_18_1592" result="shape"/>
</filter>
<filter id="filter3_d_18_1592" x="610.174" y="0.90543" width="299.688" height="299.688" filterUnits="userSpaceOnUse" color-interpolation-filters="sRGB">
<feFlood flood-opacity="0" result="BackgroundImageFix"/>
<feColorMatrix in="SourceAlpha" type="matrix" values="0 0 0 0 0 0 0 0 0 0 0 0 0 0 0 0 0 0 127 0" result="hardAlpha"/>
<feOffset dy="17.7395"/>
<feGaussianBlur stdDeviation="62.5"/>
<feComposite in2="hardAlpha" operator="out"/>
<feColorMatrix type="matrix" values="0 0 0 0 0.188472 0 0 0 0 0.218792 0 0 0 0 0.491667 0 0 0 0.32 0"/>
<feBlend mode="normal" in2="BackgroundImageFix" result="effect1_dropShadow_18_1592"/>
<feBlend mode="normal" in="SourceGraphic" in2="effect1_dropShadow_18_1592" result="shape"/>
</filter>
</defs>
</svg>
