<svg width="53" height="54" viewBox="0 0 53 54" fill="none" xmlns="http://www.w3.org/2000/svg">
<circle cx="26.6907" cy="27.1208" r="26.2168" fill="#B9FFCD"/>
<path d="M33.7698 18.2434L22.8594 21.4653C22.6379 21.5349 22.4444 21.6733 22.307 21.8604C22.1696 22.0475 22.0954 22.2735 22.0953 22.5057V31.4192C21.738 31.3325 21.3718 31.2877 21.0041 31.2856C19.1969 31.2856 17.7307 32.2628 17.7307 33.4679C17.7307 34.6729 19.1969 35.6501 21.0041 35.6501C22.8113 35.6501 24.2775 34.6729 24.2775 33.4679V25.4998L33.0067 22.9425V29.2373C32.6494 29.1503 32.2832 29.1053 31.9155 29.1033C30.1083 29.1033 28.6421 30.0806 28.6421 31.2856C28.6421 32.4906 30.1083 33.4679 31.9155 33.4679C33.7227 33.4679 35.1889 32.4909 35.1889 31.2856V19.283C35.1888 19.1118 35.1483 18.9429 35.0708 18.7902C34.9932 18.6374 34.8808 18.5051 34.7426 18.4038C34.6044 18.3026 34.4444 18.2353 34.2754 18.2075C34.1063 18.1796 33.9331 18.1919 33.7698 18.2434Z" fill="#5DD849"/>
</svg>
