<svg width="1004" height="87" viewBox="0 0 1004 87" fill="none" xmlns="http://www.w3.org/2000/svg">
<rect x="0.832153" width="1002.23" height="86.2083" rx="12" fill="white"/>
<rect x="1.33215" y="0.5" width="1001.23" height="85.2083" rx="11.5" stroke="#30387D" stroke-opacity="0.24"/>
<circle cx="890.225" cy="43.1043" r="24.8441" fill="white"/>
<circle cx="890.225" cy="43.1043" r="24.3441" stroke="#30387D" stroke-opacity="0.32"/>
<path d="M895.311 34.0185C895.574 33.7558 895.886 33.5475 896.229 33.4054C896.572 33.2632 896.94 33.1901 897.311 33.1901C897.683 33.1901 898.051 33.2632 898.394 33.4054C898.737 33.5475 899.049 33.7558 899.311 34.0185C899.574 34.2811 899.782 34.5929 899.924 34.9361C900.067 35.2793 900.14 35.6471 900.14 36.0185C900.14 36.3899 900.067 36.7577 899.924 37.1009C899.782 37.444 899.574 37.7558 899.311 38.0185L885.811 51.5185L880.311 53.0185L881.811 47.5185L895.311 34.0185Z" stroke="#30387D" stroke-opacity="0.69" stroke-width="2" stroke-linecap="round" stroke-linejoin="round"/>
<circle cx="954.698" cy="43.1043" r="24.8441" fill="white"/>
<circle cx="954.698" cy="43.1043" r="24.3441" stroke="#30387D" stroke-opacity="0.32"/>
<path d="M945.698 37.1042H947.698H963.698" stroke="#EB4335" stroke-width="2" stroke-linecap="round" stroke-linejoin="round"/>
<path d="M950.698 37.1042V35.1042C950.698 34.5738 950.908 34.0651 951.284 33.69C951.659 33.315 952.167 33.1042 952.698 33.1042H956.698C957.228 33.1042 957.737 33.315 958.112 33.69C958.487 34.0651 958.698 34.5738 958.698 35.1042V37.1042M961.698 37.1042V51.1042C961.698 51.6347 961.487 52.1434 961.112 52.5185C960.737 52.8935 960.228 53.1042 959.698 53.1042H949.698C949.167 53.1042 948.659 52.8935 948.284 52.5185C947.908 52.1434 947.698 51.6347 947.698 51.1042V37.1042H961.698Z" stroke="#EB4335" stroke-width="2" stroke-linecap="round" stroke-linejoin="round"/>
<path d="M952.698 42.1042V48.1042" stroke="#EB4335" stroke-width="2" stroke-linecap="round" stroke-linejoin="round"/>
<path d="M956.698 42.1042V48.1042" stroke="#EB4335" stroke-width="2" stroke-linecap="round" stroke-linejoin="round"/>
<circle cx="825.753" cy="43.1043" r="24.8441" fill="white"/>
<circle cx="825.753" cy="43.1043" r="24.3441" stroke="#30387D" stroke-opacity="0.32"/>
<path d="M833.753 40.1042H824.753C823.648 40.1042 822.753 40.9997 822.753 42.1042V51.1042C822.753 52.2088 823.648 53.1042 824.753 53.1042H833.753C834.857 53.1042 835.753 52.2088 835.753 51.1042V42.1042C835.753 40.9997 834.857 40.1042 833.753 40.1042Z" stroke="#7076A6" stroke-width="2" stroke-linecap="round" stroke-linejoin="round"/>
<path d="M818.753 46.1042H817.753C817.222 46.1042 816.714 45.8935 816.339 45.5185C815.964 45.1434 815.753 44.6347 815.753 44.1042V35.1042C815.753 34.5738 815.964 34.0651 816.339 33.69C816.714 33.315 817.222 33.1042 817.753 33.1042H826.753C827.283 33.1042 827.792 33.315 828.167 33.69C828.542 34.0651 828.753 34.5738 828.753 35.1042V36.1042" stroke="#7076A6" stroke-width="2" stroke-linecap="round" stroke-linejoin="round"/>
<circle cx="760.018" cy="43.1043" r="24.8441" fill="white"/>
<circle cx="760.018" cy="43.1043" r="24.3441" stroke="#30387D" stroke-opacity="0.32"/>
<path d="M766.018 39.1042C767.674 39.1042 769.018 37.7611 769.018 36.1042C769.018 34.4474 767.674 33.1042 766.018 33.1042C764.361 33.1042 763.018 34.4474 763.018 36.1042C763.018 37.7611 764.361 39.1042 766.018 39.1042Z" stroke="#7076A6" stroke-width="2" stroke-linecap="round" stroke-linejoin="round"/>
<path d="M754.018 46.1042C755.674 46.1042 757.018 44.7611 757.018 43.1042C757.018 41.4474 755.674 40.1042 754.018 40.1042C752.361 40.1042 751.018 41.4474 751.018 43.1042C751.018 44.7611 752.361 46.1042 754.018 46.1042Z" stroke="#7076A6" stroke-width="2" stroke-linecap="round" stroke-linejoin="round"/>
<path d="M766.018 53.1042C767.674 53.1042 769.018 51.7611 769.018 50.1042C769.018 48.4474 767.674 47.1042 766.018 47.1042C764.361 47.1042 763.018 48.4474 763.018 50.1042C763.018 51.7611 764.361 53.1042 766.018 53.1042Z" stroke="#7076A6" stroke-width="2" stroke-linecap="round" stroke-linejoin="round"/>
<path d="M756.608 44.6143L763.438 48.5943" stroke="#7076A6" stroke-width="2" stroke-linecap="round" stroke-linejoin="round"/>
<path d="M763.428 37.6143L756.608 41.5943" stroke="#7076A6" stroke-width="2" stroke-linecap="round" stroke-linejoin="round"/>
</svg>
