<svg width="374" height="195" viewBox="0 0 374 195" fill="none" xmlns="http://www.w3.org/2000/svg">
<g filter="url(#filter0_d_32_865)">
<rect x="46.3327" y="29.2461" width="281.634" height="102.442" rx="12" fill="white"/>
</g>
<circle cx="220.017" cy="80.467" r="24.8441" fill="white"/>
<circle cx="220.017" cy="80.467" r="24.3441" stroke="#30387D" stroke-opacity="0.32"/>
<path d="M225.103 71.3813C225.366 71.1186 225.678 70.9103 226.021 70.7682C226.364 70.626 226.732 70.5529 227.103 70.5529C227.475 70.5529 227.842 70.626 228.186 70.7682C228.529 70.9103 228.841 71.1186 229.103 71.3813C229.366 71.6439 229.574 71.9557 229.716 72.2989C229.858 72.6421 229.932 73.0098 229.932 73.3813C229.932 73.7527 229.858 74.1205 229.716 74.4637C229.574 74.8068 229.366 75.1186 229.103 75.3813L215.603 88.8813L210.103 90.3813L211.603 84.8813L225.103 71.3813Z" stroke="#30387D" stroke-opacity="0.69" stroke-width="2" stroke-linecap="round" stroke-linejoin="round"/>
<circle cx="284.49" cy="80.467" r="24.8441" fill="white"/>
<circle cx="284.49" cy="80.467" r="24.3441" stroke="#30387D" stroke-opacity="0.32"/>
<path d="M275.49 74.467H277.49H293.49" stroke="#7076A6" stroke-width="2" stroke-linecap="round" stroke-linejoin="round"/>
<path d="M280.49 74.467V72.467C280.49 71.9366 280.701 71.4279 281.076 71.0528C281.451 70.6778 281.959 70.467 282.49 70.467H286.49C287.02 70.467 287.529 70.6778 287.904 71.0528C288.279 71.4279 288.49 71.9366 288.49 72.467V74.467M291.49 74.467V88.467C291.49 88.9975 291.279 89.5062 290.904 89.8813C290.529 90.2563 290.02 90.467 289.49 90.467H279.49C278.959 90.467 278.451 90.2563 278.076 89.8813C277.701 89.5062 277.49 88.9975 277.49 88.467V74.467H291.49Z" stroke="#7076A6" stroke-width="2" stroke-linecap="round" stroke-linejoin="round"/>
<path d="M282.49 79.467V85.467" stroke="#7076A6" stroke-width="2" stroke-linecap="round" stroke-linejoin="round"/>
<path d="M286.49 79.467V85.467" stroke="#7076A6" stroke-width="2" stroke-linecap="round" stroke-linejoin="round"/>
<circle cx="155.545" cy="80.467" r="24.8441" fill="white"/>
<circle cx="155.545" cy="80.467" r="24.3441" stroke="#30387D" stroke-opacity="0.32"/>
<path d="M163.545 77.467H154.545C153.44 77.467 152.545 78.3625 152.545 79.467V88.467C152.545 89.5716 153.44 90.467 154.545 90.467H163.545C164.65 90.467 165.545 89.5716 165.545 88.467V79.467C165.545 78.3625 164.65 77.467 163.545 77.467Z" stroke="#7076A6" stroke-width="2" stroke-linecap="round" stroke-linejoin="round"/>
<path d="M148.545 83.467H147.545C147.015 83.467 146.506 83.2563 146.131 82.8813C145.756 82.5062 145.545 81.9975 145.545 81.467V72.467C145.545 71.9366 145.756 71.4279 146.131 71.0528C146.506 70.6778 147.015 70.467 147.545 70.467H156.545C157.075 70.467 157.584 70.6778 157.959 71.0528C158.334 71.4279 158.545 71.9366 158.545 72.467V73.467" stroke="#7076A6" stroke-width="2" stroke-linecap="round" stroke-linejoin="round"/>
<circle cx="89.8098" cy="80.467" r="24.8441" fill="white"/>
<circle cx="89.8098" cy="80.467" r="24.3441" stroke="#30387D" stroke-opacity="0.32"/>
<path d="M95.8098 76.467C97.4666 76.467 98.8098 75.1239 98.8098 73.467C98.8098 71.8102 97.4666 70.467 95.8098 70.467C94.1529 70.467 92.8098 71.8102 92.8098 73.467C92.8098 75.1239 94.1529 76.467 95.8098 76.467Z" stroke="#7076A6" stroke-width="2" stroke-linecap="round" stroke-linejoin="round"/>
<path d="M83.8098 83.467C85.4666 83.467 86.8098 82.1239 86.8098 80.467C86.8098 78.8102 85.4666 77.467 83.8098 77.467C82.1529 77.467 80.8098 78.8102 80.8098 80.467C80.8098 82.1239 82.1529 83.467 83.8098 83.467Z" stroke="#7076A6" stroke-width="2" stroke-linecap="round" stroke-linejoin="round"/>
<path d="M95.8098 90.467C97.4666 90.467 98.8098 89.1239 98.8098 87.467C98.8098 85.8102 97.4666 84.467 95.8098 84.467C94.1529 84.467 92.8098 85.8102 92.8098 87.467C92.8098 89.1239 94.1529 90.467 95.8098 90.467Z" stroke="#7076A6" stroke-width="2" stroke-linecap="round" stroke-linejoin="round"/>
<path d="M86.3998 81.9771L93.2298 85.9571" stroke="#7076A6" stroke-width="2" stroke-linecap="round" stroke-linejoin="round"/>
<path d="M93.2198 74.9771L86.3998 78.9571" stroke="#7076A6" stroke-width="2" stroke-linecap="round" stroke-linejoin="round"/>
<defs>
<filter id="filter0_d_32_865" x="0.332703" y="0.246094" width="373.634" height="194.442" filterUnits="userSpaceOnUse" color-interpolation-filters="sRGB">
<feFlood flood-opacity="0" result="BackgroundImageFix"/>
<feColorMatrix in="SourceAlpha" type="matrix" values="0 0 0 0 0 0 0 0 0 0 0 0 0 0 0 0 0 0 127 0" result="hardAlpha"/>
<feOffset dy="17"/>
<feGaussianBlur stdDeviation="23"/>
<feComposite in2="hardAlpha" operator="out"/>
<feColorMatrix type="matrix" values="0 0 0 0 0 0 0 0 0 0 0 0 0 0 0 0 0 0 0.25 0"/>
<feBlend mode="normal" in2="BackgroundImageFix" result="effect1_dropShadow_32_865"/>
<feBlend mode="normal" in="SourceGraphic" in2="effect1_dropShadow_32_865" result="shape"/>
</filter>
</defs>
</svg>
