<svg width="58" height="58" viewBox="0 0 58 58" fill="none" xmlns="http://www.w3.org/2000/svg">
<circle cx="29.0439" cy="28.6787" r="28.6787" fill="white"/>
<path fill-rule="evenodd" clip-rule="evenodd" d="M34.3901 17.7943C35.808 19.2122 36.6046 21.1353 36.6046 23.1405C36.6046 31.9613 40.385 34.4815 40.385 34.4815H17.7029C17.7029 34.4815 21.4832 31.9613 21.4832 23.1405C21.4832 21.1353 22.2798 19.2122 23.6977 17.7943C25.1156 16.3764 27.0387 15.5798 29.0439 15.5798C31.0491 15.5798 32.9722 16.3764 34.3901 17.7943ZM27.7289 39.0202C27.4518 38.5425 26.8399 38.3799 26.3621 38.657C25.8844 38.9341 25.7218 39.546 25.9989 40.0238C26.3084 40.5572 26.7525 41 27.2869 41.3078C27.8213 41.6156 28.4272 41.7776 29.0439 41.7776C29.6606 41.7776 30.2665 41.6156 30.8009 41.3078C31.3353 41 31.7795 40.5572 32.0889 40.0238C32.366 39.546 32.2034 38.9341 31.7257 38.657C31.248 38.3799 30.636 38.5425 30.3589 39.0202C30.2253 39.2506 30.0335 39.4418 29.8027 39.5747C29.5719 39.7077 29.3102 39.7776 29.0439 39.7776C28.7776 39.7776 28.5159 39.7077 28.2852 39.5747C28.0544 39.4418 27.8626 39.2506 27.7289 39.0202Z" fill="#6A82FF"/>
</svg>
