<svg width="16" height="15" viewBox="0 0 16 15" fill="none" xmlns="http://www.w3.org/2000/svg">
<path d="M6.59082 8.11303C6.86446 8.47886 7.21359 8.78156 7.6145 9.0006C8.01542 9.21964 8.45876 9.3499 8.91444 9.38253C9.37013 9.41517 9.8275 9.34942 10.2555 9.18975C10.6836 9.03008 11.0723 8.78022 11.3953 8.45712L13.3068 6.54554C13.8872 5.94466 14.2083 5.13987 14.2011 4.30452C14.1938 3.46917 13.8587 2.67009 13.268 2.07939C12.6773 1.48868 11.8782 1.15362 11.0429 1.14636C10.2075 1.1391 9.40276 1.46023 8.80188 2.04058L7.70591 3.13018" stroke="#7076A6" stroke-width="2" stroke-linecap="round" stroke-linejoin="round"/>
<path d="M9.13959 6.83868C8.86595 6.47285 8.51683 6.17014 8.11591 5.9511C7.71499 5.73206 7.27166 5.60181 6.81597 5.56917C6.36029 5.53654 5.90291 5.60229 5.47487 5.76196C5.04683 5.92163 4.65814 6.17149 4.33515 6.49459L2.42357 8.40617C1.84322 9.00705 1.5221 9.81184 1.52936 10.6472C1.53662 11.4825 1.87168 12.2816 2.46238 12.8723C3.05309 13.463 3.85217 13.7981 4.68752 13.8053C5.52287 13.8126 6.32765 13.4915 6.92853 12.9111L8.01813 11.8215" stroke="#7076A6" stroke-width="2" stroke-linecap="round" stroke-linejoin="round"/>
</svg>
