<svg width="23" height="22" viewBox="0 0 23 22" fill="none" xmlns="http://www.w3.org/2000/svg">
<path fill-rule="evenodd" clip-rule="evenodd" d="M16.4382 0.0766428C14.865 0.0629723 13.3494 0.667739 12.2177 1.76069L12.2074 1.77081L10.4874 3.48081C10.0958 3.87019 10.0939 4.50336 10.4833 4.89502C10.8727 5.28668 11.5058 5.28852 11.8975 4.89914L13.6121 3.19451C14.366 2.46888 15.3743 2.06747 16.4208 2.07657C17.4696 2.08568 18.4728 2.50636 19.2144 3.24799C19.9561 3.98962 20.3768 4.99287 20.3859 6.04166C20.395 7.08771 19.9939 8.09558 19.2689 8.84935L16.2754 11.8429L16.2752 11.843C15.8697 12.2487 15.3817 12.5624 14.8443 12.7628C14.3069 12.9633 13.7327 13.0458 13.1605 13.0049C12.5884 12.9639 12.0318 12.8004 11.5285 12.5253C11.0251 12.2503 10.5868 11.8703 10.2432 11.411C9.91242 10.9687 9.28573 10.8784 8.84348 11.2092C8.40123 11.54 8.31089 12.1667 8.6417 12.609C9.15704 13.2979 9.81452 13.868 10.5696 14.2805C11.3246 14.693 12.1595 14.9383 13.0177 14.9998C13.8758 15.0612 14.7372 14.9374 15.5433 14.6367C16.3494 14.336 17.0814 13.8654 17.6897 13.257L20.6896 10.2571L20.7017 10.2447C21.7947 9.11307 22.3995 7.59746 22.3858 6.02428C22.3721 4.4511 21.7411 2.94622 20.6287 1.83378C19.5162 0.721327 18.0113 0.0903133 16.4382 0.0766428ZM9.86724 7.0202C9.00907 6.95874 8.14772 7.08256 7.34161 7.38326C6.53556 7.68394 5.80359 8.15445 5.19535 8.76287L5.19523 8.763L2.19535 11.7629L2.18317 11.7753C1.09022 12.9069 0.485458 14.4225 0.499128 15.9957C0.512799 17.5689 1.14381 19.0737 2.25626 20.1862C3.36871 21.2986 4.87358 21.9296 6.44676 21.9433C8.01995 21.957 9.53556 21.3522 10.6672 20.2593L10.6796 20.2471L12.3896 18.5371C12.7801 18.1466 12.7801 17.5134 12.3896 17.1229C11.999 16.7323 11.3659 16.7323 10.9754 17.1229L9.27183 18.8264C8.51806 19.5514 7.51019 19.9525 6.46414 19.9434C5.41536 19.9343 4.41211 19.5136 3.67047 18.772C2.92884 18.0303 2.50817 17.0271 2.49905 15.9783C2.48996 14.9322 2.89102 13.9244 3.61605 13.1706L6.60957 10.1771L6.6097 10.177C7.0152 9.7713 7.50321 9.4576 8.04062 9.25713C8.57803 9.05666 9.15226 8.97411 9.72437 9.01509C10.2965 9.05606 10.8531 9.2196 11.3565 9.4946C11.8598 9.76961 12.2981 10.1497 12.6417 10.609C12.9725 11.0512 13.5992 11.1415 14.0414 10.8107C14.4837 10.4799 14.574 9.85325 14.2432 9.411C13.7279 8.72204 13.0704 8.15198 12.3154 7.73947C11.5603 7.32696 10.7254 7.08166 9.86724 7.0202Z" fill="#30387D" fill-opacity="0.69"/>
</svg>
