<svg width="21" height="21" viewBox="0 0 21 21" fill="none" xmlns="http://www.w3.org/2000/svg">
<path fill-rule="evenodd" clip-rule="evenodd" d="M2.86841 9.59955C2.86841 5.73355 6.00241 2.59955 9.86841 2.59955C13.7344 2.59955 16.8684 5.73355 16.8684 9.59955C16.8684 11.4855 16.1226 13.1972 14.9098 14.4559C14.8756 14.4823 14.8427 14.5111 14.8113 14.5424C14.7799 14.5738 14.7511 14.6067 14.7248 14.6409C13.4661 15.8537 11.7544 16.5995 9.86841 16.5995C6.00241 16.5995 2.86841 13.4655 2.86841 9.59955ZM15.4861 16.6314C13.9464 17.8631 11.9934 18.5995 9.86841 18.5995C4.89785 18.5995 0.868408 14.5701 0.868408 9.59955C0.868408 4.62899 4.89785 0.599548 9.86841 0.599548C14.839 0.599548 18.8684 4.62899 18.8684 9.59955C18.8684 11.7246 18.1319 13.6776 16.9003 15.2172L20.5755 18.8924C20.966 19.283 20.966 19.9161 20.5755 20.3067C20.185 20.6972 19.5518 20.6972 19.1613 20.3067L15.4861 16.6314Z" fill="#30387D" fill-opacity="0.52"/>
</svg>
