<svg width="16" height="4" viewBox="0 0 16 4" fill="none" xmlns="http://www.w3.org/2000/svg">
<path fill-rule="evenodd" clip-rule="evenodd" d="M2.15125 0.29007C1.23902 0.29007 0.499512 1.02958 0.499512 1.94181C0.499512 2.85404 1.23902 3.59355 2.15125 3.59355C3.06348 3.59355 3.80299 2.85404 3.80299 1.94181C3.80299 1.02958 3.06348 0.29007 2.15125 0.29007ZM6.28059 1.94181C6.28059 1.02958 7.0201 0.29007 7.93233 0.29007C8.84456 0.29007 9.58407 1.02958 9.58407 1.94181C9.58407 2.85404 8.84456 3.59355 7.93233 3.59355C7.0201 3.59355 6.28059 2.85404 6.28059 1.94181ZM12.0617 1.94181C12.0617 1.02958 12.8012 0.29007 13.7134 0.29007C14.6256 0.29007 15.3651 1.02958 15.3651 1.94181C15.3651 2.85404 14.6256 3.59355 13.7134 3.59355C12.8012 3.59355 12.0617 2.85404 12.0617 1.94181Z" fill="#30387D" fill-opacity="0.12"/>
</svg>
