<svg width="23" height="5" viewBox="0 0 23 5" fill="none" xmlns="http://www.w3.org/2000/svg">
<path fill-rule="evenodd" clip-rule="evenodd" d="M3.14005 0.000488281C1.83375 0.000488281 0.77478 1.05946 0.77478 2.36576C0.77478 3.67206 1.83375 4.73103 3.14005 4.73103C4.44636 4.73103 5.50532 3.67206 5.50532 2.36576C5.50532 1.05946 4.44636 0.000488281 3.14005 0.000488281ZM9.05323 2.36576C9.05323 1.05946 10.1122 0.000488281 11.4185 0.000488281C12.7248 0.000488281 13.7838 1.05946 13.7838 2.36576C13.7838 3.67206 12.7248 4.73103 11.4185 4.73103C10.1122 4.73103 9.05323 3.67206 9.05323 2.36576ZM17.3317 2.36576C17.3317 1.05946 18.3906 0.000488281 19.697 0.000488281C21.0033 0.000488281 22.0622 1.05946 22.0622 2.36576C22.0622 3.67206 21.0033 4.73103 19.697 4.73103C18.3906 4.73103 17.3317 3.67206 17.3317 2.36576Z" fill="#30387D" fill-opacity="0.12"/>
</svg>
