<svg width="23" height="5" viewBox="0 0 23 5" fill="none" xmlns="http://www.w3.org/2000/svg">
<path fill-rule="evenodd" clip-rule="evenodd" d="M3.35294 0.077774C2.04664 0.077774 0.987671 1.13674 0.987671 2.44304C0.987671 3.74935 2.04664 4.80832 3.35294 4.80832C4.65924 4.80832 5.71821 3.74935 5.71821 2.44304C5.71821 1.13674 4.65924 0.077774 3.35294 0.077774ZM9.26612 2.44304C9.26612 1.13674 10.3251 0.077774 11.6314 0.077774C12.9377 0.077774 13.9967 1.13674 13.9967 2.44304C13.9967 3.74935 12.9377 4.80832 11.6314 4.80832C10.3251 4.80832 9.26612 3.74935 9.26612 2.44304ZM17.5446 2.44304C17.5446 1.13674 18.6035 0.077774 19.9098 0.077774C21.2161 0.077774 22.2751 1.13674 22.2751 2.44304C22.2751 3.74935 21.2161 4.80832 19.9098 4.80832C18.6035 4.80832 17.5446 3.74935 17.5446 2.44304Z" fill="#30387D" fill-opacity="0.12"/>
</svg>
