<svg width="16" height="5" viewBox="0 0 16 5" fill="none" xmlns="http://www.w3.org/2000/svg">
<path fill-rule="evenodd" clip-rule="evenodd" d="M2.5835 0.984024C1.67127 0.984024 0.931763 1.72353 0.931763 2.63576C0.931763 3.54799 1.67127 4.2875 2.5835 4.2875C3.49573 4.2875 4.23524 3.54799 4.23524 2.63576C4.23524 1.72353 3.49573 0.984024 2.5835 0.984024ZM6.71288 2.63576C6.71288 1.72353 7.45239 0.984024 8.36462 0.984024C9.27685 0.984024 10.0164 1.72353 10.0164 2.63576C10.0164 3.54799 9.27685 4.2875 8.36462 4.2875C7.45239 4.2875 6.71288 3.54799 6.71288 2.63576ZM12.494 2.63576C12.494 1.72353 13.2335 0.984024 14.1457 0.984024C15.0579 0.984024 15.7974 1.72353 15.7974 2.63576C15.7974 3.54799 15.0579 4.2875 14.1457 4.2875C13.2335 4.2875 12.494 3.54799 12.494 2.63576Z" fill="#30387D" fill-opacity="0.12"/>
</svg>
