<svg width="21" height="21" viewBox="0 0 21 21" fill="none" xmlns="http://www.w3.org/2000/svg">
<path fill-rule="evenodd" clip-rule="evenodd" d="M2.97095 9.45935C2.97095 5.59336 6.10495 2.45935 9.97095 2.45935C13.8369 2.45935 16.9709 5.59336 16.9709 9.45935C16.9709 11.3453 16.2251 13.057 15.0123 14.3157C14.9781 14.3421 14.9452 14.3709 14.9138 14.4022C14.8825 14.4336 14.8537 14.4665 14.8273 14.5007C13.5686 15.7135 11.8569 16.4594 9.97095 16.4594C6.10495 16.4594 2.97095 13.3253 2.97095 9.45935ZM15.5886 16.4912C14.049 17.7229 12.096 18.4594 9.97095 18.4594C5.00038 18.4594 0.970947 14.4299 0.970947 9.45935C0.970947 4.48879 5.00038 0.459351 9.97095 0.459351C14.9415 0.459351 18.9709 4.48879 18.9709 9.45935C18.9709 11.5844 18.2345 13.5374 17.0028 15.077L20.6781 18.7522C21.0686 19.1428 21.0686 19.7759 20.6781 20.1665C20.2875 20.557 19.6544 20.557 19.2638 20.1665L15.5886 16.4912Z" fill="#30387D" fill-opacity="0.52"/>
</svg>
