<svg width="23" height="23" viewBox="0 0 23 23" fill="none" xmlns="http://www.w3.org/2000/svg">
<path fill-rule="evenodd" clip-rule="evenodd" d="M16.4382 0.924787C14.865 0.911117 13.3494 1.51588 12.2177 2.60883L12.2074 2.61895L10.4874 4.32895C10.0958 4.71834 10.0939 5.3515 10.4833 5.74316C10.8727 6.13482 11.5058 6.13667 11.8975 5.74728L13.6121 4.04266C14.366 3.31702 15.3743 2.91562 16.4208 2.92471C17.4696 2.93383 18.4728 3.3545 19.2144 4.09613C19.9561 4.83777 20.3768 5.84102 20.3859 6.8898C20.395 7.93585 19.9939 8.94373 19.2689 9.6975L16.2754 12.691L16.2752 12.6911C15.8697 13.0968 15.3817 13.4105 14.8443 13.611C14.3069 13.8114 13.7327 13.894 13.1605 13.853C12.5884 13.812 12.0318 13.6485 11.5285 13.3735C11.0251 13.0985 10.5868 12.7184 10.2432 12.2591C9.91242 11.8169 9.28573 11.7265 8.84348 12.0574C8.40123 12.3882 8.31089 13.0148 8.6417 13.4571C9.15704 14.1461 9.81452 14.7161 10.5696 15.1286C11.3246 15.5411 12.1595 15.7864 13.0177 15.8479C13.8758 15.9094 14.7372 15.7855 15.5433 15.4848C16.3494 15.1841 17.0814 14.7136 17.6897 14.1051L20.6896 11.1052L20.7017 11.0928C21.7947 9.96122 22.3995 8.4456 22.3858 6.87242C22.3721 5.29924 21.7411 3.79437 20.6287 2.68192C19.5162 1.56947 18.0113 0.938458 16.4382 0.924787ZM9.86724 7.86834C9.00907 7.80688 8.14772 7.9307 7.34161 8.2314C6.53556 8.53209 5.80359 9.00259 5.19535 9.61101L5.19523 9.61114L2.19535 12.611L2.18317 12.6234C1.09022 13.755 0.485458 15.2706 0.499128 16.8438C0.512799 18.417 1.14381 19.9219 2.25626 21.0343C3.36871 22.1468 4.87358 22.7778 6.44676 22.7915C8.01995 22.8051 9.53556 22.2004 10.6672 21.1074L10.6796 21.0952L12.3896 19.3852C12.7801 18.9947 12.7801 18.3615 12.3896 17.971C11.999 17.5805 11.3659 17.5805 10.9754 17.971L9.27183 19.6745C8.51806 20.3996 7.51019 20.8006 6.46414 20.7915C5.41536 20.7824 4.41211 20.3617 3.67047 19.6201C2.92884 18.8785 2.50817 17.8752 2.49905 16.8264C2.48996 15.7804 2.89102 14.7725 3.61605 14.0187L6.60957 11.0252L6.6097 11.0251C7.0152 10.6194 7.50321 10.3057 8.04062 10.1053C8.57803 9.9048 9.15226 9.82226 9.72437 9.86323C10.2965 9.90421 10.8531 10.0677 11.3565 10.3427C11.8598 10.6178 12.2981 10.9978 12.6417 11.4571C12.9725 11.8993 13.5992 11.9897 14.0414 11.6589C14.4837 11.3281 14.574 10.7014 14.2432 10.2591C13.7279 9.57019 13.0704 9.00012 12.3154 8.58761C11.5603 8.17511 10.7254 7.9298 9.86724 7.86834Z" fill="#30387D" fill-opacity="0.69"/>
</svg>
