<svg width="22" height="6" viewBox="0 0 22 6" fill="none" xmlns="http://www.w3.org/2000/svg">
<path fill-rule="evenodd" clip-rule="evenodd" d="M2.38981 0.53125C1.0835 0.53125 0.0245361 1.59022 0.0245361 2.89652C0.0245361 4.20282 1.0835 5.26179 2.38981 5.26179C3.69611 5.26179 4.75508 4.20282 4.75508 2.89652C4.75508 1.59022 3.69611 0.53125 2.38981 0.53125ZM8.30299 2.89652C8.30299 1.59022 9.36195 0.53125 10.6683 0.53125C11.9746 0.53125 13.0335 1.59022 13.0335 2.89652C13.0335 4.20282 11.9746 5.26179 10.6683 5.26179C9.36195 5.26179 8.30299 4.20282 8.30299 2.89652ZM16.5814 2.89652C16.5814 1.59022 17.6404 0.53125 18.9467 0.53125C20.253 0.53125 21.312 1.59022 21.312 2.89652C21.312 4.20282 20.253 5.26179 18.9467 5.26179C17.6404 5.26179 16.5814 4.20282 16.5814 2.89652Z" fill="#30387D" fill-opacity="0.12"/>
</svg>
