<svg width="16" height="4" viewBox="0 0 16 4" fill="none" xmlns="http://www.w3.org/2000/svg">
<path fill-rule="evenodd" clip-rule="evenodd" d="M2.5835 0.290024C1.67127 0.290024 0.931763 1.02953 0.931763 1.94176C0.931763 2.85399 1.67127 3.5935 2.5835 3.5935C3.49573 3.5935 4.23524 2.85399 4.23524 1.94176C4.23524 1.02953 3.49573 0.290024 2.5835 0.290024ZM6.71288 1.94176C6.71288 1.02953 7.45239 0.290024 8.36462 0.290024C9.27685 0.290024 10.0164 1.02953 10.0164 1.94176C10.0164 2.85399 9.27685 3.5935 8.36462 3.5935C7.45239 3.5935 6.71288 2.85399 6.71288 1.94176ZM12.494 1.94176C12.494 1.02953 13.2335 0.290024 14.1457 0.290024C15.0579 0.290024 15.7974 1.02953 15.7974 1.94176C15.7974 2.85399 15.0579 3.5935 14.1457 3.5935C13.2335 3.5935 12.494 2.85399 12.494 1.94176Z" fill="#30387D" fill-opacity="0.12"/>
</svg>
