<svg width="23" height="23" viewBox="0 0 23 23" fill="none" xmlns="http://www.w3.org/2000/svg">
<path fill-rule="evenodd" clip-rule="evenodd" d="M16.4381 0.469221C14.865 0.45555 13.3494 1.06032 12.2177 2.15327L12.2074 2.16339L10.4874 3.87339C10.0957 4.26277 10.0939 4.89593 10.4833 5.2876C10.8727 5.67926 11.5058 5.6811 11.8975 5.29172L13.6121 3.58709C14.366 2.86146 15.3743 2.46005 16.4208 2.46915C17.4696 2.47826 18.4728 2.89894 19.2144 3.64057C19.9561 4.3822 20.3767 5.38545 20.3859 6.43424C20.395 7.48029 19.9939 8.48816 19.2689 9.24193L16.2753 12.2354L16.2752 12.2356C15.8697 12.6412 15.3817 12.9549 14.8443 13.1554C14.3069 13.3559 13.7327 13.4384 13.1605 13.3974C12.5884 13.3565 12.0318 13.1929 11.5285 12.9179C11.0251 12.6429 10.5868 12.2629 10.2432 11.8036C9.91241 11.3613 9.28572 11.271 8.84347 11.6018C8.40122 11.9326 8.31088 12.5593 8.64169 13.0015C9.15703 13.6905 9.81452 14.2606 10.5695 14.6731C11.3246 15.0856 12.1595 15.3309 13.0177 15.3923C13.8758 15.4538 14.7372 15.33 15.5433 15.0293C16.3494 14.7286 17.0814 14.258 17.6897 13.6495L20.6896 10.6497L20.7017 10.6373C21.7947 9.50565 22.3995 7.99004 22.3858 6.41686C22.3721 4.84368 21.7411 3.3388 20.6287 2.22635C19.5162 1.1139 18.0113 0.482891 16.4381 0.469221ZM9.86724 7.41277C9.00907 7.35131 8.14771 7.47513 7.3416 7.77584C6.53555 8.07652 5.80358 8.54702 5.19535 9.15545L5.19522 9.15557L2.19535 12.1554L2.18316 12.1678C1.09022 13.2995 0.48545 14.8151 0.499121 16.3882C0.512791 17.9614 1.1438 19.4663 2.25625 20.5788C3.3687 21.6912 4.87358 22.3222 6.44676 22.3359C8.01994 22.3496 9.53555 21.7448 10.6672 20.6518L10.6796 20.6397L12.3896 18.9297C12.7801 18.5391 12.7801 17.906 12.3896 17.5154C11.999 17.1249 11.3659 17.1249 10.9753 17.5154L9.27182 19.219C8.51805 19.944 7.51018 20.3451 6.46414 20.336C5.41535 20.3268 4.4121 19.9062 3.67047 19.1645C2.92883 18.4229 2.50816 17.4197 2.49905 16.3709C2.48996 15.3248 2.89101 14.3169 3.61604 13.5632L6.60956 10.5697L6.60969 10.5695C7.0152 10.1639 7.5032 9.85018 8.04061 9.64971C8.57802 9.44924 9.15225 9.36669 9.72437 9.40767C10.2965 9.44864 10.8531 9.61217 11.3564 9.88718C11.8598 10.1622 12.2981 10.5422 12.6417 11.0015C12.9725 11.4438 13.5992 11.5341 14.0414 11.2033C14.4837 10.8725 14.574 10.2458 14.2432 9.80357C13.7279 9.11462 13.0704 8.54456 12.3154 8.13205C11.5603 7.71954 10.7254 7.47424 9.86724 7.41277Z" fill="#30387D" fill-opacity="0.69"/>
</svg>
