<svg width="17" height="17" viewBox="0 0 17 17" fill="none" xmlns="http://www.w3.org/2000/svg">
<path fill-rule="evenodd" clip-rule="evenodd" d="M9.08167 1.93799C9.08167 1.3857 8.63395 0.937988 8.08167 0.937988C7.52938 0.937988 7.08167 1.3857 7.08167 1.93799V7.93799H1.08167C0.52938 7.93799 0.081665 8.3857 0.081665 8.93799C0.081665 9.49027 0.52938 9.93799 1.08167 9.93799H7.08167V15.938C7.08167 16.4903 7.52938 16.938 8.08167 16.938C8.63395 16.938 9.08167 16.4903 9.08167 15.938V9.93799H15.0817C15.634 9.93799 16.0817 9.49027 16.0817 8.93799C16.0817 8.3857 15.634 7.93799 15.0817 7.93799H9.08167V1.93799Z" fill="white"/>
</svg>
