<svg width="23" height="23" viewBox="0 0 23 23" fill="none" xmlns="http://www.w3.org/2000/svg">
<path fill-rule="evenodd" clip-rule="evenodd" d="M16.4381 0.772932C14.865 0.759261 13.3494 1.36403 12.2177 2.45698L12.2074 2.4671L10.4874 4.1771C10.0957 4.56648 10.0939 5.19965 10.4833 5.59131C10.8727 5.98297 11.5058 5.98481 11.8975 5.59543L13.6121 3.8908C14.366 3.16517 15.3743 2.76376 16.4208 2.77286C17.4696 2.78197 18.4728 3.20265 19.2144 3.94428C19.9561 4.68591 20.3767 5.68916 20.3859 6.73795C20.395 7.784 19.9939 8.79187 19.2689 9.54564L16.2753 12.5392L16.2752 12.5393C15.8697 12.9449 15.3817 13.2586 14.8443 13.4591C14.3069 13.6596 13.7327 13.7421 13.1605 13.7012C12.5884 13.6602 12.0318 13.4966 11.5285 13.2216C11.0251 12.9466 10.5868 12.5666 10.2432 12.1073C9.91241 11.665 9.28572 11.5747 8.84347 11.9055C8.40122 12.2363 8.31088 12.863 8.64169 13.3052C9.15703 13.9942 9.81452 14.5643 10.5695 14.9768C11.3246 15.3893 12.1595 15.6346 13.0177 15.696C13.8758 15.7575 14.7372 15.6337 15.5433 15.333C16.3494 15.0323 17.0814 14.5617 17.6897 13.9532L20.6896 10.9534L20.7017 10.941C21.7947 9.80936 22.3995 8.29375 22.3858 6.72057C22.3721 5.14739 21.7411 3.64251 20.6287 2.53006C19.5162 1.41762 18.0113 0.786602 16.4381 0.772932ZM9.86724 7.71649C9.00907 7.65503 8.14771 7.77885 7.3416 8.07955C6.53555 8.38023 5.80358 8.85074 5.19535 9.45916L5.19522 9.45929L2.19535 12.4592L2.18316 12.4716C1.09022 13.6032 0.48545 15.1188 0.499121 16.692C0.512791 18.2651 1.1438 19.77 2.25625 20.8825C3.3687 21.9949 4.87358 22.6259 6.44676 22.6396C8.01994 22.6533 9.53555 22.0485 10.6672 20.9556L10.6796 20.9434L12.3896 19.2334C12.7801 18.8428 12.7801 18.2097 12.3896 17.8192C11.999 17.4286 11.3659 17.4286 10.9753 17.8192L9.27182 19.5227C8.51805 20.2477 7.51018 20.6488 6.46414 20.6397C5.41535 20.6306 4.4121 20.2099 3.67047 19.4683C2.92883 18.7266 2.50816 17.7234 2.49905 16.6746C2.48996 15.6285 2.89101 14.6207 3.61604 13.8669L6.60956 10.8734L6.60969 10.8732C7.0152 10.4676 7.5032 10.1539 8.04061 9.95342C8.57802 9.75295 9.15225 9.6704 9.72437 9.71138C10.2965 9.75235 10.8531 9.91589 11.3564 10.1909C11.8598 10.4659 12.2981 10.8459 12.6417 11.3052C12.9725 11.7475 13.5992 11.8378 14.0414 11.507C14.4837 11.1762 14.574 10.5495 14.2432 10.1073C13.7279 9.41833 13.0704 8.84827 12.3154 8.43576C11.5603 8.02325 10.7254 7.77795 9.86724 7.71649Z" fill="#30387D" fill-opacity="0.69"/>
</svg>
