<svg width="16" height="4" viewBox="0 0 16 4" fill="none" xmlns="http://www.w3.org/2000/svg">
<path fill-rule="evenodd" clip-rule="evenodd" d="M2.5835 0.596024C1.67127 0.596024 0.931763 1.33553 0.931763 2.24776C0.931763 3.15999 1.67127 3.8995 2.5835 3.8995C3.49573 3.8995 4.23524 3.15999 4.23524 2.24776C4.23524 1.33553 3.49573 0.596024 2.5835 0.596024ZM6.71288 2.24776C6.71288 1.33553 7.45239 0.596024 8.36462 0.596024C9.27685 0.596024 10.0164 1.33553 10.0164 2.24776C10.0164 3.15999 9.27685 3.8995 8.36462 3.8995C7.45239 3.8995 6.71288 3.15999 6.71288 2.24776ZM12.494 2.24776C12.494 1.33553 13.2335 0.596024 14.1457 0.596024C15.0579 0.596024 15.7974 1.33553 15.7974 2.24776C15.7974 3.15999 15.0579 3.8995 14.1457 3.8995C13.2335 3.8995 12.494 3.15999 12.494 2.24776Z" fill="#30387D" fill-opacity="0.12"/>
</svg>
