<svg width="17" height="17" viewBox="0 0 17 17" fill="none" xmlns="http://www.w3.org/2000/svg">
<path fill-rule="evenodd" clip-rule="evenodd" d="M9.08179 1.93799C9.08179 1.3857 8.63407 0.937988 8.08179 0.937988C7.5295 0.937988 7.08179 1.3857 7.08179 1.93799V7.93799H1.08179C0.529502 7.93799 0.0817871 8.3857 0.0817871 8.93799C0.0817871 9.49027 0.529502 9.93799 1.08179 9.93799H7.08179V15.938C7.08179 16.4903 7.5295 16.938 8.08179 16.938C8.63407 16.938 9.08179 16.4903 9.08179 15.938V9.93799H15.0818C15.6341 9.93799 16.0818 9.49027 16.0818 8.93799C16.0818 8.3857 15.6341 7.93799 15.0818 7.93799H9.08179V1.93799Z" fill="white"/>
</svg>
