<svg width="17" height="17" viewBox="0 0 17 17" fill="none" xmlns="http://www.w3.org/2000/svg">
<path fill-rule="evenodd" clip-rule="evenodd" d="M9.44763 1.6073C9.44763 1.05502 8.99992 0.6073 8.44763 0.6073C7.89535 0.6073 7.44763 1.05502 7.44763 1.6073V7.6073H1.44763C0.895347 7.6073 0.447632 8.05502 0.447632 8.6073C0.447632 9.15958 0.895347 9.6073 1.44763 9.6073H7.44763V15.6073C7.44763 16.1596 7.89535 16.6073 8.44763 16.6073C8.99992 16.6073 9.44763 16.1596 9.44763 15.6073V9.6073H15.4476C15.9999 9.6073 16.4476 9.15958 16.4476 8.6073C16.4476 8.05502 15.9999 7.6073 15.4476 7.6073H9.44763V1.6073Z" fill="white"/>
</svg>
