<svg width="17" height="17" viewBox="0 0 17 17" fill="none" xmlns="http://www.w3.org/2000/svg">
<path fill-rule="evenodd" clip-rule="evenodd" d="M9.25681 1.16602C9.25681 0.613731 8.80909 0.166016 8.25681 0.166016C7.70452 0.166016 7.25681 0.613731 7.25681 1.16602V7.16602H1.25681C0.704521 7.16602 0.256805 7.61373 0.256805 8.16602C0.256805 8.7183 0.704521 9.16602 1.25681 9.16602H7.25681V15.166C7.25681 15.7183 7.70452 16.166 8.25681 16.166C8.80909 16.166 9.25681 15.7183 9.25681 15.166V9.16602H15.2568C15.8091 9.16602 16.2568 8.7183 16.2568 8.16602C16.2568 7.61373 15.8091 7.16602 15.2568 7.16602H9.25681V1.16602Z" fill="white"/>
</svg>
