<svg width="16" height="5" viewBox="0 0 16 5" fill="none" xmlns="http://www.w3.org/2000/svg">
<path fill-rule="evenodd" clip-rule="evenodd" d="M2.15125 0.98407C1.23902 0.98407 0.499512 1.72358 0.499512 2.63581C0.499512 3.54804 1.23902 4.28755 2.15125 4.28755C3.06348 4.28755 3.80299 3.54804 3.80299 2.63581C3.80299 1.72358 3.06348 0.98407 2.15125 0.98407ZM6.28059 2.63581C6.28059 1.72358 7.0201 0.98407 7.93233 0.98407C8.84456 0.98407 9.58407 1.72358 9.58407 2.63581C9.58407 3.54804 8.84456 4.28755 7.93233 4.28755C7.0201 4.28755 6.28059 3.54804 6.28059 2.63581ZM12.0617 2.63581C12.0617 1.72358 12.8012 0.98407 13.7134 0.98407C14.6256 0.98407 15.3651 1.72358 15.3651 2.63581C15.3651 3.54804 14.6256 4.28755 13.7134 4.28755C12.8012 4.28755 12.0617 3.54804 12.0617 2.63581Z" fill="#30387D" fill-opacity="0.12"/>
</svg>
