<svg width="22" height="6" viewBox="0 0 22 6" fill="none" xmlns="http://www.w3.org/2000/svg">
<path fill-rule="evenodd" clip-rule="evenodd" d="M2.81516 0.660294C1.50886 0.660294 0.44989 1.71926 0.44989 3.02557C0.44989 4.33187 1.50886 5.39084 2.81516 5.39084C4.12147 5.39084 5.18043 4.33187 5.18043 3.02557C5.18043 1.71926 4.12147 0.660294 2.81516 0.660294ZM8.72834 3.02557C8.72834 1.71926 9.78731 0.660294 11.0936 0.660294C12.3999 0.660294 13.4589 1.71926 13.4589 3.02557C13.4589 4.33187 12.3999 5.39084 11.0936 5.39084C9.78731 5.39084 8.72834 4.33187 8.72834 3.02557ZM17.0068 3.02557C17.0068 1.71926 18.0658 0.660294 19.3721 0.660294C20.6784 0.660294 21.7373 1.71926 21.7373 3.02557C21.7373 4.33187 20.6784 5.39084 19.3721 5.39084C18.0658 5.39084 17.0068 4.33187 17.0068 3.02557Z" fill="#30387D" fill-opacity="0.12"/>
</svg>
