<svg width="21" height="21" viewBox="0 0 21 21" fill="none" xmlns="http://www.w3.org/2000/svg">
<path fill-rule="evenodd" clip-rule="evenodd" d="M2.86816 9.45935C2.86816 5.59336 6.00217 2.45935 9.86816 2.45935C13.7342 2.45935 16.8682 5.59336 16.8682 9.45935C16.8682 11.3453 16.1223 13.057 14.9096 14.3157C14.8753 14.3421 14.8424 14.3709 14.8111 14.4022C14.7797 14.4336 14.7509 14.4665 14.7246 14.5007C13.4659 15.7135 11.7541 16.4594 9.86816 16.4594C6.00217 16.4594 2.86816 13.3253 2.86816 9.45935ZM15.4859 16.4912C13.9462 17.7229 11.9932 18.4594 9.86816 18.4594C4.8976 18.4594 0.868164 14.4299 0.868164 9.45935C0.868164 4.48879 4.8976 0.459351 9.86816 0.459351C14.8387 0.459351 18.8682 4.48879 18.8682 9.45935C18.8682 11.5844 18.1317 13.5374 16.9001 15.077L20.5753 18.7522C20.9658 19.1428 20.9658 19.7759 20.5753 20.1665C20.1847 20.557 19.5516 20.557 19.1611 20.1665L15.4859 16.4912Z" fill="#30387D" fill-opacity="0.52"/>
</svg>
