<svg width="5" height="18" viewBox="0 0 5 18" fill="none" xmlns="http://www.w3.org/2000/svg">
<path fill-rule="evenodd" clip-rule="evenodd" d="M0.199951 2.00085C0.199951 0.896285 1.09538 0.000854492 2.19995 0.000854492C3.30452 0.000854492 4.19995 0.896285 4.19995 2.00085C4.19995 3.10542 3.30452 4.00085 2.19995 4.00085C1.09538 4.00085 0.199951 3.10542 0.199951 2.00085ZM0.199951 9.00085C0.199951 7.89629 1.09538 7.00085 2.19995 7.00085C3.30452 7.00085 4.19995 7.89629 4.19995 9.00085C4.19995 10.1054 3.30452 11.0009 2.19995 11.0009C1.09538 11.0009 0.199951 10.1054 0.199951 9.00085ZM2.19995 14.0009C1.09538 14.0009 0.199951 14.8963 0.199951 16.0009C0.199951 17.1054 1.09538 18.0009 2.19995 18.0009C3.30452 18.0009 4.19995 17.1054 4.19995 16.0009C4.19995 14.8963 3.30452 14.0009 2.19995 14.0009Z" fill="#30387D" fill-opacity="0.69"/>
</svg>
