<svg width="16" height="4" viewBox="0 0 16 4" fill="none" xmlns="http://www.w3.org/2000/svg">
<path fill-rule="evenodd" clip-rule="evenodd" d="M2.15125 0.596069C1.23902 0.596069 0.499512 1.33558 0.499512 2.24781C0.499512 3.16004 1.23902 3.89955 2.15125 3.89955C3.06348 3.89955 3.80299 3.16004 3.80299 2.24781C3.80299 1.33558 3.06348 0.596069 2.15125 0.596069ZM6.28059 2.24781C6.28059 1.33558 7.0201 0.596069 7.93233 0.596069C8.84456 0.596069 9.58407 1.33558 9.58407 2.24781C9.58407 3.16004 8.84456 3.89955 7.93233 3.89955C7.0201 3.89955 6.28059 3.16004 6.28059 2.24781ZM12.0617 2.24781C12.0617 1.33558 12.8012 0.596069 13.7134 0.596069C14.6256 0.596069 15.3651 1.33558 15.3651 2.24781C15.3651 3.16004 14.6256 3.89955 13.7134 3.89955C12.8012 3.89955 12.0617 3.16004 12.0617 2.24781Z" fill="#30387D" fill-opacity="0.12"/>
</svg>
