<svg width="17" height="17" viewBox="0 0 17 17" fill="none" xmlns="http://www.w3.org/2000/svg">
<path fill-rule="evenodd" clip-rule="evenodd" d="M9.44775 1.6073C9.44775 1.05502 9.00004 0.6073 8.44775 0.6073C7.89547 0.6073 7.44775 1.05502 7.44775 1.6073V7.6073H1.44775C0.895469 7.6073 0.447754 8.05502 0.447754 8.6073C0.447754 9.15958 0.895469 9.6073 1.44775 9.6073H7.44775V15.6073C7.44775 16.1596 7.89547 16.6073 8.44775 16.6073C9.00004 16.6073 9.44775 16.1596 9.44775 15.6073V9.6073H15.4478C16 9.6073 16.4478 9.15958 16.4478 8.6073C16.4478 8.05502 16 7.6073 15.4478 7.6073H9.44775V1.6073Z" fill="white"/>
</svg>
