<svg width="23" height="23" viewBox="0 0 23 23" fill="none" xmlns="http://www.w3.org/2000/svg">
<path fill-rule="evenodd" clip-rule="evenodd" d="M16.4381 0.621076C14.865 0.607406 13.3494 1.21217 12.2177 2.30512L12.2074 2.31524L10.4874 4.02524C10.0957 4.41463 10.0939 5.04779 10.4833 5.43945C10.8727 5.83111 11.5058 5.83296 11.8975 5.44357L13.6121 3.73895C14.366 3.01331 15.3743 2.61191 16.4208 2.621C17.4696 2.63011 18.4728 3.05079 19.2144 3.79242C19.9561 4.53406 20.3767 5.5373 20.3859 6.58609C20.395 7.63214 19.9939 8.64002 19.2689 9.39379L16.2753 12.3873L16.2752 12.3874C15.8697 12.7931 15.3817 13.1068 14.8443 13.3073C14.3069 13.5077 13.7327 13.5903 13.1605 13.5493C12.5884 13.5083 12.0318 13.3448 11.5285 13.0698C11.0251 12.7948 10.5868 12.4147 10.2432 11.9554C9.91241 11.5132 9.28572 11.4228 8.84347 11.7536C8.40122 12.0845 8.31088 12.7111 8.64169 13.1534C9.15703 13.8423 9.81452 14.4124 10.5695 14.8249C11.3246 15.2374 12.1595 15.4827 13.0177 15.5442C13.8758 15.6056 14.7372 15.4818 15.5433 15.1811C16.3494 14.8804 17.0814 14.4099 17.6897 13.8014L20.6896 10.8015L20.7017 10.7891C21.7947 9.65751 22.3995 8.14189 22.3858 6.56871C22.3721 4.99553 21.7411 3.49066 20.6287 2.37821C19.5162 1.26576 18.0113 0.634747 16.4381 0.621076ZM9.86724 7.56463C9.00907 7.50317 8.14771 7.62699 7.3416 7.92769C6.53555 8.22837 5.80358 8.69888 5.19535 9.3073L5.19522 9.30743L2.19535 12.3073L2.18316 12.3197C1.09022 13.4513 0.48545 14.9669 0.499121 16.5401C0.512791 18.1133 1.1438 19.6182 2.25625 20.7306C3.3687 21.8431 4.87358 22.4741 6.44676 22.4877C8.01994 22.5014 9.53555 21.8966 10.6672 20.8037L10.6796 20.7915L12.3896 19.0815C12.7801 18.691 12.7801 18.0578 12.3896 17.6673C11.999 17.2768 11.3659 17.2768 10.9753 17.6673L9.27182 19.3708C8.51805 20.0959 7.51018 20.4969 6.46414 20.4878C5.41535 20.4787 4.4121 20.058 3.67047 19.3164C2.92883 18.5748 2.50816 17.5715 2.49905 16.5227C2.48996 15.4767 2.89101 14.4688 3.61604 13.715L6.60956 10.7215L6.60969 10.7214C7.0152 10.3157 7.5032 10.002 8.04061 9.80156C8.57802 9.60109 9.15225 9.51855 9.72437 9.55952C10.2965 9.60049 10.8531 9.76403 11.3564 10.039C11.8598 10.314 12.2981 10.6941 12.6417 11.1534C12.9725 11.5956 13.5992 11.686 14.0414 11.3552C14.4837 11.0244 14.574 10.3977 14.2432 9.95543C13.7279 9.26648 13.0704 8.69641 12.3154 8.2839C11.5603 7.87139 10.7254 7.62609 9.86724 7.56463Z" fill="#30387D" fill-opacity="0.69"/>
</svg>
