<svg width="17" height="17" viewBox="0 0 17 17" fill="none" xmlns="http://www.w3.org/2000/svg">
<path fill-rule="evenodd" clip-rule="evenodd" d="M9.46619 1.10266C9.46619 0.550376 9.01847 0.102661 8.46619 0.102661C7.9139 0.102661 7.46619 0.550376 7.46619 1.10266V7.10266H1.46619C0.913902 7.10266 0.466187 7.55038 0.466187 8.10266C0.466187 8.65495 0.913902 9.10266 1.46619 9.10266H7.46619V15.1027C7.46619 15.6549 7.9139 16.1027 8.46619 16.1027C9.01847 16.1027 9.46619 15.6549 9.46619 15.1027V9.10266H15.4662C16.0185 9.10266 16.4662 8.65495 16.4662 8.10266C16.4662 7.55038 16.0185 7.10266 15.4662 7.10266H9.46619V1.10266Z" fill="white"/>
</svg>
