<svg width="21" height="21" viewBox="0 0 21 21" fill="none" xmlns="http://www.w3.org/2000/svg">
<path fill-rule="evenodd" clip-rule="evenodd" d="M2.9707 9.45935C2.9707 5.59336 6.10471 2.45935 9.9707 2.45935C13.8367 2.45935 16.9707 5.59336 16.9707 9.45935C16.9707 11.3453 16.2249 13.057 15.0121 14.3157C14.9779 14.3421 14.9449 14.3709 14.9136 14.4022C14.8822 14.4336 14.8534 14.4665 14.8271 14.5007C13.5684 15.7135 11.8566 16.4594 9.9707 16.4594C6.10471 16.4594 2.9707 13.3253 2.9707 9.45935ZM15.5884 16.4912C14.0487 17.7229 12.0957 18.4594 9.9707 18.4594C5.00014 18.4594 0.970703 14.4299 0.970703 9.45935C0.970703 4.48879 5.00014 0.459351 9.9707 0.459351C14.9413 0.459351 18.9707 4.48879 18.9707 9.45935C18.9707 11.5844 18.2342 13.5374 17.0026 15.077L20.6778 18.7522C21.0683 19.1428 21.0683 19.7759 20.6778 20.1665C20.2873 20.557 19.6541 20.557 19.2636 20.1665L15.5884 16.4912Z" fill="#30387D" fill-opacity="0.52"/>
</svg>
