<svg width="17" height="17" viewBox="0 0 17 17" fill="none" xmlns="http://www.w3.org/2000/svg">
<path fill-rule="evenodd" clip-rule="evenodd" d="M9.6438 1.16602C9.6438 0.613731 9.19608 0.166016 8.6438 0.166016C8.09151 0.166016 7.6438 0.613731 7.6438 1.16602V7.16602H1.6438C1.09151 7.16602 0.643799 7.61373 0.643799 8.16602C0.643799 8.7183 1.09151 9.16602 1.6438 9.16602H7.6438V15.166C7.6438 15.7183 8.09151 16.166 8.6438 16.166C9.19608 16.166 9.6438 15.7183 9.6438 15.166V9.16602H15.6438C16.1961 9.16602 16.6438 8.7183 16.6438 8.16602C16.6438 7.61373 16.1961 7.16602 15.6438 7.16602H9.6438V1.16602Z" fill="white"/>
</svg>
