<svg width="23" height="6" viewBox="0 0 23 6" fill="none" xmlns="http://www.w3.org/2000/svg">
<path fill-rule="evenodd" clip-rule="evenodd" d="M3.35294 0.53125C2.04664 0.53125 0.987671 1.59022 0.987671 2.89652C0.987671 4.20282 2.04664 5.26179 3.35294 5.26179C4.65924 5.26179 5.71821 4.20282 5.71821 2.89652C5.71821 1.59022 4.65924 0.53125 3.35294 0.53125ZM9.26612 2.89652C9.26612 1.59022 10.3251 0.53125 11.6314 0.53125C12.9377 0.53125 13.9967 1.59022 13.9967 2.89652C13.9967 4.20282 12.9377 5.26179 11.6314 5.26179C10.3251 5.26179 9.26612 4.20282 9.26612 2.89652ZM17.5446 2.89652C17.5446 1.59022 18.6035 0.53125 19.9098 0.53125C21.2161 0.53125 22.2751 1.59022 22.2751 2.89652C22.2751 4.20282 21.2161 5.26179 19.9098 5.26179C18.6035 5.26179 17.5446 4.20282 17.5446 2.89652Z" fill="#30387D" fill-opacity="0.12"/>
</svg>
