<svg width="16" height="4" viewBox="0 0 16 4" fill="none" xmlns="http://www.w3.org/2000/svg">
<path fill-rule="evenodd" clip-rule="evenodd" d="M2.27759 0.290024C1.36536 0.290024 0.625854 1.02953 0.625854 1.94176C0.625854 2.85399 1.36536 3.5935 2.27759 3.5935C3.18982 3.5935 3.92933 2.85399 3.92933 1.94176C3.92933 1.02953 3.18982 0.290024 2.27759 0.290024ZM6.40697 1.94176C6.40697 1.02953 7.14648 0.290024 8.05871 0.290024C8.97094 0.290024 9.71045 1.02953 9.71045 1.94176C9.71045 2.85399 8.97094 3.5935 8.05871 3.5935C7.14648 3.5935 6.40697 2.85399 6.40697 1.94176ZM12.1881 1.94176C12.1881 1.02953 12.9276 0.290024 13.8398 0.290024C14.752 0.290024 15.4915 1.02953 15.4915 1.94176C15.4915 2.85399 14.752 3.5935 13.8398 3.5935C12.9276 3.5935 12.1881 2.85399 12.1881 1.94176Z" fill="#30387D" fill-opacity="0.12"/>
</svg>
