<svg width="23" height="23" viewBox="0 0 23 23" fill="none" xmlns="http://www.w3.org/2000/svg">
<path fill-rule="evenodd" clip-rule="evenodd" d="M16.4381 0.317365C14.865 0.303695 13.3494 0.908461 12.2177 2.00141L12.2074 2.01153L10.4874 3.72153C10.0957 4.11092 10.0939 4.74408 10.4833 5.13574C10.8727 5.5274 11.5058 5.52925 11.8975 5.13986L13.6121 3.43524C14.366 2.7096 15.3743 2.3082 16.4208 2.31729C17.4696 2.3264 18.4728 2.74708 19.2144 3.48871C19.9561 4.23034 20.3767 5.23359 20.3859 6.28238C20.395 7.32843 19.9939 8.33631 19.2689 9.09008L16.2753 12.0836L16.2752 12.0837C15.8697 12.4894 15.3817 12.8031 14.8443 13.0035C14.3069 13.204 13.7327 13.2866 13.1605 13.2456C12.5884 13.2046 12.0318 13.0411 11.5285 12.7661C11.0251 12.4911 10.5868 12.111 10.2432 11.6517C9.91241 11.2095 9.28572 11.1191 8.84347 11.4499C8.40122 11.7807 8.31088 12.4074 8.64169 12.8497C9.15703 13.5386 9.81452 14.1087 10.5695 14.5212C11.3246 14.9337 12.1595 15.179 13.0177 15.2405C13.8758 15.3019 14.7372 15.1781 15.5433 14.8774C16.3494 14.5767 17.0814 14.1062 17.6897 13.4977L20.6896 10.4978L20.7017 10.4854C21.7947 9.3538 22.3995 7.83818 22.3858 6.265C22.3721 4.69182 21.7411 3.18695 20.6287 2.0745C19.5162 0.962049 18.0113 0.331036 16.4381 0.317365ZM9.86724 7.26092C9.00907 7.19946 8.14771 7.32328 7.3416 7.62398C6.53555 7.92466 5.80358 8.39517 5.19535 9.00359L5.19522 9.00372L2.19535 12.0036L2.18316 12.016C1.09022 13.1476 0.48545 14.6632 0.499121 16.2364C0.512791 17.8096 1.1438 19.3144 2.25625 20.4269C3.3687 21.5393 4.87358 22.1704 6.44676 22.184C8.01994 22.1977 9.53555 21.5929 10.6672 20.5L10.6796 20.4878L12.3896 18.7778C12.7801 18.3873 12.7801 17.7541 12.3896 17.3636C11.999 16.9731 11.3659 16.9731 10.9753 17.3636L9.27182 19.0671C8.51805 19.7921 7.51018 20.1932 6.46414 20.1841C5.41535 20.175 4.4121 19.7543 3.67047 19.0127C2.92883 18.2711 2.50816 17.2678 2.49905 16.219C2.48996 15.173 2.89101 14.1651 3.61604 13.4113L6.60956 10.4178L6.60969 10.4177C7.0152 10.012 7.5032 9.69832 8.04061 9.49785C8.57802 9.29738 9.15225 9.21484 9.72437 9.25581C10.2965 9.29678 10.8531 9.46032 11.3564 9.73532C11.8598 10.0103 12.2981 10.3904 12.6417 10.8497C12.9725 11.2919 13.5992 11.3823 14.0414 11.0515C14.4837 10.7207 14.574 10.094 14.2432 9.65172C13.7279 8.96276 13.0704 8.3927 12.3154 7.98019C11.5603 7.56768 10.7254 7.32238 9.86724 7.26092Z" fill="#30387D" fill-opacity="0.69"/>
</svg>
