<svg width="22" height="5" viewBox="0 0 22 5" fill="none" xmlns="http://www.w3.org/2000/svg">
<path fill-rule="evenodd" clip-rule="evenodd" d="M2.38981 0.077774C1.0835 0.077774 0.0245361 1.13674 0.0245361 2.44304C0.0245361 3.74935 1.0835 4.80832 2.38981 4.80832C3.69611 4.80832 4.75508 3.74935 4.75508 2.44304C4.75508 1.13674 3.69611 0.077774 2.38981 0.077774ZM8.30299 2.44304C8.30299 1.13674 9.36195 0.077774 10.6683 0.077774C11.9746 0.077774 13.0335 1.13674 13.0335 2.44304C13.0335 3.74935 11.9746 4.80832 10.6683 4.80832C9.36195 4.80832 8.30299 3.74935 8.30299 2.44304ZM16.5814 2.44304C16.5814 1.13674 17.6404 0.077774 18.9467 0.077774C20.253 0.077774 21.312 1.13674 21.312 2.44304C21.312 3.74935 20.253 4.80832 18.9467 4.80832C17.6404 4.80832 16.5814 3.74935 16.5814 2.44304Z" fill="#30387D" fill-opacity="0.12"/>
</svg>
