<svg width="17" height="17" viewBox="0 0 17 17" fill="none" xmlns="http://www.w3.org/2000/svg">
<path fill-rule="evenodd" clip-rule="evenodd" d="M9.46619 1.51154C9.46619 0.959251 9.01847 0.511536 8.46619 0.511536C7.9139 0.511536 7.46619 0.959251 7.46619 1.51154V7.51154H1.46619C0.913902 7.51154 0.466187 7.95925 0.466187 8.51154C0.466187 9.06382 0.913902 9.51154 1.46619 9.51154H7.46619V15.5115C7.46619 16.0638 7.9139 16.5115 8.46619 16.5115C9.01847 16.5115 9.46619 16.0638 9.46619 15.5115V9.51154H15.4662C16.0185 9.51154 16.4662 9.06382 16.4662 8.51154C16.4662 7.95925 16.0185 7.51154 15.4662 7.51154H9.46619V1.51154Z" fill="white"/>
</svg>
