<svg width="18" height="16" viewBox="0 0 18 16" fill="none" xmlns="http://www.w3.org/2000/svg">
<path d="M16.2329 1.36232C15.811 0.9403 15.3102 0.605527 14.759 0.377123C14.2077 0.148719 13.6169 0.0311584 13.0202 0.0311584C12.4236 0.0311584 11.8327 0.148719 11.2815 0.377123C10.7302 0.605527 10.2294 0.9403 9.8076 1.36232L8.93218 2.23774L8.05676 1.36232C7.20472 0.510273 6.0491 0.0316001 4.84413 0.0316001C3.63916 0.0316001 2.48354 0.510273 1.6315 1.36232C0.779454 2.21436 0.300781 3.36998 0.300781 4.57495C0.300781 5.77992 0.779454 6.93553 1.6315 7.78758L2.50692 8.663L8.93218 15.0883L15.3574 8.663L16.2329 7.78758C16.6549 7.36576 16.9896 6.86493 17.2181 6.31369C17.4465 5.76246 17.564 5.17163 17.564 4.57495C17.564 3.97827 17.4465 3.38743 17.2181 2.8362C16.9896 2.28496 16.6549 1.78413 16.2329 1.36232Z" fill="#6A82FF" fill-opacity="0.18"/>
</svg>
