<svg width="18" height="16" viewBox="0 0 18 16" fill="none" xmlns="http://www.w3.org/2000/svg">
<path d="M16.3591 2.05632C15.9373 1.6343 15.4364 1.29953 14.8852 1.07112C14.334 0.842719 13.7431 0.725159 13.1465 0.725159C12.5498 0.725159 11.9589 0.842719 11.4077 1.07112C10.8565 1.29953 10.3556 1.6343 9.93382 2.05632L9.0584 2.93174L8.18298 2.05632C7.33094 1.20427 6.17532 0.7256 4.97035 0.7256C3.76538 0.7256 2.60976 1.20427 1.75772 2.05632C0.905675 2.90836 0.427002 4.06398 0.427002 5.26895C0.427002 6.47392 0.905675 7.62953 1.75772 8.48158L2.63314 9.357L9.0584 15.7823L15.4837 9.357L16.3591 8.48158C16.7811 8.05976 17.1159 7.55893 17.3443 7.00769C17.5727 6.45646 17.6902 5.86563 17.6902 5.26895C17.6902 4.67227 17.5727 4.08143 17.3443 3.5302C17.1159 2.97896 16.7811 2.47813 16.3591 2.05632Z" fill="#6A82FF" fill-opacity="0.18"/>
</svg>
