<svg width="26" height="22" viewBox="0 0 26 22" fill="none" xmlns="http://www.w3.org/2000/svg">
<path d="M23.3841 2.23457C22.7801 1.63025 22.0629 1.15086 21.2736 0.823787C20.4842 0.496714 19.6381 0.328369 18.7837 0.328369C17.9293 0.328369 17.0832 0.496714 16.2938 0.823787C15.5045 1.15086 14.7873 1.63025 14.1832 2.23457L12.9297 3.48817L11.6761 2.23457C10.4559 1.01446 8.80111 0.329002 7.0756 0.329002C5.3501 0.329002 3.69527 1.01446 2.47515 2.23457C1.25503 3.45469 0.56958 5.10952 0.56958 6.83502C0.56958 8.56053 1.25503 10.2154 2.47515 11.4355L3.72874 12.6891L12.9297 21.89L22.1306 12.6891L23.3841 11.4355C23.9885 10.8314 24.4679 10.1143 24.7949 9.32489C25.122 8.53553 25.2904 7.68946 25.2904 6.83502C25.2904 5.98058 25.122 5.13452 24.7949 4.34516C24.4679 3.5558 23.9885 2.83861 23.3841 2.23457Z" fill="#6A82FF" fill-opacity="0.18"/>
</svg>
