<svg width="26" height="22" viewBox="0 0 26 22" fill="none" xmlns="http://www.w3.org/2000/svg">
<path d="M23.3844 2.23461C22.7804 1.63029 22.0632 1.1509 21.2738 0.823825C20.4844 0.496752 19.6384 0.328407 18.7839 0.328407C17.9295 0.328407 17.0834 0.496752 16.2941 0.823825C15.5047 1.1509 14.7875 1.63029 14.1835 2.23461L12.9299 3.4882L11.6763 2.23461C10.4562 1.01449 8.80135 0.32904 7.07585 0.32904C5.35034 0.32904 3.69551 1.01449 2.47539 2.23461C1.25528 3.45473 0.569824 5.10956 0.569824 6.83506C0.569824 8.56057 1.25528 10.2154 2.47539 11.4355L3.72899 12.6891L12.9299 21.89L22.1308 12.6891L23.3844 11.4355C23.9887 10.8315 24.4681 10.1143 24.7952 9.32493C25.1222 8.53557 25.2906 7.6895 25.2906 6.83506C25.2906 5.98062 25.1222 5.13456 24.7952 4.34519C24.4681 3.55583 23.9887 2.83865 23.3844 2.23461Z" fill="#6A82FF" fill-opacity="0.18"/>
</svg>
