<svg width="18" height="16" viewBox="0 0 18 16" fill="none" xmlns="http://www.w3.org/2000/svg">
<path d="M16.665 2.05632C16.2432 1.6343 15.7423 1.29953 15.1911 1.07112C14.6399 0.842719 14.049 0.725159 13.4524 0.725159C12.8557 0.725159 12.2648 0.842719 11.7136 1.07112C11.1624 1.29953 10.6615 1.6343 10.2397 2.05632L9.36431 2.93174L8.48889 2.05632C7.63684 1.20427 6.48123 0.7256 5.27626 0.7256C4.07129 0.7256 2.91567 1.20427 2.06363 2.05632C1.21158 2.90836 0.73291 4.06398 0.73291 5.26895C0.73291 6.47392 1.21158 7.62953 2.06363 8.48158L2.93905 9.357L9.36431 15.7823L15.7896 9.357L16.665 8.48158C17.087 8.05976 17.4218 7.55893 17.6502 7.00769C17.8786 6.45646 17.9961 5.86563 17.9961 5.26895C17.9961 4.67227 17.8786 4.08143 17.6502 3.5302C17.4218 2.97896 17.087 2.47813 16.665 2.05632Z" fill="#6A82FF" fill-opacity="0.18"/>
</svg>
