<svg width="26" height="23" viewBox="0 0 26 23" fill="none" xmlns="http://www.w3.org/2000/svg">
<path d="M23.5478 2.65303C22.9437 2.04871 22.2265 1.56932 21.4372 1.24224C20.6478 0.915171 19.8017 0.746826 18.9473 0.746826C18.0929 0.746826 17.2468 0.915171 16.4574 1.24224C15.6681 1.56932 14.9509 2.04871 14.3469 2.65303L13.0933 3.90662L11.8397 2.65303C10.6195 1.43291 8.96471 0.747459 7.23921 0.747459C5.5137 0.747459 3.85887 1.43291 2.63875 2.65303C1.41864 3.87314 0.733185 5.52798 0.733185 7.25348C0.733185 8.97899 1.41864 10.6338 2.63875 11.8539L3.89235 13.1075L13.0933 22.3084L22.2942 13.1075L23.5478 11.8539C24.1521 11.2499 24.6315 10.5327 24.9585 9.74335C25.2856 8.95399 25.454 8.10792 25.454 7.25348C25.454 6.39904 25.2856 5.55297 24.9585 4.76361C24.6315 3.97425 24.1521 3.25707 23.5478 2.65303Z" fill="#6A82FF" fill-opacity="0.18"/>
</svg>
