<svg width="18" height="16" viewBox="0 0 18 16" fill="none" xmlns="http://www.w3.org/2000/svg">
<path d="M16.665 1.75031C16.2432 1.32829 15.7423 0.99352 15.1911 0.765116C14.6399 0.536711 14.049 0.419151 13.4524 0.419151C12.8557 0.419151 12.2648 0.536711 11.7136 0.765116C11.1624 0.99352 10.6615 1.32829 10.2397 1.75031L9.36431 2.62573L8.48889 1.75031C7.63684 0.898266 6.48123 0.419593 5.27626 0.419593C4.07129 0.419593 2.91567 0.898266 2.06363 1.75031C1.21158 2.60235 0.73291 3.75797 0.73291 4.96294C0.73291 6.16791 1.21158 7.32353 2.06363 8.17557L2.93905 9.05099L9.36431 15.4762L15.7896 9.05099L16.665 8.17557C17.087 7.75375 17.4218 7.25292 17.6502 6.70169C17.8786 6.15045 17.9961 5.55962 17.9961 4.96294C17.9961 4.36626 17.8786 3.77542 17.6502 3.22419C17.4218 2.67296 17.087 2.17213 16.665 1.75031Z" fill="#6A82FF" fill-opacity="0.18"/>
</svg>
