<svg width="18" height="16" viewBox="0 0 18 16" fill="none" xmlns="http://www.w3.org/2000/svg">
<path d="M16.665 1.36232C16.2432 0.9403 15.7423 0.605527 15.1911 0.377123C14.6399 0.148719 14.049 0.0311584 13.4524 0.0311584C12.8557 0.0311584 12.2648 0.148719 11.7136 0.377123C11.1624 0.605527 10.6615 0.9403 10.2397 1.36232L9.36431 2.23774L8.48889 1.36232C7.63684 0.510273 6.48123 0.0316001 5.27626 0.0316001C4.07129 0.0316001 2.91567 0.510273 2.06363 1.36232C1.21158 2.21436 0.73291 3.36998 0.73291 4.57495C0.73291 5.77992 1.21158 6.93553 2.06363 7.78758L2.93905 8.663L9.36431 15.0883L15.7896 8.663L16.665 7.78758C17.087 7.36576 17.4218 6.86493 17.6502 6.31369C17.8786 5.76246 17.9961 5.17163 17.9961 4.57495C17.9961 3.97827 17.8786 3.38743 17.6502 2.8362C17.4218 2.28496 17.087 1.78413 16.665 1.36232Z" fill="#6A82FF" fill-opacity="0.18"/>
</svg>
