<svg width="18" height="16" viewBox="0 0 18 16" fill="none" xmlns="http://www.w3.org/2000/svg">
<path d="M16.2329 1.75031C15.811 1.32829 15.3102 0.99352 14.759 0.765116C14.2077 0.536711 13.6169 0.419151 13.0202 0.419151C12.4236 0.419151 11.8327 0.536711 11.2815 0.765116C10.7302 0.99352 10.2294 1.32829 9.8076 1.75031L8.93218 2.62573L8.05676 1.75031C7.20472 0.898266 6.0491 0.419593 4.84413 0.419593C3.63916 0.419593 2.48354 0.898266 1.6315 1.75031C0.779454 2.60235 0.300781 3.75797 0.300781 4.96294C0.300781 6.16791 0.779454 7.32353 1.6315 8.17557L2.50692 9.05099L8.93218 15.4762L15.3574 9.05099L16.2329 8.17557C16.6549 7.75375 16.9896 7.25292 17.2181 6.70169C17.4465 6.15045 17.564 5.55962 17.564 4.96294C17.564 4.36626 17.4465 3.77542 17.2181 3.22419C16.9896 2.67296 16.6549 2.17213 16.2329 1.75031Z" fill="#6A82FF" fill-opacity="0.18"/>
</svg>
