<svg width="26" height="23" viewBox="0 0 26 23" fill="none" xmlns="http://www.w3.org/2000/svg">
<path d="M23.5651 2.65304C22.9611 2.04871 22.2439 1.56932 21.4546 1.24225C20.6652 0.915179 19.8191 0.746834 18.9647 0.746834C18.1103 0.746834 17.2642 0.915179 16.4748 1.24225C15.6855 1.56932 14.9683 2.04871 14.3642 2.65304L13.1107 3.90663L11.8571 2.65304C10.6369 1.43292 8.98211 0.747466 7.2566 0.747466C5.5311 0.747466 3.87627 1.43292 2.65615 2.65304C1.43603 3.87315 0.75058 5.52798 0.75058 7.25349C0.75058 8.97899 1.43603 10.6338 2.65615 11.8539L3.90974 13.1075L13.1107 22.3084L22.3116 13.1075L23.5651 11.8539C24.1695 11.2499 24.6489 10.5327 24.9759 9.74336C25.303 8.954 25.4714 8.10793 25.4714 7.25349C25.4714 6.39905 25.303 5.55298 24.9759 4.76362C24.6489 3.97426 24.1695 3.25707 23.5651 2.65304Z" fill="#6A82FF" fill-opacity="0.18"/>
</svg>
